<?xml version="1.0" standalone="no"?>
<!DOCTYPE svg PUBLIC "-//W3C//DTD SVG 1.1//EN" "http://www.w3.org/Graphics/SVG/1.1/DTD/svg11.dtd" >
<svg xmlns="http://www.w3.org/2000/svg">
<metadata></metadata>
<defs>
<font id="pt_sansbold" horiz-adv-x="567" >
<font-face units-per-em="1000" ascent="770" descent="-230" />
<missing-glyph horiz-adv-x="253" />
<glyph unicode="fi" horiz-adv-x="553" d="M492 500v-500h-130v390h-151v-390h-130v390h-69v110h69v28q0 95 49 138.5t142 43.5q69 0 122.5 -10.5t86.5 -29.5l-34 -101q-26 14 -63 22.5t-82 8.5q-29 0 -47 -6.5t-28 -19t-13 -31.5t-3 -43h281z" />
<glyph unicode="fl" horiz-adv-x="593" d="M360 596q-13 3 -35.5 5t-43.5 2q-23 0 -37 -7t-21.5 -20t-9.5 -32.5t-2 -43.5h75v-110h-75v-390h-130v390h-69v110h69v28q0 94 45.5 139.5t156.5 45.5q23 0 53 -2t59.5 -4.5t55 -5.5t39.5 -6v-527q0 -35 9 -51t28 -16q12 0 23.5 2t28.5 9l15 -102q-16 -8 -49.5 -16 t-68.5 -8q-57 0 -86.5 26.5t-29.5 87.5v496z" />
<glyph unicode="&#xd;" horiz-adv-x="253" />
<glyph unicode=" "  horiz-adv-x="253" />
<glyph unicode="&#x09;" horiz-adv-x="253" />
<glyph unicode="&#xa0;" horiz-adv-x="253" />
<glyph unicode="!" horiz-adv-x="294" d="M100 700h134v-329l-26 -163h-82l-26 163v329zM86 66q0 35 22 55.5t58 20.5q38 0 60 -20.5t22 -55.5t-22 -56t-60 -21q-36 0 -58 21t-22 56z" />
<glyph unicode="&#x22;" horiz-adv-x="402" d="M90 700h114l-36 -216h-78v216zM238 700h114l-36 -216h-78v216z" />
<glyph unicode="#" d="M289 205h-89l-36 -154h-107l36 154h-74l22 97h75l25 106h-72l22 97h73l35 144h106l-34 -144h89l35 144h106l-34 -144h72l-25 -97h-70l-25 -106h69l-24 -97h-68l-36 -154h-107zM223 302h89l25 106h-89z" />
<glyph unicode="$" d="M238 -13q-57 2 -100 12t-67 23l39 113q18 -11 50.5 -21t77.5 -14v205q-31 14 -61.5 31t-54.5 41t-38.5 57.5t-14.5 79.5q0 86 45.5 133.5t123.5 61.5v91h104v-87q44 -3 77 -12t61 -21l-36 -111q-17 8 -43 16t-59 12v-187q31 -14 62.5 -31.5t56 -41.5t40 -56.5t15.5 -77.5 q0 -92 -46.5 -143.5t-127.5 -66.5v-93h-104v87zM386 188q0 32 -25.5 52.5t-61.5 37.5v-178q44 5 65.5 28t21.5 60zM199 525q0 -30 23.5 -50t58.5 -37v162q-47 -2 -64.5 -23t-17.5 -52z" />
<glyph unicode="%" horiz-adv-x="840" d="M51 542q0 45 13 77t36 53t55.5 30.5t70.5 9.5t70 -9t55.5 -29t36.5 -52.5t14 -79.5q-1 -47 -14 -79.5t-36.5 -52.5t-55.5 -29t-70 -9t-70.5 9t-55.5 29t-36 52.5t-13 79.5zM167 542q0 -86 59 -86q31 0 44.5 18.5t14.5 67.5q-1 48 -14.5 67t-44.5 19t-45 -19t-14 -67z M457 171q0 45 13 77t36 53t55.5 30.5t70.5 9.5t70 -9t55.5 -29t36.5 -52.5t14 -79.5q-1 -47 -14 -79.5t-36.5 -52.5t-55.5 -29t-70 -9t-70.5 9t-55.5 29t-36 52.5t-13 79.5zM573 171q0 -86 59 -86q31 0 44.5 18.5t14.5 67.5q-1 48 -14.5 67t-44.5 19t-45 -19t-14 -67z M677 714l73 -66l-576 -662l-73 69z" />
<glyph unicode="&#x26;" horiz-adv-x="814" d="M92 194q0 38 12.5 72.5t35 64.5t53.5 56t67 46q-25 33 -41 67t-16 72q0 25 9.5 50.5t30 46t53.5 33t80 12.5q46 0 78.5 -11t52.5 -29t29 -41t9 -47q0 -41 -29 -85.5t-99 -85.5q35 -54 70 -99t78 -89q23 25 41.5 62.5t32.5 76.5l94 -50q-6 -18 -16.5 -39.5t-23 -43.5 t-25.5 -41.5t-24 -33.5q32 -29 56 -45.5t49 -30.5l-69 -96q-28 13 -57.5 34.5t-58.5 49.5q-36 -33 -90 -58.5t-133 -25.5q-52 0 -97.5 14t-79 41t-53 65.5t-19.5 87.5zM486 149q-51 53 -93 105.5t-73 99.5q-48 -37 -73 -71.5t-25 -77.5q0 -51 37.5 -80t98.5 -29 q40 0 75 16.5t53 36.5zM333 566q0 -42 36 -90q39 25 56.5 47t17.5 42q0 24 -13.5 38t-43.5 14q-27 0 -40 -14t-13 -37z" />
<glyph unicode="'" horiz-adv-x="254" d="M90 700h114l-36 -216h-78v216z" />
<glyph unicode="(" horiz-adv-x="327" d="M227 -220q-46 48 -78 105.5t-51.5 118t-28.5 122t-9 117.5q0 55 9 116t29 122.5t52.5 120.5t79.5 110l84 -54q-35 -47 -58.5 -98t-38 -104.5t-21 -107.5t-6.5 -105q0 -48 7 -102t22 -107.5t39 -104.5t58 -93z" />
<glyph unicode=")" horiz-adv-x="327" d="M97 712q48 -48 80 -105.5t51.5 -118t28.5 -122t10 -119.5q-1 -53 -10 -114t-29 -122.5t-52.5 -120.5t-75.5 -110l-89 56q38 49 62 100.5t38 104t19.5 105t6.5 97.5q-1 54 -8.5 107.5t-22.5 107t-38.5 104t-54.5 96.5z" />
<glyph unicode="*" horiz-adv-x="378" d="M144 731l28 -46l15 -59l15 55l28 49l64 -35l-30 -52l-48 -43l65 16h57v-73h-55l-61 16l50 -47l25 -42l-64 -37l-27 46l-20 64l-13 -58l-29 -49l-64 37l29 49l45 37l-55 -16h-59v74h60l59 -17l-51 44l-28 50z" />
<glyph unicode="+" horiz-adv-x="527" d="M43 394h162v169h117v-169h163v-112h-163v-171h-117v171h-162v112z" />
<glyph unicode="," horiz-adv-x="252" d="M42 64q0 34 22.5 54t55.5 20q42 0 66 -28t24 -74q0 -45 -14 -77.5t-34.5 -54t-44 -34t-42.5 -18.5l-38 54q27 11 47 36t22 53q-23 -3 -43.5 14t-20.5 55z" />
<glyph unicode="-" horiz-adv-x="360" d="M54 345h251v-115h-251v115z" />
<glyph unicode="." horiz-adv-x="246" d="M42 66q0 35 22 55.5t58 20.5q38 0 60 -20.5t22 -55.5t-22 -56t-60 -21q-36 0 -58 21t-22 56z" />
<glyph unicode="/" horiz-adv-x="408" d="M333 712l98 -44l-357 -808l-98 46z" />
<glyph unicode="0" d="M40 351q0 184 63 273.5t181 89.5q126 0 185 -88.5t59 -274.5q0 -185 -63.5 -275t-181.5 -90q-125 0 -184 94.5t-59 270.5zM170 351q0 -122 26.5 -188.5t87.5 -66.5q59 0 86.5 61t27.5 194q0 121 -26 187t-89 66q-60 0 -86.5 -62t-26.5 -191z" />
<glyph unicode="1" d="M101 110h139v395l15 68l-48 -59l-89 -61l-55 75l228 184h73v-602h136v-110h-399v110z" />
<glyph unicode="2" d="M475 529q0 -51 -18.5 -103t-47 -102t-63 -96.5t-67.5 -85.5l-53 -41v-5l72 14h192v-110h-421v67q24 25 54 58.5t60.5 71t59.5 77.5t52 80.5t36.5 78.5t13.5 72q0 41 -23.5 67.5t-74.5 26.5q-32 0 -65.5 -13.5t-56.5 -34.5l-52 92q39 32 88.5 51.5t116.5 19.5q43 0 79 -12 t62 -35t41 -57.5t15 -80.5z" />
<glyph unicode="3" d="M241 96q62 0 94.5 33t32.5 80q0 57 -34 84t-107 27h-72v69l121 165l57 45l-79 -9h-168v110h382v-71l-141 -189l-44 -27v-5l42 6q35 -3 66.5 -16t55 -37.5t37.5 -60.5t14 -83q0 -59 -19.5 -102t-54 -72t-80.5 -43t-99 -14q-44 0 -91 8t-76 23l35 108q26 -13 57.5 -21 t70.5 -8z" />
<glyph unicode="4" d="M553 195h-110v-195h-121v195h-303v74l317 436h107v-406h110v-104zM322 452l9 84h-4l-34 -72l-104 -135l-50 -38l64 8h119v153z" />
<glyph unicode="5" d="M220 101q66 0 101 32t35 88q0 60 -41 88t-117 28l-79 -3v366h344v-122h-232v-135l41 4q49 -2 88.5 -18t67.5 -44.5t43 -69t15 -90.5q0 -59 -20 -104t-55.5 -75t-83.5 -45t-105 -15q-45 0 -85.5 7.5t-68.5 20.5l35 108q23 -10 50.5 -15.5t66.5 -5.5z" />
<glyph unicode="6" d="M520 217q0 -49 -16.5 -91t-46.5 -73t-72.5 -49t-93.5 -18q-52 0 -95.5 16.5t-75.5 49.5t-50 83t-18 116q0 99 28.5 179t77 139.5t113 96t136.5 48.5l29 -103q-50 -8 -92 -31t-74.5 -55t-55 -71.5t-31.5 -81.5q20 25 52 42.5t80 17.5q45 0 83 -14t65 -41.5t42 -67.5 t15 -92zM394 210q0 112 -110 112q-40 0 -67.5 -18t-38.5 -42q-2 -11 -2 -19v-16q0 -24 7 -47.5t20.5 -42t34.5 -30t50 -11.5q47 0 76.5 32t29.5 82z" />
<glyph unicode="7" d="M104 0l229 539l44 49l-60 -10h-257v122h451v-38l-280 -662h-127z" />
<glyph unicode="8" d="M61 171q0 35 9 62.5t25.5 50t39 40.5t48.5 33q-49 31 -77 71.5t-28 100.5q0 39 14.5 73t42 59t66.5 39t88 14q45 0 82 -12t63.5 -34t41 -53.5t14.5 -69.5q0 -59 -26.5 -100t-77.5 -75q60 -35 90.5 -77t30.5 -108q0 -45 -16.5 -81.5t-46.5 -62.5t-72 -40.5t-92 -14.5 t-90.5 13.5t-69 37.5t-44 58t-15.5 76zM383 184q0 23 -11 42t-28.5 34.5t-39 28.5t-43.5 25q-47 -27 -64.5 -58.5t-17.5 -62.5q0 -40 27.5 -68.5t76.5 -28.5q45 0 72.5 22t27.5 66zM202 527q0 -24 9 -42t24.5 -31.5t35 -25t40.5 -21.5q60 51 60 112q0 42 -24.5 63.5 t-59.5 21.5q-44 0 -64.5 -23t-20.5 -54z" />
<glyph unicode="9" d="M45 481q0 51 15.5 94t45 73.5t72 48t97.5 17.5q113 0 177.5 -67.5t64.5 -196.5q0 -116 -29.5 -200.5t-79 -141t-114.5 -86.5t-137 -36l-28 102q55 7 98 27t74 49.5t50.5 67t27.5 80.5q-24 -26 -51.5 -36t-73.5 -10q-38 0 -75.5 13t-67 39.5t-48 67t-18.5 95.5zM171 488 q0 -57 32 -86t80 -29q41 0 67 13t40 32q3 21 3 40q0 28 -7 55t-21.5 48t-37 33.5t-53.5 12.5q-49 0 -76 -31.5t-27 -87.5z" />
<glyph unicode=":" horiz-adv-x="269" d="M93 428q0 35 22 55.5t58 20.5q38 0 60 -20.5t22 -55.5t-22 -56t-60 -21q-36 0 -58 21t-22 56zM93 66q0 35 22 55.5t58 20.5q38 0 60 -20.5t22 -55.5t-22 -56t-60 -21q-36 0 -58 21t-22 56z" />
<glyph unicode=";" horiz-adv-x="290" d="M82 64q0 34 22.5 54t55.5 20q42 0 66 -28t24 -74q0 -45 -14 -77.5t-34.5 -54t-44 -34t-42.5 -18.5l-38 54q27 11 47 36t22 53q-23 -3 -43.5 14t-20.5 55zM82 428q0 35 22 55.5t58 20.5q38 0 60 -20.5t22 -55.5t-22 -56t-60 -21q-36 0 -58 21t-22 56z" />
<glyph unicode="&#x3c;" horiz-adv-x="527" d="M40 285v70l386 231l57 -90l-224 -139l-91 -35l90 -31l230 -137l-57 -90z" />
<glyph unicode="=" horiz-adv-x="527" d="M43 490h442v-112h-442v112zM43 299h442v-112h-442v112z" />
<glyph unicode="&#x3e;" horiz-adv-x="527" d="M487 365v-70l-386 -231l-57 91l224 138l91 36l-90 30l-230 138l57 89z" />
<glyph unicode="?" horiz-adv-x="454" d="M136 208q-5 52 5 88.5t27.5 63t40 46t42 37.5t32.5 37.5t13 46.5q0 35 -19.5 56t-69.5 21q-16 0 -34 -3.5t-36 -10t-34.5 -15t-29.5 -17.5l-50 96q38 26 87.5 43t119.5 17q94 0 147 -45.5t53 -122.5q0 -51 -13.5 -84.5t-33.5 -57t-44 -41.5t-44 -38.5t-34 -47.5t-14 -69 h-111zM116 66q0 35 22 55.5t58 20.5q38 0 60 -20.5t22 -55.5t-22 -56t-60 -21q-36 0 -58 21t-22 56z" />
<glyph unicode="@" horiz-adv-x="1059" d="M679 484h70l-48 -271q-8 -47 -0.5 -68t33.5 -21t51 12t45 37t32.5 63t12.5 90q0 75 -25 128t-68.5 87.5t-102.5 50.5t-127 16q-78 0 -145 -28t-116.5 -77t-77.5 -116.5t-28 -146.5q0 -78 23.5 -140t68.5 -105.5t111.5 -67t152.5 -23.5q29 0 66 7t67 21l31 -96 q-41 -20 -83.5 -28t-97.5 -8q-97 0 -179.5 28t-143 83t-94.5 136.5t-34 188.5q0 109 39 197t105 150t153 95.5t184 33.5q92 0 171 -26.5t137 -76t91 -121t33 -162.5q0 -64 -22.5 -120t-62 -97t-92 -65t-112.5 -24q-25 0 -46.5 5.5t-36 18.5t-21.5 34t-4 52h-4 q-15 -21 -32.5 -41t-38.5 -35.5t-46 -24.5t-55 -9q-24 0 -46 10.5t-38 29.5t-25.5 46t-9.5 60q0 62 20 120.5t54.5 103.5t80 72.5t96.5 27.5q35 0 59 -10.5t44 -27.5zM616 363q-13 11 -27 17t-35 6q-30 0 -55.5 -17t-44 -44t-28.5 -60.5t-10 -65.5q0 -33 13.5 -54t46.5 -21 q14 0 30 8.5t31 22.5t29 32t25 38z" />
<glyph unicode="A" horiz-adv-x="605" d="M405 155h-215l-53 -155h-137l252 705h101l252 -705h-144zM225 265h150l-52 156l-21 110h-5l-21 -111z" />
<glyph unicode="B" horiz-adv-x="591" d="M531 537q0 -26 -6.5 -52t-21.5 -47.5t-39 -38t-58 -24.5v-6q30 -5 57 -17t47 -33t31.5 -51t11.5 -71q0 -54 -23 -93.5t-61.5 -64.5t-87.5 -37t-101 -12h-43.5t-57 1.5t-62 4.5t-57.5 9v690q19 3 43.5 6t52.5 5t57.5 3t58.5 1q49 0 95.5 -7.5t83 -26.5t58.5 -53t22 -86z M281 103q25 0 48.5 6t41.5 18.5t29 31.5t11 45q0 33 -13 52t-34 29.5t-47 13.5t-52 3h-73v-193q5 -2 16 -3t23.5 -1.5t26 -1t23.5 -0.5zM236 406q14 0 32.5 1t30.5 3q38 12 65.5 36t27.5 63q0 26 -10 43t-26.5 27t-37.5 14t-44 4q-26 0 -48 -1t-34 -3v-187h44z" />
<glyph unicode="C" horiz-adv-x="559" d="M534 29q-32 -23 -81.5 -33t-101.5 -10q-63 0 -119.5 19.5t-99.5 63t-68.5 113t-25.5 168.5q0 103 28.5 172.5t74 112t101.5 61t112 18.5q60 0 101.5 -8t68.5 -19l-27 -116q-23 11 -54.5 16t-76.5 5q-83 0 -133.5 -59t-50.5 -183q0 -54 12 -98.5t36.5 -76t61 -49 t84.5 -17.5q45 0 76 9t54 23z" />
<glyph unicode="D" horiz-adv-x="647" d="M60 700q21 3 47.5 5t54.5 3t54.5 1.5t47.5 0.5q93 0 159 -26t107 -73t60 -112t19 -143q0 -71 -18 -137t-60 -117t-110.5 -82t-169.5 -31q-16 0 -42.5 1t-55 2.5t-54.5 3t-39 3.5v701zM275 588q-22 0 -44.5 -1t-33.5 -3v-469q4 -1 13.5 -1.5t20.5 -1t21 -1t15 -0.5 q58 0 96.5 20.5t61 54.5t31.5 78.5t9 91.5q0 41 -8 82.5t-29.5 74.5t-58.5 54t-94 21z" />
<glyph unicode="E" horiz-adv-x="522" d="M60 700h415v-122h-278v-163h253v-122h-253v-171h283v-122h-420v700z" />
<glyph unicode="F" horiz-adv-x="508" d="M60 700h415v-122h-278v-173h256v-122h-256v-283h-137v700z" />
<glyph unicode="G" horiz-adv-x="609" d="M307 365h261v-312q-42 -35 -100.5 -51t-115.5 -16q-67 0 -124.5 21t-99.5 65.5t-66 113.5t-24 164q0 99 28.5 168.5t75 113t104.5 63t118 19.5t105.5 -9t72.5 -19l-28 -115q-25 10 -56 15.5t-79 5.5q-43 0 -79 -13t-62.5 -42.5t-41 -75.5t-14.5 -112q0 -63 14 -108.5 t39 -75t58.5 -43.5t71.5 -14q26 0 51 6.5t42 19.5v132l-151 16v83z" />
<glyph unicode="H" horiz-adv-x="651" d="M453 293h-256v-293h-137v700h137v-285h256v285h137v-700h-137v293z" />
<glyph unicode="I" horiz-adv-x="285" d="M74 700h137v-700h-137v700z" />
<glyph unicode="J" horiz-adv-x="334" d="M131 700h137v-512q0 -40 -9 -76t-29.5 -63.5t-52.5 -44t-78 -16.5q-29 0 -63 6t-59 17l30 112q26 -13 59 -13q42 0 53.5 31t11.5 82v477z" />
<glyph unicode="K" horiz-adv-x="620" d="M233 299h-36v-299h-137v700h137v-310l32 14l193 296h156l-204 -294l-54 -38l56 -39l233 -329h-169z" />
<glyph unicode="L" horiz-adv-x="514" d="M503 0h-443v700h137v-578h306v-122z" />
<glyph unicode="M" horiz-adv-x="800" d="M603 363l15 139h-6l-43 -112l-149 -261h-44l-157 262l-44 111h-5l20 -138v-364h-130v700h125l187 -320l33 -80h4l30 82l177 318h124v-700h-137v363z" />
<glyph unicode="N" horiz-adv-x="657" d="M234 365l-55 110h-5l16 -110v-365h-130v705h100l265 -373l53 -107h5l-16 107v368h130v-705h-100z" />
<glyph unicode="O" horiz-adv-x="670" d="M38 350q0 175 77 269.5t220 94.5q75 0 131 -26t93 -74t55 -115t18 -149q0 -175 -77.5 -269.5t-219.5 -94.5q-76 0 -132 26t-92.5 74t-54.5 115t-18 149zM182 350q0 -53 9 -97.5t27.5 -76.5t47.5 -50t69 -18q73 0 113 57t40 185q0 51 -8.5 95t-26.5 77t-47 51.5t-71 18.5 q-73 0 -113 -58.5t-40 -183.5z" />
<glyph unicode="P" horiz-adv-x="572" d="M60 693q42 8 92.5 12.5t100.5 4.5q52 0 104.5 -8.5t94.5 -34t68.5 -71t26.5 -118.5q0 -66 -23 -111.5t-61 -74.5t-86.5 -42t-100.5 -13h-16t-23 0.5t-23.5 1.5t-16.5 2v-241h-137v693zM264 592q-20 0 -38 -1.5t-29 -3.5v-227q4 -1 12 -2t17 -1.5t17.5 -0.5h12.5 q27 0 53.5 5t47.5 18.5t33.5 37.5t12.5 63q0 33 -12 54.5t-31.5 34.5t-44.5 18t-51 5z" />
<glyph unicode="Q" horiz-adv-x="670" d="M702 -202q-48 -13 -97 -13q-51 0 -99 10.5t-93 22.5t-87 22.5t-79 10.5q-24 0 -46 -6v118q28 6 58 6q42 0 83.5 -10t84.5 -21.5t88 -21.5t95 -10q22 0 45 2.5t47 8.5v-119zM38 350q0 175 77 269.5t220 94.5q75 0 131 -26t93 -74t55 -115t18 -149q0 -175 -77.5 -269.5 t-219.5 -94.5q-76 0 -132 26t-92.5 74t-54.5 115t-18 149zM182 350q0 -53 9 -97.5t27.5 -76.5t47.5 -50t69 -18q73 0 113 57t40 185q0 51 -8.5 95t-26.5 77t-47 51.5t-71 18.5q-73 0 -113 -58.5t-40 -183.5z" />
<glyph unicode="R" horiz-adv-x="602" d="M60 693q23 4 49.5 7.5t53 5.5t51.5 3t46 1q49 0 96.5 -9t85 -31t60 -60.5t22.5 -96.5q0 -86 -40 -140t-107 -75l49 -31l160 -267h-158l-159 274l-72 13v-287h-137v693zM270 588q-21 0 -41.5 -1t-31.5 -4v-203h58q57 0 91 26t34 86q0 45 -28 70.5t-82 25.5z" />
<glyph unicode="S" horiz-adv-x="530" d="M362 188q0 32 -23.5 52t-59 36.5t-77 34t-77 43t-59 63.5t-23.5 97q0 51 17 88.5t48.5 62.5t74.5 37t96 12q61 0 115 -10.5t89 -30.5l-43 -115q-22 14 -66 25.5t-95 11.5q-48 0 -73.5 -19t-25.5 -51q0 -30 23.5 -50t59 -37t77 -35t77 -43.5t59 -63t23.5 -93.5 t-18.5 -96.5t-52 -67.5t-81 -40t-104.5 -13q-75 0 -132 14t-84 28l44 117q11 -6 28.5 -13t39.5 -13t46.5 -10t50.5 -4q61 0 93.5 20.5t32.5 62.5z" />
<glyph unicode="T" horiz-adv-x="568" d="M557 578h-204v-578h-137v578h-205v122h546v-122z" />
<glyph unicode="U" horiz-adv-x="627" d="M440 700h130v-452q0 -68 -18 -117t-50 -81t-78 -47t-101 -15q-266 0 -266 243v469h137v-442q0 -41 7.5 -69.5t23.5 -46t40 -25t56 -7.5q63 0 91 35t28 113v442z" />
<glyph unicode="V" horiz-adv-x="602" d="M290 289l18 -119h5l20 120l134 410h144l-260 -705h-98l-262 705h159z" />
<glyph unicode="W" horiz-adv-x="862" d="M242 309l13 -124h4l14 126l122 389h90l120 -391l14 -124h4l15 126l85 389h139l-193 -705h-92l-125 389l-17 107h-5l-17 -108l-124 -388h-97l-192 705h149z" />
<glyph unicode="X" horiz-adv-x="633" d="M225 356l-195 344h165l108 -202l24 -71l23 71l113 202h149l-202 -337l212 -363h-163l-123 216l-27 74l-26 -74l-124 -216h-149z" />
<glyph unicode="Y" horiz-adv-x="592" d="M228 260l-230 440h163l128 -263l14 -74h5l15 76l124 261h147l-229 -439v-261h-137v260z" />
<glyph unicode="Z" horiz-adv-x="539" d="M27 122l296 414l52 42h-348v122h485v-122l-298 -418l-51 -38h349v-122h-485v122z" />
<glyph unicode="[" horiz-adv-x="324" d="M60 700h235v-110h-111v-710h111v-110h-235v930z" />
<glyph unicode="\" horiz-adv-x="424" d="M438 -95l-99 -45l-363 808l102 43z" />
<glyph unicode="]" horiz-adv-x="324" d="M264 -230h-235v110h111v710h-111v110h235v-930z" />
<glyph unicode="^" horiz-adv-x="500" d="M216 705h69l185 -292h-131l-71 122l-21 70l-25 -71l-78 -121h-124z" />
<glyph unicode="_" horiz-adv-x="444" d="M0 -117h444v-107h-444v107z" />
<glyph unicode="`" horiz-adv-x="316" d="M256 566h-72l-124 124v30h136z" />
<glyph unicode="a" horiz-adv-x="496" d="M54 471q40 18 95 28.5t115 10.5q52 0 87 -12.5t55.5 -35.5t29 -55t8.5 -72q0 -44 -3 -88.5t-3.5 -87.5t2.5 -83.5t15 -76.5h-106l-21 69h-5q-20 -31 -55.5 -53.5t-91.5 -22.5q-35 0 -63 10.5t-48 30t-31 46t-11 59.5q0 46 20.5 77.5t59 51t92 27t119.5 4.5q7 56 -8 80.5 t-67 24.5q-39 0 -82.5 -8t-71.5 -21zM219 99q39 0 62 17.5t34 37.5v65q-31 3 -59.5 1t-50.5 -9t-35 -20t-13 -33q0 -28 16.5 -43.5t45.5 -15.5z" />
<glyph unicode="b" horiz-adv-x="536" d="M57 700h130v-240h4q21 24 54 38t73 14q90 0 137.5 -61.5t47.5 -187.5q0 -135 -66.5 -205t-182.5 -70q-64 0 -117 10.5t-80 23.5v678zM280 402q-36 0 -58.5 -18.5t-34.5 -53.5v-218q16 -8 34.5 -11t39.5 -3q53 0 80.5 38.5t27.5 122.5q0 143 -89 143z" />
<glyph unicode="c" horiz-adv-x="433" d="M411 31q-30 -22 -72.5 -33.5t-87.5 -11.5q-60 0 -101.5 19t-67.5 53.5t-37.5 83.5t-11.5 108q0 127 57 195.5t166 68.5q55 0 88.5 -9t60.5 -23l-31 -106q-23 11 -45.5 17t-51.5 6q-54 0 -82 -35.5t-28 -113.5q0 -32 7 -59t21 -47t36.5 -31.5t52.5 -11.5q33 0 56 8.5 t41 20.5z" />
<glyph unicode="d" horiz-adv-x="539" d="M482 176q0 -42 1 -84t9 -93h-93l-18 65h-4q-20 -35 -57.5 -56.5t-88.5 -21.5q-94 0 -146 62t-52 194q0 128 58 199t170 71q31 0 51 -3.5t40 -11.5v203h130v-524zM261 96q38 0 60 18.5t31 53.5v212q-14 11 -31 16.5t-44 5.5q-55 0 -82.5 -37t-27.5 -127q0 -64 22.5 -103 t71.5 -39z" />
<glyph unicode="e" horiz-adv-x="508" d="M457 43q-30 -24 -81.5 -40.5t-109.5 -16.5q-121 0 -177 70.5t-56 193.5q0 132 63 198t177 66q38 0 74 -10t64 -33t45 -62t17 -97q0 -21 -2.5 -45t-7.5 -50h-300q3 -63 32.5 -95t95.5 -32q41 0 73.5 12.5t49.5 25.5zM271 410q-51 0 -75.5 -30.5t-29.5 -81.5h186 q4 54 -16.5 83t-64.5 29z" />
<glyph unicode="f" horiz-adv-x="321" d="M11 500h69v28q0 95 40 137.5t116 42.5q80 0 133 -19l-25 -104q-23 8 -40.5 10.5t-36.5 2.5q-20 0 -31.5 -6t-17 -18.5t-7 -31t-1.5 -42.5h110v-110h-110v-390h-130v390h-69v110z" />
<glyph unicode="g" horiz-adv-x="536" d="M480 0q0 -109 -59 -160.5t-165 -51.5q-72 0 -113.5 10t-62.5 21l27 103q23 -9 53.5 -18t75.5 -9q68 0 92.5 29.5t24.5 82.5v32h-4q-35 -47 -124 -47q-97 0 -144.5 60t-47.5 188q0 134 64 203t186 69q64 0 114.5 -9t82.5 -21v-482zM260 96q38 0 58.5 17t31.5 51v225 q-31 13 -77 13q-50 0 -78 -37.5t-28 -119.5q0 -73 24 -111t69 -38z" />
<glyph unicode="h" horiz-adv-x="545" d="M363 0v284q0 61 -17 88t-62 27q-33 0 -60.5 -22.5t-36.5 -57.5v-319h-130v700h130v-256h4q24 32 59 51t89 19q38 0 67 -10t48.5 -33t29 -62.5t9.5 -97.5v-311h-130z" />
<glyph unicode="i" horiz-adv-x="269" d="M68 500h130v-500h-130v500zM49 641q0 29 21.5 49.5t59.5 20.5t61.5 -20.5t23.5 -49.5t-23.5 -48.5t-61.5 -19.5t-59.5 19.5t-21.5 48.5z" />
<glyph unicode="j" horiz-adv-x="268" d="M69 500h130v-521q0 -91 -36 -139t-115 -48q-30 0 -64 7v109q4 0 7 -0.5t6 -0.5q45 0 58.5 29t13.5 80v484zM51 641q0 29 21.5 49.5t59.5 20.5t61.5 -20.5t23.5 -49.5t-23.5 -48.5t-61.5 -19.5t-59.5 19.5t-21.5 48.5z" />
<glyph unicode="k" horiz-adv-x="491" d="M222 207h-35v-207h-130v700h130v-413l30 14l114 199h143l-120 -190l-51 -38l55 -39l135 -233h-149z" />
<glyph unicode="l" horiz-adv-x="294" d="M191 168q0 -35 9 -51t29 -16q12 0 23.5 2t28.5 9l14 -102q-16 -8 -49 -16t-68 -8q-57 0 -87 26.5t-30 87.5v600h130v-532z" />
<glyph unicode="m" horiz-adv-x="805" d="M341 0v272q0 69 -13 98t-54 29q-34 0 -55 -18.5t-32 -47.5v-333h-130v500h101l15 -66h4q23 32 58.5 56t91.5 24q48 0 78.5 -19.5t47.5 -65.5q23 39 59 62t87 23q42 0 71.5 -10t48 -34.5t27.5 -65.5t9 -104v-300h-130v281q0 59 -12.5 88.5t-55.5 29.5q-35 0 -55.5 -19 t-30.5 -52v-328h-130z" />
<glyph unicode="n" horiz-adv-x="545" d="M363 0v284q0 61 -17.5 88t-59.5 27q-37 0 -62.5 -21.5t-36.5 -53.5v-324h-130v500h103l15 -66h4q23 32 61 56t98 24q37 0 66 -10t49 -33t30 -62.5t10 -97.5v-311h-130z" />
<glyph unicode="o" horiz-adv-x="537" d="M33 250q0 127 62 195.5t174 68.5q60 0 104 -19t73 -53.5t43.5 -83.5t14.5 -108q0 -127 -61.5 -195.5t-173.5 -68.5q-60 0 -104 19t-73.5 53.5t-44 83.5t-14.5 108zM167 250q0 -33 6 -61t18 -49t31.5 -32.5t46.5 -11.5q51 0 76 37t25 117q0 69 -23 111.5t-78 42.5 q-48 0 -75 -36t-27 -118z" />
<glyph unicode="p" horiz-adv-x="540" d="M57 500h95l15 -60h4q26 38 61.5 56t86.5 18q94 0 141 -59.5t47 -191.5q0 -64 -15 -115.5t-44.5 -87.5t-72 -55t-97.5 -19q-31 0 -51 4.5t-40 14.5v-205h-130v700zM280 404q-38 0 -59.5 -19t-33.5 -57v-208q14 -11 30.5 -17.5t43.5 -6.5q56 0 84 39.5t28 130.5 q0 66 -22 102t-71 36z" />
<glyph unicode="q" horiz-adv-x="536" d="M480 -200h-130v243h-4q-17 -26 -46 -41.5t-75 -15.5q-93 0 -142.5 63t-49.5 191q0 134 67.5 203t193.5 69q27 0 54 -2.5t51.5 -7t45.5 -10t35 -10.5v-682zM260 96q38 0 58.5 17t31.5 51v225q-15 8 -34 10.5t-43 2.5q-53 0 -79.5 -40t-26.5 -117q0 -73 24 -111t69 -38z " />
<glyph unicode="r" horiz-adv-x="351" d="M333 378q-31 11 -56 11q-35 0 -58.5 -18.5t-31.5 -47.5v-323h-130v500h101l15 -66h4q17 37 46 57t68 20q26 0 59 -11z" />
<glyph unicode="s" horiz-adv-x="422" d="M264 138q0 20 -17 32t-42 22t-55 20.5t-55 29t-42 47t-17 73.5q0 74 44 113t127 39q57 0 103 -12t72 -27l-29 -94q-23 9 -58 19t-71 10q-58 0 -58 -45q0 -18 17 -29t42 -20.5t55 -20.5t55 -28.5t42 -45.5t17 -72q0 -76 -48.5 -119.5t-145.5 -43.5q-53 0 -99.5 13.5 t-75.5 31.5l36 97q23 -13 61 -25.5t78 -12.5q29 0 46.5 11t17.5 37z" />
<glyph unicode="t" horiz-adv-x="349" d="M5 500h69v94l130 37v-131h122v-110h-122v-192q0 -52 10.5 -74.5t39.5 -22.5q20 0 34.5 4t32.5 12l23 -100q-27 -13 -63 -22t-73 -9q-69 0 -101.5 35.5t-32.5 116.5v252h-69v110z" />
<glyph unicode="u" horiz-adv-x="538" d="M182 500v-284q0 -61 14.5 -88t56.5 -27q37 0 61.5 22t36.5 54v323h130v-348q0 -41 4 -80.5t12 -71.5h-98l-23 74h-4q-23 -38 -64 -63t-97 -25q-38 0 -68 10t-50 33t-30.5 62t-10.5 98v311h130z" />
<glyph unicode="v" horiz-adv-x="477" d="M230 238l17 -77h5l14 79l85 260h140l-209 -505h-79l-217 505h151z" />
<glyph unicode="w" horiz-adv-x="721" d="M419 500l91 -256l18 -83h4l14 84l64 255h119l-154 -505h-96l-101 280l-13 63h-5l-12 -64l-96 -279h-99l-161 505h141l73 -251l12 -89h5l17 90l83 250h96z" />
<glyph unicode="x" horiz-adv-x="525" d="M170 256l-150 244h155l65 -107l28 -70l30 70l68 107h141l-151 -240l161 -260h-151l-77 120l-30 74l-32 -74l-77 -120h-142z" />
<glyph unicode="y" horiz-adv-x="478" d="M239 219l18 -78h6l13 79l76 280h134l-152 -451q-19 -56 -36.5 -102.5t-38.5 -80.5t-46.5 -52.5t-60.5 -18.5q-52 0 -83 17l24 104q15 -6 30 -6q23 0 44.5 19.5t32.5 70.5l-209 500h156z" />
<glyph unicode="z" horiz-adv-x="458" d="M31 110l197 237l51 43h-248v110h392v-110l-195 -241l-50 -39h245v-110h-392v110z" />
<glyph unicode="{" horiz-adv-x="371" d="M123 96q0 51 -21 70t-59 19v100q38 0 59 20.5t21 64.5v209q0 54 25.5 88t81.5 34h120v-110h-50q-27 0 -39.5 -14t-12.5 -46v-195q0 -44 -21 -66.5t-49 -27.5v-10q27 -4 48.5 -30t21.5 -68v-194q0 -32 12 -46t41 -14h49v-110h-120q-52 0 -79.5 31.5t-27.5 89.5v205z" />
<glyph unicode="|" horiz-adv-x="227" d="M60 700h107v-830h-107v830z" />
<glyph unicode="}" horiz-adv-x="371" d="M261 375q0 -51 21 -70t59 -19v-100q-38 0 -59 -20.5t-21 -64.5v-209q0 -54 -26.5 -88t-82.5 -34h-117v110h50q27 0 39.5 13.5t12.5 46.5v195q0 44 21 66.5t49 27.5v10q-27 4 -48.5 30t-21.5 68v194q0 31 -12 45.5t-41 14.5h-49v110h119q53 0 80 -31.5t27 -89.5v-205z" />
<glyph unicode="~" horiz-adv-x="527" d="M28 378q47 38 84.5 52.5t69.5 14.5q29 0 54 -8.5t48 -18t45.5 -18t45.5 -8.5q18 0 37 6t40 23l47 -103q-36 -27 -66 -38t-56 -11q-28 0 -52 9t-46.5 20t-45.5 20t-49 9q-24 0 -51.5 -10.5t-60.5 -38.5z" />
<glyph unicode="&#xa1;" horiz-adv-x="293" d="M191 -200h-134v329l26 162h82l26 -162v-329zM44 435q0 35 22 55.5t58 20.5q38 0 60 -20.5t22 -55.5t-22 -56t-60 -21q-36 0 -58 21t-22 56z" />
<glyph unicode="&#xa2;" d="M489 31q-17 -13 -42.5 -22.5t-54.5 -14.5v-94h-121v89q-51 7 -86.5 28.5t-58 55t-32.5 78.5t-10 99q0 112 48 178.5t139 81.5v90h121v-90q28 -4 50 -10.5t40 -15.5l-30 -106q-15 7 -32 11t-35 6v-291q23 3 41.5 10t32.5 15zM212 250q0 -51 19 -89.5t64 -52.5v286 q-42 -11 -62.5 -45.5t-20.5 -98.5z" />
<glyph unicode="&#xa3;" d="M51 394h68q-13 24 -22.5 54t-9.5 72q0 49 16.5 85.5t46 60.5t70.5 36t90 12q61 0 111 -11.5t86 -28.5l-42 -116q-20 11 -55 22.5t-84 11.5q-48 0 -75 -22.5t-27 -67.5q0 -34 12.5 -58.5t27.5 -49.5h141v-107h-98q3 -17 3 -34q0 -30 -10 -63t-31 -54l-43 -31v-5l67 15h230 v-115h-472v115h2q31 1 54.5 11t39 26.5t23.5 38.5t8 46q0 27 -6 50h-121v107z" />
<glyph unicode="&#xa4;" d="M81 622l78 -77l19 -37q20 15 47.5 22.5t57.5 7.5q29 0 57.5 -7.5t47.5 -21.5l20 36l78 77l77 -80l-77 -78l-37 -16q14 -21 20 -47.5t6 -55.5q0 -30 -6.5 -56.5t-19.5 -44.5l37 -16l77 -78l-77 -80l-78 77l-18 37q-19 -14 -48.5 -22t-58.5 -8q-30 0 -57.5 7.5t-47.5 21.5 l-19 -36l-78 -77l-76 80l77 78l36 17q-12 21 -19 45.5t-7 54.5q0 29 7.5 54t20.5 48l-38 17l-77 78zM201 346q0 -38 23 -62t60 -24t59.5 24t22.5 62q0 36 -22.5 61t-59.5 25t-60 -25t-23 -61z" />
<glyph unicode="&#xa5;" d="M85 337h90l-189 363h163l128 -263l14 -74h5l15 76l124 261h147l-190 -363h91v-80h-130v-58h130v-80h-130v-119h-137v119h-131v80h131v58h-131v80z" />
<glyph unicode="&#xa6;" horiz-adv-x="227" d="M60 213h107v-343h-107v343zM167 357h-107v343h107v-343z" />
<glyph unicode="&#xa7;" horiz-adv-x="530" d="M49 353q0 31 15 60.5t41 52.5l41 14q-26 16 -43 40.5t-17 65.5q0 56 43.5 92t131.5 36q59 0 110 -10t78 -23l-32 -105q-23 11 -61 19.5t-73 8.5q-37 0 -52 -11t-15 -28q0 -18 19.5 -28t49 -18t64 -18t64 -28t49 -48t19.5 -78q0 -31 -14.5 -60t-40.5 -52l-45 -14 q27 -16 45 -41t18 -66q0 -63 -49 -95.5t-130 -32.5q-68 0 -113.5 13.5t-74.5 29.5l34 100q23 -11 56 -22t77 -11q37 0 53.5 9.5t16.5 30.5q0 19 -19.5 29.5t-49 19t-64 18.5t-64 27.5t-49 46.5t-19.5 76zM351 345q0 18 -8.5 30t-24.5 21.5t-39 17.5t-52 17 q-20 -12 -34 -31.5t-14 -44.5q0 -35 32 -52t88 -33q22 12 37 32t15 43z" />
<glyph unicode="&#xa8;" horiz-adv-x="479" d="M60 651q0 32 19.5 51t51.5 19t50.5 -19t18.5 -51q0 -30 -18.5 -49t-50.5 -19t-51.5 19t-19.5 49zM279 651q0 32 18.5 51t50.5 19t51.5 -19t19.5 -51q0 -30 -19.5 -49t-51.5 -19t-50.5 19t-18.5 49z" />
<glyph unicode="&#xa9;" horiz-adv-x="833" d="M55 290q0 83 28 149.5t76.5 113.5t114.5 72.5t142 25.5t141.5 -25.5t114.5 -72.5t77 -113.5t28 -149.5t-28 -149.5t-77 -113.5t-114.5 -72.5t-141.5 -25.5q-83 0 -150 25.5t-114 72.5t-72 113.5t-25 149.5zM153 290q0 -62 19.5 -112t55 -84.5t83.5 -53t105 -18.5 t105.5 18.5t84 53t55 84.5t19.5 112t-19.5 112t-55 84.5t-84 53t-105.5 18.5t-105 -18.5t-83.5 -53t-55 -84.5t-19.5 -112zM541 131q-22 -14 -55.5 -22.5t-71.5 -8.5q-81 0 -123.5 51t-42.5 139q0 91 45.5 140.5t120.5 49.5q37 0 65.5 -8.5t54.5 -23.5l-32 -87 q-18 9 -32.5 12t-28.5 3q-29 0 -46 -19t-17 -67q0 -86 70 -86q19 0 34 3.5t30 11.5z" />
<glyph unicode="&#xaa;" horiz-adv-x="420" d="M61 674q26 14 73.5 24t106.5 10q76 0 104 -27.5t28 -84.5q0 -60 -3 -116t8 -100h-101l-13 46h-4q-13 -17 -37 -33.5t-67 -16.5q-52 0 -83 27.5t-31 71.5q0 33 17.5 55t47 35t69 17.5t83.5 2.5q2 26 -7 37.5t-44 11.5q-40 0 -72.5 -8t-52.5 -16zM194 454q32 0 45 11.5 t20 23.5v35q-43 5 -72.5 -2t-29.5 -34q0 -16 10.5 -25t26.5 -9z" />
<glyph unicode="&#xab;" horiz-adv-x="488" d="M223 261l154 216l71 -56l-81 -122l-46 -39l46 -35l87 -121l-71 -56zM29 259l160 230l79 -62l-87 -126l-48 -41l48 -36l93 -124l-79 -62z" />
<glyph unicode="&#xac;" horiz-adv-x="527" d="M45 412h442v-226h-120v114h-322v112z" />
<glyph unicode="&#xad;" horiz-adv-x="360" d="M54 345h251v-115h-251v115z" />
<glyph unicode="&#xae;" horiz-adv-x="690" d="M62 451q0 67 22.5 119.5t61.5 88.5t90.5 55t108.5 19q59 0 110.5 -19t89.5 -55t60 -88.5t22 -119.5q0 -68 -22.5 -120.5t-61 -88.5t-90 -54.5t-108.5 -18.5q-59 0 -110.5 18.5t-90 54.5t-60.5 88.5t-22 120.5zM156 451q0 -48 15.5 -84.5t41.5 -60.5t60 -36t72 -12 q40 0 74.5 11.5t59.5 35.5t39.5 60.5t14.5 85.5q0 48 -15 84t-40.5 60t-60 36t-72.5 12q-42 0 -77 -13t-60 -38t-38.5 -60.5t-13.5 -80.5zM242 581q16 5 45 7.5t55 2.5q42 0 72 -17.5t30 -60.5q0 -32 -20.5 -49t-50.5 -19l28 -14l65 -109h-61l-63 104l-48 15v-119h-52v259z M331 546q-11 0 -21 -0.5t-16 -3.5v-71h34q29 0 45 9t16 31q0 35 -58 35z" />
<glyph unicode="&#xaf;" horiz-adv-x="443" d="M60 658h323v-92h-323v92z" />
<glyph unicode="&#xb0;" horiz-adv-x="437" d="M60 548q0 37 13 67.5t35.5 52.5t52 34t63.5 12t64.5 -11t53.5 -32.5t36 -52.5t13 -70t-13 -69.5t-36 -51.5t-53.5 -32t-64.5 -11t-63.5 11t-52 32t-35.5 51.5t-13 69.5zM160 548q0 -32 19 -50.5t46 -18.5t47 18.5t20 50.5t-20 51.5t-47 19.5t-46 -19.5t-19 -51.5z" />
<glyph unicode="&#xb1;" horiz-adv-x="527" d="M43 518h162v164h117v-164h163v-112h-163v-107h-117v107h-162v112zM43 253h442v-112h-442v112z" />
<glyph unicode="&#xb2;" horiz-adv-x="412" d="M348 680q0 -59 -30 -101t-72 -80l-47 -25v-4l59 11h106v-101h-313v71q26 18 58 42t59.5 51.5t46 56.5t18.5 55q0 49 -56 49q-27 0 -51 -8.5t-42 -19.5l-34 90q35 21 74.5 30.5t75.5 9.5q71 0 109.5 -32.5t38.5 -94.5z" />
<glyph unicode="&#xb3;" horiz-adv-x="412" d="M169 468q44 0 62.5 14t19.5 37q-1 23 -20 36t-70 13h-42v38l73 80l43 25l-58 -6h-115v95h283v-62l-87 -92l-34 -18v-5l30 3q52 -2 81.5 -31.5t30.5 -83.5q-1 -36 -15.5 -62t-39 -43t-57.5 -25t-68 -8q-39 0 -72.5 6.5t-57.5 17.5l23 90q41 -19 90 -19z" />
<glyph unicode="&#xb4;" horiz-adv-x="305" d="M113 720h132v-30l-111 -124h-74z" />
<glyph unicode="&#xb6;" horiz-adv-x="529" d="M362 700h107v-830h-107v830zM178 294q-33 0 -61 16.5t-48.5 45t-31.5 65t-11 77.5q0 40 13 76.5t37 64.5t58 44.5t76 16.5h74v-830h-106v424z" />
<glyph unicode="&#xb7;" horiz-adv-x="253" d="M45 316q0 35 22 55.5t58 20.5q38 0 60 -20.5t22 -55.5t-22 -56t-60 -21q-36 0 -58 21t-22 56z" />
<glyph unicode="&#xb8;" horiz-adv-x="332" d="M208 0l-24 -43q41 -4 64.5 -21.5t23.5 -53.5q0 -23 -11.5 -40t-31.5 -28.5t-47 -17.5t-58 -6t-64 6l9 48q7 -1 13 -1h11q38 0 49 9t11 21q0 28 -86 32l57 95h84z" />
<glyph unicode="&#xb9;" horiz-adv-x="412" d="M72 480h97v164l10 46l-30 -32l-59 -39l-49 77l158 111h85v-327h88v-100h-300v100z" />
<glyph unicode="&#xba;" horiz-adv-x="419" d="M34 542q0 45 13 77t36 53t55.5 30.5t70.5 9.5t70 -9t55.5 -29t36.5 -52.5t14 -79.5q-1 -47 -14 -79.5t-36.5 -52.5t-55.5 -29t-70 -9t-70.5 9t-55.5 29t-36 52.5t-13 79.5zM150 542q0 -86 59 -86q31 0 44.5 18.5t14.5 67.5q-1 48 -14.5 67t-44.5 19t-45 -19t-14 -67z" />
<glyph unicode="&#xbb;" horiz-adv-x="488" d="M264 266l-153 -216l-72 56l82 122l45 39l-45 35l-87 121l70 56zM459 268l-160 -230l-79 62l87 126l48 41l-48 36l-93 124l79 62z" />
<glyph unicode="&#xbc;" horiz-adv-x="880" d="M609 715l85 -50l-430 -679l-86 53zM833 78h-76v-78h-101v78h-207v67l218 283h90v-261h76v-89zM656 253l6 53h-5l-22 -49l-48 -66l-36 -32l52 8h53v86zM165 544l11 46l-31 -32l-59 -39l-49 77l158 111h85v-427h-115v264z" />
<glyph unicode="&#xbd;" horiz-adv-x="903" d="M609 715l85 -50l-430 -679l-86 53zM841 300q0 -59 -30 -101t-72 -80l-47 -25v-4l59 11h106v-101h-313v71q26 18 58 42t59.5 51.5t46 56.5t18.5 55q0 49 -56 49q-27 0 -51 -8.5t-42 -19.5l-34 90q35 21 74.5 30.5t75.5 9.5q71 0 109.5 -32.5t38.5 -94.5zM165 544l11 46 l-31 -32l-59 -39l-49 77l158 111h85v-427h-115v264z" />
<glyph unicode="&#xbe;" horiz-adv-x="905" d="M634 715l85 -50l-430 -679l-86 53zM858 78h-76v-78h-101v78h-207v67l218 283h90v-261h76v-89zM681 253l6 53h-5l-22 -49l-48 -66l-36 -32l52 8h53v86zM161 368q44 0 62.5 14t19.5 37q-1 23 -20 36t-70 13h-42v38l73 80l43 25l-58 -6h-115v95h283v-62l-87 -92l-34 -18v-5 l30 3q52 -2 81.5 -31.5t30.5 -83.5q-1 -36 -15.5 -62t-39 -43t-57.5 -25t-68 -8q-39 0 -72.5 6.5t-57.5 17.5l23 90q41 -19 90 -19z" />
<glyph unicode="&#xbf;" horiz-adv-x="454" d="M317 293q5 -52 -4.5 -88.5t-27.5 -63t-40 -45.5t-41.5 -37t-33 -37.5t-13.5 -46.5q0 -35 20 -56.5t70 -21.5q16 0 34 3.5t36 10t34.5 15t29.5 18.5l49 -96q-38 -26 -87 -43t-119 -17q-94 0 -147.5 45t-53.5 123q0 51 13.5 84t34 56.5t44 41.5t44 38.5t34 47.5t13.5 69 h111zM178 435q0 35 22 55.5t58 20.5q38 0 60 -20.5t22 -55.5t-22 -56t-60 -21q-36 0 -58 21t-22 56z" />
<glyph unicode="&#xc0;" horiz-adv-x="605" d="M405 155h-215l-53 -155h-137l252 705h101l252 -705h-144zM225 265h150l-52 156l-21 110h-5l-21 -111zM399 752h-105l-158 88v30h159z" />
<glyph unicode="&#xc1;" horiz-adv-x="605" d="M405 155h-215l-53 -155h-137l252 705h101l252 -705h-144zM225 265h150l-52 156l-21 110h-5l-21 -111zM309 870h159v-30l-160 -88h-103z" />
<glyph unicode="&#xc2;" horiz-adv-x="605" d="M405 155h-215l-53 -155h-137l252 705h101l252 -705h-144zM225 265h150l-52 156l-21 110h-5l-21 -111zM257 870h96l127 -93v-39h-99l-57 41l-20 34l-21 -33l-62 -42h-97v40z" />
<glyph unicode="&#xc3;" horiz-adv-x="605" d="M405 155h-215l-53 -155h-137l252 705h101l252 -705h-144zM225 265h150l-52 156l-21 110h-5l-21 -111zM113 800q32 35 61.5 48t58.5 13q22 0 44 -5.5t42.5 -12t40.5 -12t38 -5.5q16 0 31 5t29 19l25 -67q-28 -26 -54.5 -36.5t-51.5 -10.5q-23 0 -44 5.5t-41.5 12.5 t-40.5 12.5t-39 5.5t-37.5 -7.5t-37.5 -27.5z" />
<glyph unicode="&#xc4;" horiz-adv-x="605" d="M405 155h-215l-53 -155h-137l252 705h101l252 -705h-144zM225 265h150l-52 156l-21 110h-5l-21 -111zM124 798q0 26 18 42t58 16q39 0 57 -16t18 -42t-18 -41.5t-57 -15.5q-40 0 -58 15.5t-18 41.5zM338 798q0 26 18 42t57 16q40 0 58 -16t18 -42t-18 -41.5t-58 -15.5 q-39 0 -57 15.5t-18 41.5z" />
<glyph unicode="&#xc5;" horiz-adv-x="605" d="M175 771q0 18 6 34.5t20.5 29t39 19.5t62.5 7q70 0 99 -24t29 -66q0 -29 -16 -50.5t-57 -31.5l247 -689h-144l-56 155h-215l-53 -155h-137l246 689q-39 9 -55 31t-16 51zM225 265h150l-52 156l-21 110h-5l-21 -111zM259 771q0 -31 44 -31q25 0 35 8t10 23q0 17 -10.5 25 t-34.5 8q-44 0 -44 -33z" />
<glyph unicode="&#xc6;" horiz-adv-x="862" d="M394 532l-36 -103l-84 -148h126v251h-6zM400 170h-186l-99 -170h-144l424 700h419v-122h-277v-163h252v-122h-252v-171h282v-122h-419v170z" />
<glyph unicode="&#xc7;" horiz-adv-x="559" d="M534 29q-26 -19 -65.5 -29t-83.5 -13l-16 -30q41 -4 64.5 -21.5t23.5 -53.5q0 -23 -11.5 -40t-31.5 -28.5t-47 -17.5t-58 -6t-64 6l9 48q7 -1 13 -1h11q38 0 49 9t11 21q0 28 -86 32l50 84q-55 7 -103 30.5t-84 67.5t-56.5 109t-20.5 154q0 103 28.5 172.5t74 112 t101.5 61t112 18.5q60 0 101.5 -8t68.5 -19l-27 -116q-23 11 -54.5 16t-76.5 5q-83 0 -133.5 -59t-50.5 -183q0 -54 12 -98.5t36.5 -76t61 -49t84.5 -17.5q45 0 76 9t54 23z" />
<glyph unicode="&#xc8;" horiz-adv-x="522" d="M60 700h415v-122h-278v-163h253v-122h-253v-171h283v-122h-420v700zM352 752h-105l-158 88v30h159z" />
<glyph unicode="&#xc9;" horiz-adv-x="522" d="M60 700h415v-122h-278v-163h253v-122h-253v-171h283v-122h-420v700zM293 870h159v-30l-160 -88h-103z" />
<glyph unicode="&#xca;" horiz-adv-x="522" d="M60 700h415v-122h-278v-163h253v-122h-253v-171h283v-122h-420v700zM219 870h96l127 -93v-39h-99l-57 41l-20 34l-21 -33l-62 -42h-97v40z" />
<glyph unicode="&#xcb;" horiz-adv-x="522" d="M60 700h415v-122h-278v-163h253v-122h-253v-171h283v-122h-420v700zM84 798q0 26 18 42t58 16q39 0 57 -16t18 -42t-18 -41.5t-57 -15.5q-40 0 -58 15.5t-18 41.5zM298 798q0 26 18 42t57 16q40 0 58 -16t18 -42t-18 -41.5t-58 -15.5q-39 0 -57 15.5t-18 41.5z" />
<glyph unicode="&#xcc;" horiz-adv-x="285" d="M74 700h137v-700h-137v700zM241 752h-105l-158 88v30h159z" />
<glyph unicode="&#xcd;" horiz-adv-x="285" d="M74 700h137v-700h-137v700zM153 870h159v-30l-160 -88h-103z" />
<glyph unicode="&#xce;" horiz-adv-x="285" d="M74 700h137v-700h-137v700zM97 870h96l127 -93v-39h-99l-57 41l-20 34l-21 -33l-62 -42h-97v40z" />
<glyph unicode="&#xcf;" horiz-adv-x="285" d="M74 700h137v-700h-137v700zM-38 798q0 26 18 42t58 16q39 0 57 -16t18 -42t-18 -41.5t-57 -15.5q-40 0 -58 15.5t-18 41.5zM176 798q0 26 18 42t57 16q40 0 58 -16t18 -42t-18 -41.5t-58 -15.5q-39 0 -57 15.5t-18 41.5z" />
<glyph unicode="&#xd0;" horiz-adv-x="669" d="M-6 401h88v299q21 3 47.5 5t54.5 3t54.5 1.5t47.5 0.5q93 0 159 -26t107 -73t60 -112t19 -143q0 -71 -18 -137t-60 -117t-110.5 -82t-169.5 -31q-16 0 -42.5 1t-55 2.5t-54.5 3t-39 3.5v322h-88v80zM297 588q-22 0 -44.5 -1t-33.5 -3v-183h140v-80h-140v-207 q4 -1 13.5 -1.5t20.5 -1t21 -0.5h15q58 0 96.5 20.5t61 54.5t31.5 78.5t9 91.5q0 41 -8 82.5t-29.5 74.5t-58.5 54t-94 21z" />
<glyph unicode="&#xd1;" horiz-adv-x="657" d="M234 365l-55 110h-5l16 -110v-365h-130v705h100l265 -373l53 -107h5l-16 107v368h130v-705h-100zM138 800q32 35 61.5 48t58.5 13q22 0 44 -5.5t42.5 -12t40.5 -12t38 -5.5q16 0 31 5t29 19l25 -67q-28 -26 -54.5 -36.5t-51.5 -10.5q-23 0 -44 5.5t-41.5 12.5t-40.5 12.5 t-39 5.5t-37.5 -7.5t-37.5 -27.5z" />
<glyph unicode="&#xd2;" horiz-adv-x="670" d="M38 350q0 175 77 269.5t220 94.5q75 0 131 -26t93 -74t55 -115t18 -149q0 -175 -77.5 -269.5t-219.5 -94.5q-76 0 -132 26t-92.5 74t-54.5 115t-18 149zM182 350q0 -53 9 -97.5t27.5 -76.5t47.5 -50t69 -18q73 0 113 57t40 185q0 51 -8.5 95t-26.5 77t-47 51.5t-71 18.5 q-73 0 -113 -58.5t-40 -183.5zM412 752h-105l-158 88v30h159z" />
<glyph unicode="&#xd3;" horiz-adv-x="670" d="M38 350q0 175 77 269.5t220 94.5q75 0 131 -26t93 -74t55 -115t18 -149q0 -175 -77.5 -269.5t-219.5 -94.5q-76 0 -132 26t-92.5 74t-54.5 115t-18 149zM182 350q0 -53 9 -97.5t27.5 -76.5t47.5 -50t69 -18q73 0 113 57t40 185q0 51 -8.5 95t-26.5 77t-47 51.5t-71 18.5 q-73 0 -113 -58.5t-40 -183.5zM368 870h159v-30l-160 -88h-103z" />
<glyph unicode="&#xd4;" horiz-adv-x="670" d="M38 350q0 175 77 269.5t220 94.5q75 0 131 -26t93 -74t55 -115t18 -149q0 -175 -77.5 -269.5t-219.5 -94.5q-76 0 -132 26t-92.5 74t-54.5 115t-18 149zM182 350q0 -53 9 -97.5t27.5 -76.5t47.5 -50t69 -18q73 0 113 57t40 185q0 51 -8.5 95t-26.5 77t-47 51.5t-71 18.5 q-73 0 -113 -58.5t-40 -183.5zM287 870h96l127 -93v-39h-99l-57 41l-20 34l-21 -33l-62 -42h-97v40z" />
<glyph unicode="&#xd5;" horiz-adv-x="670" d="M38 350q0 175 77 269.5t220 94.5q75 0 131 -26t93 -74t55 -115t18 -149q0 -175 -77.5 -269.5t-219.5 -94.5q-76 0 -132 26t-92.5 74t-54.5 115t-18 149zM182 350q0 -53 9 -97.5t27.5 -76.5t47.5 -50t69 -18q73 0 113 57t40 185q0 51 -8.5 95t-26.5 77t-47 51.5t-71 18.5 q-73 0 -113 -58.5t-40 -183.5zM144 800q32 35 61.5 48t58.5 13q22 0 44 -5.5t42.5 -12t40.5 -12t38 -5.5q16 0 31 5t29 19l25 -67q-28 -26 -54.5 -36.5t-51.5 -10.5q-23 0 -44 5.5t-41.5 12.5t-40.5 12.5t-39 5.5t-37.5 -7.5t-37.5 -27.5z" />
<glyph unicode="&#xd6;" horiz-adv-x="670" d="M38 350q0 175 77 269.5t220 94.5q75 0 131 -26t93 -74t55 -115t18 -149q0 -175 -77.5 -269.5t-219.5 -94.5q-76 0 -132 26t-92.5 74t-54.5 115t-18 149zM182 350q0 -53 9 -97.5t27.5 -76.5t47.5 -50t69 -18q73 0 113 57t40 185q0 51 -8.5 95t-26.5 77t-47 51.5t-71 18.5 q-73 0 -113 -58.5t-40 -183.5zM150 798q0 26 18 42t58 16q39 0 57 -16t18 -42t-18 -41.5t-57 -15.5q-40 0 -58 15.5t-18 41.5zM364 798q0 26 18 42t57 16q40 0 58 -16t18 -42t-18 -41.5t-58 -15.5q-39 0 -57 15.5t-18 41.5z" />
<glyph unicode="&#xd7;" horiz-adv-x="527" d="M134 547l131 -130l130 130l79 -81l-130 -127l130 -129l-79 -82l-130 131l-132 -132l-79 81l131 131l-129 127z" />
<glyph unicode="&#xd8;" horiz-adv-x="670" d="M111 86q-37 48 -55 114.5t-18 149.5q0 175 77 269.5t220 94.5q45 0 83 -10t69 -28l25 39l85 -50l-35 -56q35 -48 52.5 -113.5t17.5 -145.5q0 -175 -77.5 -269.5t-219.5 -94.5q-44 0 -80 8.5t-67 24.5l-21 -33l-86 53zM182 350q0 -36 4 -68t12 -59l219 342q-35 27 -82 27 q-73 0 -113 -58.5t-40 -183.5zM488 350q0 33 -3 63.5t-11 56.5l-215 -340q33 -22 76 -22q73 0 113 57t40 185z" />
<glyph unicode="&#xd9;" horiz-adv-x="627" d="M440 700h130v-452q0 -68 -18 -117t-50 -81t-78 -47t-101 -15q-266 0 -266 243v469h137v-442q0 -41 7.5 -69.5t23.5 -46t40 -25t56 -7.5q63 0 91 35t28 113v442zM395 752h-105l-158 88v30h159z" />
<glyph unicode="&#xda;" horiz-adv-x="627" d="M440 700h130v-452q0 -68 -18 -117t-50 -81t-78 -47t-101 -15q-266 0 -266 243v469h137v-442q0 -41 7.5 -69.5t23.5 -46t40 -25t56 -7.5q63 0 91 35t28 113v442zM365 870h159v-30l-160 -88h-103z" />
<glyph unicode="&#xdb;" horiz-adv-x="627" d="M440 700h130v-452q0 -68 -18 -117t-50 -81t-78 -47t-101 -15q-266 0 -266 243v469h137v-442q0 -41 7.5 -69.5t23.5 -46t40 -25t56 -7.5q63 0 91 35t28 113v442zM273 870h96l127 -93v-39h-99l-57 41l-20 34l-21 -33l-62 -42h-97v40z" />
<glyph unicode="&#xdc;" horiz-adv-x="627" d="M440 700h130v-452q0 -68 -18 -117t-50 -81t-78 -47t-101 -15q-266 0 -266 243v469h137v-442q0 -41 7.5 -69.5t23.5 -46t40 -25t56 -7.5q63 0 91 35t28 113v442zM133 798q0 26 18 42t58 16q39 0 57 -16t18 -42t-18 -41.5t-57 -15.5q-40 0 -58 15.5t-18 41.5zM347 798 q0 26 18 42t57 16q40 0 58 -16t18 -42t-18 -41.5t-58 -15.5q-39 0 -57 15.5t-18 41.5z" />
<glyph unicode="&#xdd;" horiz-adv-x="592" d="M228 260l-230 440h163l128 -263l14 -74h5l15 76l124 261h147l-229 -439v-261h-137v260zM326 870h159v-30l-160 -88h-103z" />
<glyph unicode="&#xde;" horiz-adv-x="572" d="M60 700h137v-72q14 1 28 1.5t28 0.5q52 0 104.5 -8.5t94.5 -34t68.5 -71t26.5 -118.5q0 -66 -23 -111.5t-61 -74.5t-86.5 -42t-100.5 -13h-16t-23 0.5t-23.5 1.5t-16.5 2v-161h-137v700zM264 512q-20 0 -38 -1.5t-29 -3.5v-227q4 -1 12 -2t17 -1.5t17.5 -0.5h12.5 q27 0 53.5 5t47.5 18.5t33.5 37.5t12.5 63q0 33 -12 54.5t-31.5 34.5t-44.5 18t-51 5z" />
<glyph unicode="&#xdf;" horiz-adv-x="630" d="M81 390h-69v110h69q0 58 16 97.5t44.5 64t68 35.5t86.5 11q51 0 91.5 -11.5t69 -32.5t44 -50.5t15.5 -65.5q0 -39 -17.5 -63t-39 -41t-39 -32t-17.5 -37q0 -18 14.5 -29t37 -20.5t48 -20t48 -27.5t37 -43.5t14.5 -67.5q0 -35 -11 -67.5t-34.5 -58t-59 -40.5t-83.5 -15 q-47 0 -86.5 11.5t-67.5 28.5l35 97q23 -13 46 -23t62 -10q30 0 49.5 20.5t19.5 49.5q0 21 -14.5 34t-37 23.5t-48 20.5t-48 25.5t-37 38.5t-14.5 59q0 43 17.5 67t39 40.5t39 30.5t17.5 38q0 13 -7 24.5t-19 19.5t-27 13t-30 5q-48 0 -70.5 -23.5t-22.5 -87.5v-488h-129 v390z" />
<glyph unicode="&#xe0;" horiz-adv-x="496" d="M54 471q40 18 95 28.5t115 10.5q52 0 87 -12.5t55.5 -35.5t29 -55t8.5 -72q0 -44 -3 -88.5t-3.5 -87.5t2.5 -83.5t15 -76.5h-106l-21 69h-5q-20 -31 -55.5 -53.5t-91.5 -22.5q-35 0 -63 10.5t-48 30t-31 46t-11 59.5q0 46 20.5 77.5t59 51t92 27t119.5 4.5q7 56 -8 80.5 t-67 24.5q-39 0 -82.5 -8t-71.5 -21zM219 99q39 0 62 17.5t34 37.5v65q-31 3 -59.5 1t-50.5 -9t-35 -20t-13 -33q0 -28 16.5 -43.5t45.5 -15.5zM311 566h-72l-124 124v30h136z" />
<glyph unicode="&#xe1;" horiz-adv-x="496" d="M54 471q40 18 95 28.5t115 10.5q52 0 87 -12.5t55.5 -35.5t29 -55t8.5 -72q0 -44 -3 -88.5t-3.5 -87.5t2.5 -83.5t15 -76.5h-106l-21 69h-5q-20 -31 -55.5 -53.5t-91.5 -22.5q-35 0 -63 10.5t-48 30t-31 46t-11 59.5q0 46 20.5 77.5t59 51t92 27t119.5 4.5q7 56 -8 80.5 t-67 24.5q-39 0 -82.5 -8t-71.5 -21zM219 99q39 0 62 17.5t34 37.5v65q-31 3 -59.5 1t-50.5 -9t-35 -20t-13 -33q0 -28 16.5 -43.5t45.5 -15.5zM237 720h132v-30l-111 -124h-74z" />
<glyph unicode="&#xe2;" horiz-adv-x="496" d="M54 471q40 18 95 28.5t115 10.5q52 0 87 -12.5t55.5 -35.5t29 -55t8.5 -72q0 -44 -3 -88.5t-3.5 -87.5t2.5 -83.5t15 -76.5h-106l-21 69h-5q-20 -31 -55.5 -53.5t-91.5 -22.5q-35 0 -63 10.5t-48 30t-31 46t-11 59.5q0 46 20.5 77.5t59 51t92 27t119.5 4.5q7 56 -8 80.5 t-67 24.5q-39 0 -82.5 -8t-71.5 -21zM219 99q39 0 62 17.5t34 37.5v65q-31 3 -59.5 1t-50.5 -9t-35 -20t-13 -33q0 -28 16.5 -43.5t45.5 -15.5zM216 732h86l111 -182h-103l-39 66l-17 49l-17 -49l-45 -66h-99z" />
<glyph unicode="&#xe3;" horiz-adv-x="496" d="M54 471q40 18 95 28.5t115 10.5q52 0 87 -12.5t55.5 -35.5t29 -55t8.5 -72q0 -44 -3 -88.5t-3.5 -87.5t2.5 -83.5t15 -76.5h-106l-21 69h-5q-20 -31 -55.5 -53.5t-91.5 -22.5q-35 0 -63 10.5t-48 30t-31 46t-11 59.5q0 46 20.5 77.5t59 51t92 27t119.5 4.5q7 56 -8 80.5 t-67 24.5q-39 0 -82.5 -8t-71.5 -21zM219 99q39 0 62 17.5t34 37.5v65q-31 3 -59.5 1t-50.5 -9t-35 -20t-13 -33q0 -28 16.5 -43.5t45.5 -15.5zM86 658q31 37 57.5 51t50.5 14q20 0 38.5 -7t36.5 -15t35 -15t35 -7q14 0 28.5 6t30.5 21l20 -70q-29 -32 -53.5 -44t-47.5 -12 q-20 0 -39 6.5t-37 14.5t-36 14.5t-36 6.5q-15 0 -31 -6.5t-33 -22.5z" />
<glyph unicode="&#xe4;" horiz-adv-x="496" d="M54 471q40 18 95 28.5t115 10.5q52 0 87 -12.5t55.5 -35.5t29 -55t8.5 -72q0 -44 -3 -88.5t-3.5 -87.5t2.5 -83.5t15 -76.5h-106l-21 69h-5q-20 -31 -55.5 -53.5t-91.5 -22.5q-35 0 -63 10.5t-48 30t-31 46t-11 59.5q0 46 20.5 77.5t59 51t92 27t119.5 4.5q7 56 -8 80.5 t-67 24.5q-39 0 -82.5 -8t-71.5 -21zM219 99q39 0 62 17.5t34 37.5v65q-31 3 -59.5 1t-50.5 -9t-35 -20t-13 -33q0 -28 16.5 -43.5t45.5 -15.5zM75 651q0 32 19.5 51t51.5 19t50.5 -19t18.5 -51q0 -30 -18.5 -49t-50.5 -19t-51.5 19t-19.5 49zM294 651q0 32 18.5 51t50.5 19 t51.5 -19t19.5 -51q0 -30 -19.5 -49t-51.5 -19t-50.5 19t-18.5 49z" />
<glyph unicode="&#xe5;" horiz-adv-x="496" d="M54 471q40 18 95 28.5t115 10.5q52 0 87 -12.5t55.5 -35.5t29 -55t8.5 -72q0 -44 -3 -88.5t-3.5 -87.5t2.5 -83.5t15 -76.5h-106l-21 69h-5q-20 -31 -55.5 -53.5t-91.5 -22.5q-35 0 -63 10.5t-48 30t-31 46t-11 59.5q0 46 20.5 77.5t59 51t92 27t119.5 4.5q7 56 -8 80.5 t-67 24.5q-39 0 -82.5 -8t-71.5 -21zM219 99q39 0 62 17.5t34 37.5v65q-31 3 -59.5 1t-50.5 -9t-35 -20t-13 -33q0 -28 16.5 -43.5t45.5 -15.5zM144 647q0 42 28.5 69t82.5 27q51 0 81 -24.5t30 -71.5q0 -39 -29.5 -66.5t-81.5 -27.5q-53 0 -82 25.5t-29 68.5zM216 647 q0 -16 12 -24.5t27 -8.5q17 0 28 8t11 25t-11.5 25.5t-27.5 8.5q-15 0 -27 -8t-12 -26z" />
<glyph unicode="&#xe6;" horiz-adv-x="785" d="M219 99q39 0 62 17.5t34 37.5v65q-31 3 -59.5 1t-50.5 -9t-35 -20t-13 -33q0 -28 16.5 -43.5t45.5 -15.5zM350 76q-27 -34 -66.5 -59t-107.5 -25q-35 0 -63 10.5t-48 30t-31 46t-11 59.5q0 46 20.5 77.5t58.5 51t91.5 27t119.5 4.5q7 56 -7.5 80.5t-66.5 24.5 q-39 0 -79.5 -10.5t-71.5 -25.5l-34 94q38 20 94 34.5t116 14.5q52 0 83 -13.5t51 -40.5q25 28 65 43t87 15q38 0 74 -10t64 -33t45 -62t17 -97q0 -21 -2.5 -44.5t-7.5 -50.5h-301q4 -63 33.5 -95t95.5 -32q41 0 73.5 12.5t49.5 25.5l43 -85q-30 -24 -81.5 -40.5 t-109.5 -16.5q-64 0 -112.5 23.5t-75.5 66.5h-5zM548 410q-51 0 -75.5 -30.5t-29.5 -81.5h187q3 54 -17 83t-65 29z" />
<glyph unicode="&#xe7;" horiz-adv-x="433" d="M411 31q-23 -17 -52.5 -27t-62.5 -15l-18 -32q41 -4 64.5 -21.5t23.5 -53.5q0 -23 -11.5 -40t-31.5 -28.5t-47 -17.5t-58 -6t-64 6l9 48q7 -1 13 -1h11q38 0 49 9t11 21q0 28 -86 32l50 84q-49 6 -83 27.5t-55 55t-30.5 79t-9.5 99.5q0 127 57 195.5t166 68.5 q55 0 88.5 -9t60.5 -23l-31 -106q-23 11 -45.5 17t-51.5 6q-54 0 -82 -35.5t-28 -113.5q0 -32 7 -59t21 -47t36.5 -31.5t52.5 -11.5q33 0 56 8.5t41 20.5z" />
<glyph unicode="&#xe8;" horiz-adv-x="508" d="M457 43q-30 -24 -81.5 -40.5t-109.5 -16.5q-121 0 -177 70.5t-56 193.5q0 132 63 198t177 66q38 0 74 -10t64 -33t45 -62t17 -97q0 -21 -2.5 -45t-7.5 -50h-300q3 -63 32.5 -95t95.5 -32q41 0 73.5 12.5t49.5 25.5zM271 410q-51 0 -75.5 -30.5t-29.5 -81.5h186 q4 54 -16.5 83t-64.5 29zM329 566h-72l-124 124v30h136z" />
<glyph unicode="&#xe9;" horiz-adv-x="508" d="M457 43q-30 -24 -81.5 -40.5t-109.5 -16.5q-121 0 -177 70.5t-56 193.5q0 132 63 198t177 66q38 0 74 -10t64 -33t45 -62t17 -97q0 -21 -2.5 -45t-7.5 -50h-300q3 -63 32.5 -95t95.5 -32q41 0 73.5 12.5t49.5 25.5zM271 410q-51 0 -75.5 -30.5t-29.5 -81.5h186 q4 54 -16.5 83t-64.5 29zM274 720h132v-30l-111 -124h-74z" />
<glyph unicode="&#xea;" horiz-adv-x="508" d="M457 43q-30 -24 -81.5 -40.5t-109.5 -16.5q-121 0 -177 70.5t-56 193.5q0 132 63 198t177 66q38 0 74 -10t64 -33t45 -62t17 -97q0 -21 -2.5 -45t-7.5 -50h-300q3 -63 32.5 -95t95.5 -32q41 0 73.5 12.5t49.5 25.5zM271 410q-51 0 -75.5 -30.5t-29.5 -81.5h186 q4 54 -16.5 83t-64.5 29zM221 732h86l111 -182h-103l-39 66l-17 49l-17 -49l-45 -66h-99z" />
<glyph unicode="&#xeb;" horiz-adv-x="508" d="M457 43q-30 -24 -81.5 -40.5t-109.5 -16.5q-121 0 -177 70.5t-56 193.5q0 132 63 198t177 66q38 0 74 -10t64 -33t45 -62t17 -97q0 -21 -2.5 -45t-7.5 -50h-300q3 -63 32.5 -95t95.5 -32q41 0 73.5 12.5t49.5 25.5zM271 410q-51 0 -75.5 -30.5t-29.5 -81.5h186 q4 54 -16.5 83t-64.5 29zM82 651q0 32 19.5 51t51.5 19t50.5 -19t18.5 -51q0 -30 -18.5 -49t-50.5 -19t-51.5 19t-19.5 49zM301 651q0 32 18.5 51t50.5 19t51.5 -19t19.5 -51q0 -30 -19.5 -49t-51.5 -19t-50.5 19t-18.5 49z" />
<glyph unicode="&#xec;" horiz-adv-x="269" d="M70 500h130v-500h-130v500zM194 566h-72l-124 124v30h136z" />
<glyph unicode="&#xed;" horiz-adv-x="269" d="M70 500h130v-500h-130v500zM124 720h132v-30l-111 -124h-74z" />
<glyph unicode="&#xee;" horiz-adv-x="269" d="M70 500h130v-500h-130v500zM93 732h86l111 -182h-103l-39 66l-17 49l-17 -49l-45 -66h-99z" />
<glyph unicode="&#xef;" horiz-adv-x="269" d="M70 500h130v-500h-130v500zM-45 651q0 32 19.5 51t51.5 19t50.5 -19t18.5 -51q0 -30 -18.5 -49t-50.5 -19t-51.5 19t-19.5 49zM174 651q0 32 18.5 51t50.5 19t51.5 -19t19.5 -51q0 -30 -19.5 -49t-51.5 -19t-50.5 19t-18.5 49z" />
<glyph unicode="&#xf0;" horiz-adv-x="563" d="M163 243q0 -72 33 -109t88 -37q52 0 85 44.5t33 138.5q0 13 -1.5 34t-5.5 33q-16 23 -48 32.5t-62 9.5q-60 0 -91 -41.5t-31 -104.5zM197 584l44 30q-34 15 -69 21l52 80q25 -7 57 -20q23 -9 47 -22l53 36l42 -55l-33 -23q12 -9 23 -20q32 -30 57 -73.5t40.5 -101.5 t15.5 -134q0 -81 -18.5 -140.5t-51.5 -98.5t-79 -58t-101 -19q-59 0 -104 19t-75 53.5t-45 82t-15 104.5q0 54 17 100t47.5 80.5t73.5 54t94 19.5q38 0 70.5 -10.5t52.5 -30.5q-12 36 -34 66q-22 29 -50 51l-68 -46z" />
<glyph unicode="&#xf1;" horiz-adv-x="545" d="M363 0v284q0 61 -17.5 88t-59.5 27q-37 0 -62.5 -21.5t-36.5 -53.5v-324h-130v500h103l15 -66h4q23 32 61 56t98 24q37 0 66 -10t49 -33t30 -62.5t10 -97.5v-311h-130zM107 658q31 37 57.5 51t50.5 14q20 0 38.5 -7t36.5 -15t35 -15t35 -7q14 0 28.5 6t30.5 21l20 -70 q-29 -32 -53.5 -44t-47.5 -12q-20 0 -39 6.5t-37 14.5t-36 14.5t-36 6.5q-15 0 -31 -6.5t-33 -22.5z" />
<glyph unicode="&#xf2;" horiz-adv-x="537" d="M33 250q0 127 62 195.5t174 68.5q60 0 104 -19t73 -53.5t43.5 -83.5t14.5 -108q0 -127 -61.5 -195.5t-173.5 -68.5q-60 0 -104 19t-73.5 53.5t-44 83.5t-14.5 108zM167 250q0 -33 6 -61t18 -49t31.5 -32.5t46.5 -11.5q51 0 76 37t25 117q0 69 -23 111.5t-78 42.5 q-48 0 -75 -36t-27 -118zM331 566h-72l-124 124v30h136z" />
<glyph unicode="&#xf3;" horiz-adv-x="537" d="M33 250q0 127 62 195.5t174 68.5q60 0 104 -19t73 -53.5t43.5 -83.5t14.5 -108q0 -127 -61.5 -195.5t-173.5 -68.5q-60 0 -104 19t-73.5 53.5t-44 83.5t-14.5 108zM167 250q0 -33 6 -61t18 -49t31.5 -32.5t46.5 -11.5q51 0 76 37t25 117q0 69 -23 111.5t-78 42.5 q-48 0 -75 -36t-27 -118zM275 720h132v-30l-111 -124h-74z" />
<glyph unicode="&#xf4;" horiz-adv-x="537" d="M33 250q0 127 62 195.5t174 68.5q60 0 104 -19t73 -53.5t43.5 -83.5t14.5 -108q0 -127 -61.5 -195.5t-173.5 -68.5q-60 0 -104 19t-73.5 53.5t-44 83.5t-14.5 108zM167 250q0 -33 6 -61t18 -49t31.5 -32.5t46.5 -11.5q51 0 76 37t25 117q0 69 -23 111.5t-78 42.5 q-48 0 -75 -36t-27 -118zM231 732h86l111 -182h-103l-39 66l-17 49l-17 -49l-45 -66h-99z" />
<glyph unicode="&#xf5;" horiz-adv-x="537" d="M33 250q0 127 62 195.5t174 68.5q60 0 104 -19t73 -53.5t43.5 -83.5t14.5 -108q0 -127 -61.5 -195.5t-173.5 -68.5q-60 0 -104 19t-73.5 53.5t-44 83.5t-14.5 108zM167 250q0 -33 6 -61t18 -49t31.5 -32.5t46.5 -11.5q51 0 76 37t25 117q0 69 -23 111.5t-78 42.5 q-48 0 -75 -36t-27 -118zM104 658q31 37 57.5 51t50.5 14q20 0 38.5 -7t36.5 -15t35 -15t35 -7q14 0 28.5 6t30.5 21l20 -70q-29 -32 -53.5 -44t-47.5 -12q-20 0 -39 6.5t-37 14.5t-36 14.5t-36 6.5q-15 0 -31 -6.5t-33 -22.5z" />
<glyph unicode="&#xf6;" horiz-adv-x="537" d="M33 250q0 127 62 195.5t174 68.5q60 0 104 -19t73 -53.5t43.5 -83.5t14.5 -108q0 -127 -61.5 -195.5t-173.5 -68.5q-60 0 -104 19t-73.5 53.5t-44 83.5t-14.5 108zM167 250q0 -33 6 -61t18 -49t31.5 -32.5t46.5 -11.5q51 0 76 37t25 117q0 69 -23 111.5t-78 42.5 q-48 0 -75 -36t-27 -118zM88 651q0 32 19.5 51t51.5 19t50.5 -19t18.5 -51q0 -30 -18.5 -49t-50.5 -19t-51.5 19t-19.5 49zM307 651q0 32 18.5 51t50.5 19t51.5 -19t19.5 -51q0 -30 -19.5 -49t-51.5 -19t-50.5 19t-18.5 49z" />
<glyph unicode="&#xf7;" horiz-adv-x="527" d="M43 394h442v-112h-442v112zM184 532q0 35 22 55.5t58 20.5q38 0 60 -20.5t22 -55.5t-22 -56t-60 -21q-36 0 -58 21t-22 56zM184 145q0 35 22 55.5t58 20.5q38 0 60 -20.5t22 -55.5t-22 -56t-60 -21q-36 0 -58 21t-22 56z" />
<glyph unicode="&#xf8;" horiz-adv-x="536" d="M33 250q0 127 61.5 195.5t173.5 68.5q32 0 59 -5.5t50 -16.5l24 34l80 -59l-27 -38q25 -34 37 -79.5t12 -99.5q0 -127 -61.5 -195.5t-173.5 -68.5q-34 0 -62.5 6.5t-52.5 17.5l-25 -34l-83 60l31 43q-22 33 -32.5 76.5t-10.5 94.5zM369 250q0 37 -8 71l-149 -207 q22 -18 56 -18q51 0 76 37t25 117zM167 250q0 -35 6 -65l147 204q-21 15 -52 15q-48 0 -74.5 -36t-26.5 -118z" />
<glyph unicode="&#xf9;" horiz-adv-x="538" d="M182 500v-284q0 -61 14.5 -88t56.5 -27q37 0 61.5 22t36.5 54v323h130v-348q0 -41 4 -80.5t12 -71.5h-98l-23 74h-4q-23 -38 -64 -63t-97 -25q-38 0 -68 10t-50 33t-30.5 62t-10.5 98v311h130zM318 566h-72l-124 124v30h136z" />
<glyph unicode="&#xfa;" horiz-adv-x="538" d="M182 500v-284q0 -61 14.5 -88t56.5 -27q37 0 61.5 22t36.5 54v323h130v-348q0 -41 4 -80.5t12 -71.5h-98l-23 74h-4q-23 -38 -64 -63t-97 -25q-38 0 -68 10t-50 33t-30.5 62t-10.5 98v311h130zM261 720h132v-30l-111 -124h-74z" />
<glyph unicode="&#xfb;" horiz-adv-x="538" d="M182 500v-284q0 -61 14.5 -88t56.5 -27q37 0 61.5 22t36.5 54v323h130v-348q0 -41 4 -80.5t12 -71.5h-98l-23 74h-4q-23 -38 -64 -63t-97 -25q-38 0 -68 10t-50 33t-30.5 62t-10.5 98v311h130zM232 732h86l111 -182h-103l-39 66l-17 49l-17 -49l-45 -66h-99z" />
<glyph unicode="&#xfc;" horiz-adv-x="538" d="M182 500v-284q0 -61 14.5 -88t56.5 -27q37 0 61.5 22t36.5 54v323h130v-348q0 -41 4 -80.5t12 -71.5h-98l-23 74h-4q-23 -38 -64 -63t-97 -25q-38 0 -68 10t-50 33t-30.5 62t-10.5 98v311h130zM88 651q0 32 19.5 51t51.5 19t50.5 -19t18.5 -51q0 -30 -18.5 -49t-50.5 -19 t-51.5 19t-19.5 49zM307 651q0 32 18.5 51t50.5 19t51.5 -19t19.5 -51q0 -30 -19.5 -49t-51.5 -19t-50.5 19t-18.5 49z" />
<glyph unicode="&#xfd;" horiz-adv-x="478" d="M239 219l18 -78h6l13 79l76 280h134l-152 -451q-19 -56 -36.5 -102.5t-38.5 -80.5t-46.5 -52.5t-60.5 -18.5q-52 0 -83 17l24 104q15 -6 30 -6q23 0 44.5 19.5t32.5 70.5l-209 500h156zM254 720h132v-30l-111 -124h-74z" />
<glyph unicode="&#xfe;" horiz-adv-x="540" d="M57 700h130v-243h4q21 26 50.5 41.5t77.5 15.5q94 0 141 -59.5t47 -191.5q0 -64 -15 -115.5t-44.5 -87.5t-72 -55t-97.5 -19q-31 0 -51 4.5t-40 14.5v-205h-130v900zM280 404q-36 0 -58.5 -19t-34.5 -57v-208q14 -11 30.5 -17.5t43.5 -6.5q56 0 84 39.5t28 130.5 q0 66 -22 102t-71 36z" />
<glyph unicode="&#xff;" horiz-adv-x="478" d="M239 219l18 -78h6l13 79l76 280h134l-152 -451q-19 -56 -36.5 -102.5t-38.5 -80.5t-46.5 -52.5t-60.5 -18.5q-52 0 -83 17l24 104q15 -6 30 -6q23 0 44.5 19.5t32.5 70.5l-209 500h156zM66 651q0 32 19.5 51t51.5 19t50.5 -19t18.5 -51q0 -30 -18.5 -49t-50.5 -19 t-51.5 19t-19.5 49zM285 651q0 32 18.5 51t50.5 19t51.5 -19t19.5 -51q0 -30 -19.5 -49t-51.5 -19t-50.5 19t-18.5 49z" />
<glyph unicode="&#x100;" horiz-adv-x="605" d="M405 155h-215l-53 -155h-137l252 705h101l252 -705h-144zM225 265h150l-52 156l-21 110h-5l-21 -111zM129 856h343v-89h-343v89z" />
<glyph unicode="&#x101;" horiz-adv-x="496" d="M54 471q40 18 95 28.5t115 10.5q52 0 87 -12.5t55.5 -35.5t29 -55t8.5 -72q0 -44 -3 -88.5t-3.5 -87.5t2.5 -83.5t15 -76.5h-106l-21 69h-5q-20 -31 -55.5 -53.5t-91.5 -22.5q-35 0 -63 10.5t-48 30t-31 46t-11 59.5q0 46 20.5 77.5t59 51t92 27t119.5 4.5q7 56 -8 80.5 t-67 24.5q-39 0 -82.5 -8t-71.5 -21zM219 99q39 0 62 17.5t34 37.5v65q-31 3 -59.5 1t-50.5 -9t-35 -20t-13 -33q0 -28 16.5 -43.5t45.5 -15.5zM91 658h323v-92h-323v92z" />
<glyph unicode="&#x102;" horiz-adv-x="605" d="M405 155h-215l-53 -155h-137l252 705h101l252 -705h-144zM225 265h150l-52 156l-21 110h-5l-21 -111zM164 875q20 -26 58 -40t85 -14q48 0 82.5 15t54.5 39l49 -32q-12 -29 -32 -50t-45 -35t-53.5 -21t-56.5 -7q-27 0 -55.5 6t-54.5 18.5t-48 33t-36 50.5z" />
<glyph unicode="&#x103;" horiz-adv-x="496" d="M54 471q40 18 95 28.5t115 10.5q52 0 87 -12.5t55.5 -35.5t29 -55t8.5 -72q0 -44 -3 -88.5t-3.5 -87.5t2.5 -83.5t15 -76.5h-106l-21 69h-5q-20 -31 -55.5 -53.5t-91.5 -22.5q-35 0 -63 10.5t-48 30t-31 46t-11 59.5q0 46 20.5 77.5t59 51t92 27t119.5 4.5q7 56 -8 80.5 t-67 24.5q-39 0 -82.5 -8t-71.5 -21zM219 99q39 0 62 17.5t34 37.5v65q-31 3 -59.5 1t-50.5 -9t-35 -20t-13 -33q0 -28 16.5 -43.5t45.5 -15.5zM143 720q17 -30 47.5 -44.5t64.5 -14.5t62.5 15t43.5 44l60 -27q-3 -24 -16.5 -47.5t-35.5 -41.5t-51.5 -29t-63.5 -11 q-66 0 -113 33.5t-61 90.5z" />
<glyph unicode="&#x104;" horiz-adv-x="605" d="M405 155h-215l-53 -155h-137l252 705h101l252 -705h-21q-58 -22 -58 -73q0 -26 22 -38.5t62 7.5l19 -62q-15 -12 -47.5 -23.5t-67.5 -11.5q-56 0 -85.5 25t-29.5 66q0 38 23 65.5t64 44.5h-25zM225 265h150l-52 156l-21 110h-5l-21 -111z" />
<glyph unicode="&#x105;" horiz-adv-x="496" d="M54 466q38 21 89.5 32.5t120.5 11.5q52 0 87 -12.5t55.5 -35.5t29 -55t8.5 -72q0 -44 -3 -88.5t-3.5 -87.5t2.5 -83.5t15 -76.5h-23q-56 -24 -56 -72q0 -26 22 -38.5t62 7.5l19 -62q-15 -12 -47.5 -23.5t-67.5 -11.5q-56 0 -85.5 25t-29.5 66q0 40 26.5 68.5t71.5 45.5 l-19 64h-5q-20 -31 -55.5 -53.5t-91.5 -22.5q-35 0 -63 10.5t-48 30t-31 46t-11 59.5q0 46 20.5 77.5t58.5 51t91.5 27t119.5 4.5q7 56 -7.5 80.5t-66.5 24.5q-39 0 -79.5 -8.5t-71.5 -22.5zM219 99q39 0 62 17.5t34 37.5v65q-31 3 -59.5 1t-50.5 -9t-35 -20t-13 -33 q0 -28 16.5 -43.5t45.5 -15.5z" />
<glyph unicode="&#x106;" horiz-adv-x="559" d="M534 29q-32 -23 -81.5 -33t-101.5 -10q-63 0 -119.5 19.5t-99.5 63t-68.5 113t-25.5 168.5q0 103 28.5 172.5t74 112t101.5 61t112 18.5q60 0 101.5 -8t68.5 -19l-27 -116q-23 11 -54.5 16t-76.5 5q-83 0 -133.5 -59t-50.5 -183q0 -54 12 -98.5t36.5 -76t61 -49 t84.5 -17.5q45 0 76 9t54 23zM376 870h159v-30l-160 -88h-103z" />
<glyph unicode="&#x107;" horiz-adv-x="433" d="M411 31q-30 -22 -72.5 -33.5t-87.5 -11.5q-60 0 -101.5 19t-67.5 53.5t-37.5 83.5t-11.5 108q0 127 57 195.5t166 68.5q55 0 88.5 -9t60.5 -23l-31 -106q-23 11 -45.5 17t-51.5 6q-54 0 -82 -35.5t-28 -113.5q0 -32 7 -59t21 -47t36.5 -31.5t52.5 -11.5q33 0 56 8.5 t41 20.5zM250 720h132v-30l-111 -124h-74z" />
<glyph unicode="&#x108;" horiz-adv-x="559" d="M534 29q-32 -23 -81.5 -33t-101.5 -10q-63 0 -119.5 19.5t-99.5 63t-68.5 113t-25.5 168.5q0 103 28.5 172.5t74 112t101.5 61t112 18.5q60 0 101.5 -8t68.5 -19l-27 -116q-23 11 -54.5 16t-76.5 5q-83 0 -133.5 -59t-50.5 -183q0 -54 12 -98.5t36.5 -76t61 -49 t84.5 -17.5q45 0 76 9t54 23zM288 870h96l127 -93v-39h-99l-57 41l-20 34l-21 -33l-62 -42h-97v40z" />
<glyph unicode="&#x109;" horiz-adv-x="433" d="M411 31q-30 -22 -72.5 -33.5t-87.5 -11.5q-60 0 -101.5 19t-67.5 53.5t-37.5 83.5t-11.5 108q0 127 57 195.5t166 68.5q55 0 88.5 -9t60.5 -23l-31 -106q-23 11 -45.5 17t-51.5 6q-54 0 -82 -35.5t-28 -113.5q0 -32 7 -59t21 -47t36.5 -31.5t52.5 -11.5q33 0 56 8.5 t41 20.5zM204 732h86l111 -182h-103l-39 66l-17 49l-17 -49l-45 -66h-99z" />
<glyph unicode="&#x10c;" horiz-adv-x="559" d="M534 29q-32 -23 -81.5 -33t-101.5 -10q-63 0 -119.5 19.5t-99.5 63t-68.5 113t-25.5 168.5q0 103 28.5 172.5t74 112t101.5 61t112 18.5q60 0 101.5 -8t68.5 -19l-27 -116q-23 11 -54.5 16t-76.5 5q-83 0 -133.5 -59t-50.5 -183q0 -54 12 -98.5t36.5 -76t61 -49 t84.5 -17.5q45 0 76 9t54 23zM386 737h-94l-127 94v39h105l53 -45l19 -30l21 29l56 46h100v-40z" />
<glyph unicode="&#x10d;" horiz-adv-x="433" d="M411 31q-30 -22 -72.5 -33.5t-87.5 -11.5q-60 0 -101.5 19t-67.5 53.5t-37.5 83.5t-11.5 108q0 127 57 195.5t166 68.5q55 0 88.5 -9t60.5 -23l-31 -106q-23 11 -45.5 17t-51.5 6q-54 0 -82 -35.5t-28 -113.5q0 -32 7 -59t21 -47t36.5 -31.5t52.5 -11.5q33 0 56 8.5 t41 20.5zM286 550h-91l-115 182h110l39 -66l16 -49l18 49l45 66h101z" />
<glyph unicode="&#x10e;" horiz-adv-x="647" d="M60 700q21 3 47.5 5t54.5 3t54.5 1.5t47.5 0.5q93 0 159 -26t107 -73t60 -112t19 -143q0 -71 -18 -137t-60 -117t-110.5 -82t-169.5 -31q-16 0 -42.5 1t-55 2.5t-54.5 3t-39 3.5v701zM275 588q-22 0 -44.5 -1t-33.5 -3v-469q4 -1 13.5 -1.5t20.5 -1t21 -1t15 -0.5 q58 0 96.5 20.5t61 54.5t31.5 78.5t9 91.5q0 41 -8 82.5t-29.5 74.5t-58.5 54t-94 21zM328 737h-94l-127 94v39h105l53 -45l19 -30l21 29l56 46h100v-40z" />
<glyph unicode="&#x10f;" horiz-adv-x="639" d="M482 176q0 -42 1 -84t9 -93h-93l-18 65h-4q-20 -35 -57.5 -56.5t-88.5 -21.5q-94 0 -146 62t-52 194q0 128 58 199t170 71q31 0 51 -3.5t40 -11.5v203h130v-524zM261 96q38 0 60 18.5t31 53.5v212q-14 11 -31 16.5t-44 5.5q-55 0 -82.5 -37t-27.5 -127q0 -64 22.5 -103 t71.5 -39zM655 700q-2 -29 -12 -60.5t-23.5 -60t-28.5 -51t-27 -32.5l-58 31q17 36 26 81.5t9 91.5h114z" />
<glyph unicode="&#x110;" horiz-adv-x="669" d="M-6 401h88v299q21 3 47.5 5t54.5 3t54.5 1.5t47.5 0.5q93 0 159 -26t107 -73t60 -112t19 -143q0 -71 -18 -137t-60 -117t-110.5 -82t-169.5 -31q-16 0 -42.5 1t-55 2.5t-54.5 3t-39 3.5v322h-88v80zM297 588q-22 0 -44.5 -1t-33.5 -3v-183h140v-80h-140v-207 q4 -1 13.5 -1.5t20.5 -1t21 -0.5h15q58 0 96.5 20.5t61 54.5t31.5 78.5t9 91.5q0 41 -8 82.5t-29.5 74.5t-58.5 54t-94 21z" />
<glyph unicode="&#x111;" horiz-adv-x="550" d="M482 641h76v-80h-76v-385q0 -42 1 -84t9 -93h-93l-18 65h-4q-20 -35 -57.5 -56.5t-88.5 -21.5q-94 0 -146 62t-52 194q0 128 58 199t170 71q31 0 51 -3.5t40 -11.5v64h-148v80h148v59h130v-59zM261 96q38 0 60 18.5t31 53.5v212q-14 11 -31 16.5t-44 5.5q-55 0 -82.5 -37 t-27.5 -127q0 -64 22.5 -103t71.5 -39z" />
<glyph unicode="&#x112;" horiz-adv-x="522" d="M60 700h415v-122h-278v-163h253v-122h-253v-171h283v-122h-420v700zM95 856h343v-89h-343v89z" />
<glyph unicode="&#x113;" horiz-adv-x="508" d="M457 43q-30 -24 -81.5 -40.5t-109.5 -16.5q-121 0 -177 70.5t-56 193.5q0 132 63 198t177 66q38 0 74 -10t64 -33t45 -62t17 -97q0 -21 -2.5 -45t-7.5 -50h-300q3 -63 32.5 -95t95.5 -32q41 0 73.5 12.5t49.5 25.5zM271 410q-51 0 -75.5 -30.5t-29.5 -81.5h186 q4 54 -16.5 83t-64.5 29zM97 658h323v-92h-323v92z" />
<glyph unicode="&#x116;" horiz-adv-x="522" d="M60 700h415v-122h-278v-163h253v-122h-253v-171h283v-122h-420v700zM191 799q0 25 21.5 43t64.5 18t66 -18t23 -43q0 -26 -23 -44t-66 -18t-64.5 18t-21.5 44z" />
<glyph unicode="&#x117;" horiz-adv-x="508" d="M457 43q-30 -24 -81.5 -40.5t-109.5 -16.5q-121 0 -177 70.5t-56 193.5q0 132 63 198t177 66q38 0 74 -10t64 -33t45 -62t17 -97q0 -21 -2.5 -45t-7.5 -50h-300q3 -63 32.5 -95t95.5 -32q41 0 73.5 12.5t49.5 25.5zM271 410q-51 0 -75.5 -30.5t-29.5 -81.5h186 q4 54 -16.5 83t-64.5 29zM186 641q0 29 21.5 49.5t59.5 20.5t61.5 -20.5t23.5 -49.5t-23.5 -48.5t-61.5 -19.5t-59.5 19.5t-21.5 48.5z" />
<glyph unicode="&#x118;" horiz-adv-x="522" d="M60 700h415v-122h-278v-163h253v-122h-253v-171h283v-122h-27q-58 -22 -58 -73q0 -18 11 -30.5t31 -12.5q18 0 42 12l19 -62q-15 -12 -47.5 -23.5t-67.5 -11.5q-56 0 -85.5 25t-29.5 66q0 38 23 65.5t64 44.5h-295v700z" />
<glyph unicode="&#x119;" horiz-adv-x="508" d="M457 43q-25 -20 -66 -35q-48 -31 -48 -76q0 -13 6 -23.5t16.5 -16.5t26 -5.5t35.5 10.5l19 -62q-15 -12 -47 -24t-67 -12q-57 0 -86.5 27.5t-29.5 68.5q0 28 12 51t34 40q-118 1 -173 70q-56 71 -56 194q0 132 63 198t177 66q38 0 74 -10t64 -33t45 -62t17 -97 q0 -21 -2.5 -45t-7.5 -50h-300q3 -63 32.5 -95t95.5 -32q41 0 73.5 12.5t49.5 25.5zM271 410q-51 0 -75.5 -30.5t-29.5 -81.5h186q4 54 -16.5 83t-64.5 29z" />
<glyph unicode="&#x11a;" horiz-adv-x="522" d="M60 700h415v-122h-278v-163h253v-122h-253v-171h283v-122h-420v700zM308 737h-94l-127 94v39h105l53 -45l19 -30l21 29l56 46h100v-40z" />
<glyph unicode="&#x11b;" horiz-adv-x="508" d="M457 43q-30 -24 -81.5 -40.5t-109.5 -16.5q-121 0 -177 70.5t-56 193.5q0 132 63 198t177 66q38 0 74 -10t64 -33t45 -62t17 -97q0 -21 -2.5 -45t-7.5 -50h-300q3 -63 32.5 -95t95.5 -32q41 0 73.5 12.5t49.5 25.5zM271 410q-51 0 -75.5 -30.5t-29.5 -81.5h186 q4 54 -16.5 83t-64.5 29zM304 550h-91l-115 182h110l39 -66l16 -49l18 49l45 66h101z" />
<glyph unicode="&#x11c;" horiz-adv-x="609" d="M307 365h261v-312q-42 -35 -100.5 -51t-115.5 -16q-67 0 -124.5 21t-99.5 65.5t-66 113.5t-24 164q0 99 28.5 168.5t75 113t104.5 63t118 19.5t105.5 -9t72.5 -19l-28 -115q-25 10 -56 15.5t-79 5.5q-43 0 -79 -13t-62.5 -42.5t-41 -75.5t-14.5 -112q0 -63 14 -108.5 t39 -75t58.5 -43.5t71.5 -14q26 0 51 6.5t42 19.5v132l-151 16v83zM303 870h96l127 -93v-39h-99l-57 41l-20 34l-21 -33l-62 -42h-97v40z" />
<glyph unicode="&#x11d;" horiz-adv-x="536" d="M480 0q0 -109 -59 -160.5t-165 -51.5q-72 0 -113.5 10t-62.5 21l27 103q23 -9 53.5 -18t75.5 -9q68 0 92.5 29.5t24.5 82.5v32h-4q-35 -47 -124 -47q-97 0 -144.5 60t-47.5 188q0 134 64 203t186 69q64 0 114.5 -9t82.5 -21v-482zM260 96q38 0 58.5 17t31.5 51v225 q-31 13 -77 13q-50 0 -78 -37.5t-28 -119.5q0 -73 24 -111t69 -38zM238 732h86l111 -182h-103l-39 66l-17 49l-17 -49l-45 -66h-99z" />
<glyph unicode="&#x11e;" horiz-adv-x="609" d="M307 365h261v-312q-42 -35 -100.5 -51t-115.5 -16q-67 0 -124.5 21t-99.5 65.5t-66 113.5t-24 164q0 99 28.5 168.5t75 113t104.5 63t118 19.5t105.5 -9t72.5 -19l-28 -115q-25 10 -56 15.5t-79 5.5q-43 0 -79 -13t-62.5 -42.5t-41 -75.5t-14.5 -112q0 -63 14 -108.5 t39 -75t58.5 -43.5t71.5 -14q26 0 51 6.5t42 19.5v132l-151 16v83zM196 875q20 -26 58 -40t85 -14q48 0 82.5 15t54.5 39l49 -32q-12 -29 -32 -50t-45 -35t-53.5 -21t-56.5 -7q-27 0 -55.5 6t-54.5 18.5t-48 33t-36 50.5z" />
<glyph unicode="&#x11f;" horiz-adv-x="536" d="M480 0q0 -109 -59 -160.5t-165 -51.5q-72 0 -113.5 10t-62.5 21l27 103q23 -9 53.5 -18t75.5 -9q68 0 92.5 29.5t24.5 82.5v32h-4q-35 -47 -124 -47q-97 0 -144.5 60t-47.5 188q0 134 64 203t186 69q64 0 114.5 -9t82.5 -21v-482zM260 96q38 0 58.5 17t31.5 51v225 q-31 13 -77 13q-50 0 -78 -37.5t-28 -119.5q0 -73 24 -111t69 -38zM158 720q17 -30 47.5 -44.5t64.5 -14.5t62.5 15t43.5 44l60 -27q-3 -24 -16.5 -47.5t-35.5 -41.5t-51.5 -29t-63.5 -11q-66 0 -113 33.5t-61 90.5z" />
<glyph unicode="&#x122;" horiz-adv-x="609" d="M307 365h261v-312q-42 -35 -100.5 -51t-115.5 -16q-67 0 -124.5 21t-99.5 65.5t-66 113.5t-24 164q0 99 28.5 168.5t75 113t104.5 63t118 19.5t105.5 -9t72.5 -19l-28 -115q-25 10 -56 15.5t-79 5.5q-43 0 -79 -13t-62.5 -42.5t-41 -75.5t-14.5 -112q0 -63 14 -108.5 t39 -75t58.5 -43.5t71.5 -14q26 0 51 6.5t42 19.5v132l-151 16v83zM278 -105q0 29 19.5 46t48.5 17q35 0 57 -23t22 -65q0 -33 -11 -58t-27 -42.5t-34 -28t-31 -14.5l-34 54q14 7 28 19.5t16 33.5q-20 -1 -37 14.5t-17 46.5z" />
<glyph unicode="&#x123;" horiz-adv-x="536" d="M480 0q0 -109 -59 -160.5t-165 -51.5q-72 0 -113.5 10t-62.5 21l27 103q23 -9 53.5 -18t75.5 -9q68 0 92.5 29.5t24.5 82.5v32h-4q-35 -47 -124 -47q-97 0 -144.5 60t-47.5 188q0 134 64 203t186 69q64 0 114.5 -9t82.5 -21v-482zM260 96q38 0 58.5 17t31.5 51v225 q-31 13 -77 13q-50 0 -78 -37.5t-28 -119.5q0 -73 24 -111t69 -38zM359.004 613.993q0 -28.998 -19.499 -45.9971t-48.4971 -16.999q-34.998 0 -56.9961 22.999q-21.999 22.998 -21.999 64.9961q0 32.998 10.999 57.9961q11 24.999 26.999 42.498 q15.999 17.498 33.9971 27.998q17.999 10.499 30.998 14.499l33.998 -53.9971q-13.999 -6.99902 -27.998 -19.498q-13.999 -12.5 -15.999 -33.498q19.999 1 36.998 -14.5q16.999 -15.498 16.999 -46.4971z" />
<glyph unicode="&#x124;" horiz-adv-x="651" d="M453 293h-256v-293h-137v700h137v-285h256v285h137v-700h-137v293zM278 870h96l127 -93v-39h-99l-57 41l-20 34l-21 -33l-62 -42h-97v40z" />
<glyph unicode="&#x125;" horiz-adv-x="545" d="M363 0v284q0 61 -17 88t-62 27q-33 0 -60.5 -22.5t-36.5 -57.5v-319h-130v700h130v-256h4q24 32 59 51t89 19q38 0 67 -10t48.5 -33t29 -62.5t9.5 -97.5v-311h-130zM88 870h96l127 -93v-39h-99l-57 41l-20 34l-21 -33l-62 -42h-97v40z" />
<glyph unicode="&#x126;" horiz-adv-x="683" d="M2 598h75v102h137v-102h256v102h137v-102h74v-82h-74v-516h-137v293h-256v-293h-137v516h-75v82zM470 415v101h-256v-101h256z" />
<glyph unicode="&#x127;" horiz-adv-x="556" d="M-6 641h74v59h130v-59h161v-80h-161v-117h4q24 32 59 51t89 19q38 0 67 -10t48.5 -33t29 -62.5t9.5 -97.5v-311h-130v284q0 61 -17 88t-62 27q-33 0 -60.5 -22.5t-36.5 -57.5v-319h-130v561h-74v80z" />
<glyph unicode="&#x12a;" horiz-adv-x="285" d="M74 700h137v-700h-137v700zM-25 856h343v-89h-343v89z" />
<glyph unicode="&#x12b;" horiz-adv-x="269" d="M70 500h130v-500h-130v500zM-27 658h323v-92h-323v92z" />
<glyph unicode="&#x12e;" horiz-adv-x="285" d="M74 700h137v-700h-14q-23 -12 -36 -30t-12 -43q0 -18 11 -30.5t31 -12.5q17 0 41 12l20 -62q-15 -12 -47.5 -24t-67.5 -12q-57 0 -86 25.5t-29 66.5q0 38 23 65.5t64 44.5h-35v700z" />
<glyph unicode="&#x12f;" horiz-adv-x="270" d="M70 500h130v-500h-13q-23 -14 -35 -32t-12 -41q1 -18 12 -30.5t31 -12.5q17 0 41 12l19 -62q-15 -12 -47 -24t-67 -12q-57 0 -86.5 25.5t-29.5 66.5q0 38 23 65.5t64 44.5h-30v500zM51 641q0 29 21.5 49.5t59.5 20.5t61.5 -20.5t23.5 -49.5t-23.5 -48.5t-61.5 -19.5 t-59.5 19.5t-21.5 48.5z" />
<glyph unicode="&#x130;" horiz-adv-x="285" d="M74 700h137v-700h-137v700zM57 799q0 25 21.5 43t64.5 18t66 -18t23 -43q0 -26 -23 -44t-66 -18t-64.5 18t-21.5 44z" />
<glyph unicode="&#x131;" horiz-adv-x="269" d="M70 500h130v-500h-130v500z" />
<glyph unicode="&#x134;" horiz-adv-x="334" d="M131 700h137v-512q0 -40 -9 -76t-29.5 -63.5t-52.5 -44t-78 -16.5q-29 0 -63 6t-59 17l30 112q26 -13 59 -13q42 0 53.5 31t11.5 82v477zM154 870h96l127 -93v-39h-99l-57 41l-20 34l-21 -33l-62 -42h-97v40z" />
<glyph unicode="&#x135;" horiz-adv-x="268" d="M69 500h130v-521q0 -91 -36 -139t-115 -48q-30 0 -64 7v109q4 0 7 -0.5t6 -0.5q45 0 58.5 29t13.5 80v484zM97 732h86l111 -182h-103l-39 66l-17 49l-17 -49l-45 -66h-99z" />
<glyph unicode="&#x136;" horiz-adv-x="620" d="M233 299h-36v-299h-137v700h137v-310l32 14l193 296h156l-204 -294l-54 -38l56 -39l233 -329h-169zM221 -105q0 29 19.5 46t48.5 17q35 0 57 -23t22 -65q0 -33 -11 -58t-27 -42.5t-34 -28t-31 -14.5l-34 54q14 7 28 19.5t16 33.5q-20 -1 -37 14.5t-17 46.5z" />
<glyph unicode="&#x137;" horiz-adv-x="491" d="M222 207h-35v-207h-130v700h130v-413l30 14l114 199h143l-120 -190l-51 -38l55 -39l135 -233h-149zM179 -105q0 29 19.5 46t48.5 17q35 0 57 -23t22 -65q0 -33 -11 -58t-27 -42.5t-34 -28t-31 -14.5l-34 54q14 7 28 19.5t16 33.5q-20 -1 -37 14.5t-17 46.5z" />
<glyph unicode="&#x139;" horiz-adv-x="514" d="M503 0h-443v700h137v-578h306v-122zM208 870h159v-30l-160 -88h-103z" />
<glyph unicode="&#x13a;" horiz-adv-x="294" d="M191 168q0 -35 9 -51t29 -16q12 0 23.5 2t28.5 9l14 -102q-16 -8 -49 -16t-68 -8q-57 0 -87 26.5t-30 87.5v600h130v-532zM174 870h159v-30l-160 -88h-103z" />
<glyph unicode="&#x13b;" horiz-adv-x="514" d="M503 0h-443v700h137v-578h306v-122zM181 -105q0 29 19.5 46t48.5 17q35 0 57 -23t22 -65q0 -33 -11 -58t-27 -42.5t-34 -28t-31 -14.5l-34 54q14 7 28 19.5t16 33.5q-20 -1 -37 14.5t-17 46.5z" />
<glyph unicode="&#x13c;" horiz-adv-x="294" d="M191 168q0 -35 9 -51t29 -16q12 0 23.5 2t28.5 9l14 -102q-16 -8 -49 -16t-68 -8q-57 0 -87 26.5t-30 87.5v600h130v-532zM95 -105q0 29 19.5 46t48.5 17q35 0 57 -23t22 -65q0 -33 -11 -58t-27 -42.5t-34 -28t-31 -14.5l-34 54q14 7 28 19.5t16 33.5q-20 -1 -37 14.5 t-17 46.5z" />
<glyph unicode="&#x13d;" horiz-adv-x="514" d="M503 0h-443v700h137v-578h306v-122zM463 700q-2 -29 -12 -60.5t-23.5 -60t-28.5 -51t-27 -32.5l-58 31q17 36 26 81.5t9 91.5h114z" />
<glyph unicode="&#x13e;" horiz-adv-x="294" d="M191 168q0 -35 9 -51t29 -16q12 0 23.5 2t28.5 9l14 -102q-16 -8 -49 -16t-68 -8q-57 0 -87 26.5t-30 87.5v600h130v-532zM366 700q-2 -29 -12 -60.5t-23.5 -60t-28.5 -51t-27 -32.5l-58 31q17 36 26 81.5t9 91.5h114z" />
<glyph unicode="&#x141;" horiz-adv-x="525" d="M3 318l68 45v337h137v-245l100 67v-125l-100 -66v-209h306v-122h-443v241l-68 -44v121z" />
<glyph unicode="&#x142;" horiz-adv-x="319" d="M6 307l79 53v340h130v-253l96 64v-125l-96 -63v-155q0 -35 9 -51t29 -16q12 0 23.5 2t28.5 9l14 -102q-16 -8 -49 -16t-68 -8q-57 0 -87 26.5t-30 87.5v138l-79 -52v121z" />
<glyph unicode="&#x143;" horiz-adv-x="657" d="M234 365l-55 110h-5l16 -110v-365h-130v705h100l265 -373l53 -107h5l-16 107v368h130v-705h-100zM366 870h159v-30l-160 -88h-103z" />
<glyph unicode="&#x144;" horiz-adv-x="545" d="M363 0v284q0 61 -17.5 88t-59.5 27q-37 0 -62.5 -21.5t-36.5 -53.5v-324h-130v500h103l15 -66h4q23 32 61 56t98 24q37 0 66 -10t49 -33t30 -62.5t10 -97.5v-311h-130zM277 720h132v-30l-111 -124h-74z" />
<glyph unicode="&#x145;" horiz-adv-x="657" d="M234 365l-55 110h-5l16 -110v-365h-130v705h100l265 -373l53 -107h5l-16 107v368h130v-705h-100zM254 -105q0 29 19.5 46t48.5 17q35 0 57 -23t22 -65q0 -33 -11 -58t-27 -42.5t-34 -28t-31 -14.5l-34 54q14 7 28 19.5t16 33.5q-20 -1 -37 14.5t-17 46.5z" />
<glyph unicode="&#x146;" horiz-adv-x="545" d="M363 0v284q0 61 -17.5 88t-59.5 27q-37 0 -62.5 -21.5t-36.5 -53.5v-324h-130v500h103l15 -66h4q23 32 61 56t98 24q37 0 66 -10t49 -33t30 -62.5t10 -97.5v-311h-130zM198 -105q0 29 19.5 46t48.5 17q35 0 57 -23t22 -65q0 -33 -11 -58t-27 -42.5t-34 -28t-31 -14.5 l-34 54q14 7 28 19.5t16 33.5q-20 -1 -37 14.5t-17 46.5z" />
<glyph unicode="&#x147;" horiz-adv-x="657" d="M234 365l-55 110h-5l16 -110v-365h-130v705h100l265 -373l53 -107h5l-16 107v368h130v-705h-100zM377 737h-94l-127 94v39h105l53 -45l19 -30l21 29l56 46h100v-40z" />
<glyph unicode="&#x148;" horiz-adv-x="545" d="M363 0v284q0 61 -17.5 88t-59.5 27q-37 0 -62.5 -21.5t-36.5 -53.5v-324h-130v500h103l15 -66h4q23 32 61 56t98 24q37 0 66 -10t49 -33t30 -62.5t10 -97.5v-311h-130zM318 550h-91l-115 182h110l39 -66l16 -49l18 49l45 66h101z" />
<glyph unicode="&#x14c;" horiz-adv-x="670" d="M38 350q0 175 77 269.5t220 94.5q75 0 131 -26t93 -74t55 -115t18 -149q0 -175 -77.5 -269.5t-219.5 -94.5q-76 0 -132 26t-92.5 74t-54.5 115t-18 149zM182 350q0 -53 9 -97.5t27.5 -76.5t47.5 -50t69 -18q73 0 113 57t40 185q0 51 -8.5 95t-26.5 77t-47 51.5t-71 18.5 q-73 0 -113 -58.5t-40 -183.5zM167 856h343v-89h-343v89z" />
<glyph unicode="&#x14d;" horiz-adv-x="537" d="M33 250q0 127 62 195.5t174 68.5q60 0 104 -19t73 -53.5t43.5 -83.5t14.5 -108q0 -127 -61.5 -195.5t-173.5 -68.5q-60 0 -104 19t-73.5 53.5t-44 83.5t-14.5 108zM167 250q0 -33 6 -61t18 -49t31.5 -32.5t46.5 -11.5q51 0 76 37t25 117q0 69 -23 111.5t-78 42.5 q-48 0 -75 -36t-27 -118zM107 658h323v-92h-323v92z" />
<glyph unicode="&#x150;" horiz-adv-x="670" d="M38 350q0 175 77 269.5t220 94.5q75 0 131 -26t93 -74t55 -115t18 -149q0 -175 -77.5 -269.5t-219.5 -94.5q-76 0 -132 26t-92.5 74t-54.5 115t-18 149zM182 350q0 -53 9 -97.5t27.5 -76.5t47.5 -50t69 -18q73 0 113 57t40 185q0 51 -8.5 95t-26.5 77t-47 51.5t-71 18.5 q-73 0 -113 -58.5t-40 -183.5zM250 850h134v-16l-100 -93h-93zM448 850h140v-16l-143 -93h-94z" />
<glyph unicode="&#x151;" horiz-adv-x="537" d="M33 250q0 127 62 195.5t174 68.5q60 0 104 -19t73 -53.5t43.5 -83.5t14.5 -108q0 -127 -61.5 -195.5t-173.5 -68.5q-60 0 -104 19t-73.5 53.5t-44 83.5t-14.5 108zM167 250q0 -33 6 -61t18 -49t31.5 -32.5t46.5 -11.5q51 0 76 37t25 117q0 69 -23 111.5t-78 42.5 q-48 0 -75 -36t-27 -118zM180 700h119v-16l-76 -113h-78zM358 700h126v-16l-118 -113h-81z" />
<glyph unicode="&#x152;" horiz-adv-x="915" d="M453 567q-21 11 -51 18t-67 7q-73 0 -113 -58.5t-40 -183.5q0 -53 9 -97.5t28.5 -76.5t49.5 -50t73 -18q29 0 55.5 3.5t55.5 15.5v440zM453 0q-19 -7 -52.5 -10.5t-65.5 -3.5q-76 0 -132 26t-92.5 74t-54.5 115t-18 149q0 175 77 269.5t220 94.5q39 0 67.5 -4.5 t50.5 -9.5h415v-122h-278v-163h253v-122h-253v-171h283v-122h-420z" />
<glyph unicode="&#x153;" horiz-adv-x="841" d="M167 250q0 -33 6 -61t18 -49t31.5 -32.5t46.5 -11.5q51 0 76 37t25 117q0 69 -23 111.5t-78 42.5q-48 0 -75 -36t-27 -118zM431 60q-25 -33 -64.5 -53.5t-97.5 -20.5q-60 0 -104 19t-73.5 53.5t-44 83.5t-14.5 108q0 127 62 195.5t174 68.5q66 0 106 -22.5t63 -49.5 q23 29 63.5 50.5t104.5 21.5q38 0 74 -10t64 -33t45 -62t17 -97q0 -21 -2.5 -45t-7.5 -50h-301q3 -63 33 -95t96 -32q41 0 73.5 12.5t49.5 25.5l43 -85q-30 -24 -81.5 -40.5t-109.5 -16.5q-111 0 -168 74zM604 410q-51 0 -75.5 -30.5t-29.5 -81.5h186q0 4 0.5 8t0.5 8 q0 46 -20.5 71t-61.5 25z" />
<glyph unicode="&#x154;" horiz-adv-x="602" d="M60 693q23 4 49.5 7.5t53 5.5t51.5 3t46 1q49 0 96.5 -9t85 -31t60 -60.5t22.5 -96.5q0 -86 -40 -140t-107 -75l49 -31l160 -267h-158l-159 274l-72 13v-287h-137v693zM270 588q-21 0 -41.5 -1t-31.5 -4v-203h58q57 0 91 26t34 86q0 45 -28 70.5t-82 25.5zM292 870h159 v-30l-160 -88h-103z" />
<glyph unicode="&#x155;" horiz-adv-x="351" d="M333 378q-31 11 -56 11q-35 0 -58.5 -18.5t-31.5 -47.5v-323h-130v500h101l15 -66h4q17 37 46 57t68 20q26 0 59 -11zM172 720h132v-30l-111 -124h-74z" />
<glyph unicode="&#x156;" horiz-adv-x="602" d="M60 693q23 4 49.5 7.5t53 5.5t51.5 3t46 1q49 0 96.5 -9t85 -31t60 -60.5t22.5 -96.5q0 -86 -40 -140t-107 -75l49 -31l160 -267h-158l-159 274l-72 13v-287h-137v693zM270 588q-21 0 -41.5 -1t-31.5 -4v-203h58q57 0 91 26t34 86q0 45 -28 70.5t-82 25.5zM228 -105 q0 29 19.5 46t48.5 17q35 0 57 -23t22 -65q0 -33 -11 -58t-27 -42.5t-34 -28t-31 -14.5l-34 54q14 7 28 19.5t16 33.5q-20 -1 -37 14.5t-17 46.5z" />
<glyph unicode="&#x157;" horiz-adv-x="351" d="M333 378q-31 11 -56 11q-35 0 -58.5 -18.5t-31.5 -47.5v-323h-130v500h101l15 -66h4q17 37 46 57t68 20q26 0 59 -11zM85 -105q0 29 19.5 46t48.5 17q35 0 57 -23t22 -65q0 -33 -11 -58t-27 -42.5t-34 -28t-31 -14.5l-34 54q14 7 28 19.5t16 33.5q-20 -1 -37 14.5 t-17 46.5z" />
<glyph unicode="&#x158;" horiz-adv-x="602" d="M60 693q23 4 49.5 7.5t53 5.5t51.5 3t46 1q49 0 96.5 -9t85 -31t60 -60.5t22.5 -96.5q0 -86 -40 -140t-107 -75l49 -31l160 -267h-158l-159 274l-72 13v-287h-137v693zM270 588q-21 0 -41.5 -1t-31.5 -4v-203h58q57 0 91 26t34 86q0 45 -28 70.5t-82 25.5zM303 737h-94 l-127 94v39h105l53 -45l19 -30l21 29l56 46h100v-40z" />
<glyph unicode="&#x159;" horiz-adv-x="351" d="M333 378q-31 11 -56 11q-35 0 -58.5 -18.5t-31.5 -47.5v-323h-130v500h101l15 -66h4q17 37 46 57t68 20q26 0 59 -11zM239 550h-91l-115 182h110l39 -66l16 -49l18 49l45 66h101z" />
<glyph unicode="&#x15a;" horiz-adv-x="530" d="M362 188q0 32 -23.5 52t-59 36.5t-77 34t-77 43t-59 63.5t-23.5 97q0 51 17 88.5t48.5 62.5t74.5 37t96 12q61 0 115 -10.5t89 -30.5l-43 -115q-22 14 -66 25.5t-95 11.5q-48 0 -73.5 -19t-25.5 -51q0 -30 23.5 -50t59 -37t77 -35t77 -43.5t59 -63t23.5 -93.5 t-18.5 -96.5t-52 -67.5t-81 -40t-104.5 -13q-75 0 -132 14t-84 28l44 117q11 -6 28.5 -13t39.5 -13t46.5 -10t50.5 -4q61 0 93.5 20.5t32.5 62.5zM302 870h159v-30l-160 -88h-103z" />
<glyph unicode="&#x15b;" horiz-adv-x="422" d="M264 138q0 20 -17 32t-42 22t-55 20.5t-55 29t-42 47t-17 73.5q0 74 44 113t127 39q57 0 103 -12t72 -27l-29 -94q-23 9 -58 19t-71 10q-58 0 -58 -45q0 -18 17 -29t42 -20.5t55 -20.5t55 -28.5t42 -45.5t17 -72q0 -76 -48.5 -119.5t-145.5 -43.5q-53 0 -99.5 13.5 t-75.5 31.5l36 97q23 -13 61 -25.5t78 -12.5q29 0 46.5 11t17.5 37zM208 720h132v-30l-111 -124h-74z" />
<glyph unicode="&#x15c;" horiz-adv-x="530" d="M362 188q0 32 -23.5 52t-59 36.5t-77 34t-77 43t-59 63.5t-23.5 97q0 51 17 88.5t48.5 62.5t74.5 37t96 12q61 0 115 -10.5t89 -30.5l-43 -115q-22 14 -66 25.5t-95 11.5q-48 0 -73.5 -19t-25.5 -51q0 -30 23.5 -50t59 -37t77 -35t77 -43.5t59 -63t23.5 -93.5 t-18.5 -96.5t-52 -67.5t-81 -40t-104.5 -13q-75 0 -132 14t-84 28l44 117q11 -6 28.5 -13t39.5 -13t46.5 -10t50.5 -4q61 0 93.5 20.5t32.5 62.5zM230 870h96l127 -93v-39h-99l-57 41l-20 34l-21 -33l-62 -42h-97v40z" />
<glyph unicode="&#x15d;" horiz-adv-x="422" d="M264 138q0 20 -17 32t-42 22t-55 20.5t-55 29t-42 47t-17 73.5q0 74 44 113t127 39q57 0 103 -12t72 -27l-29 -94q-23 9 -58 19t-71 10q-58 0 -58 -45q0 -18 17 -29t42 -20.5t55 -20.5t55 -28.5t42 -45.5t17 -72q0 -76 -48.5 -119.5t-145.5 -43.5q-53 0 -99.5 13.5 t-75.5 31.5l36 97q23 -13 61 -25.5t78 -12.5q29 0 46.5 11t17.5 37zM177 732h86l111 -182h-103l-39 66l-17 49l-17 -49l-45 -66h-99z" />
<glyph unicode="&#x15e;" horiz-adv-x="530" d="M362 188q0 32 -23.5 52t-59 36.5t-77 34t-77 43t-59 63.5t-23.5 97q0 51 17 88.5t48.5 62.5t74.5 37t96 12q61 0 115 -10.5t89 -30.5l-43 -115q-22 14 -66 25.5t-95 11.5q-48 0 -73.5 -19t-25.5 -51q0 -30 23.5 -50t59 -37t77 -35t77 -43.5t59 -63t23.5 -93.5 q0 -95 -51.5 -147t-139.5 -65l-18 -34q41 -4 64.5 -21.5t23.5 -53.5q0 -23 -11.5 -40t-31.5 -28.5t-47 -17.5t-58 -6t-64 6l9 48q7 -1 13 -1h11q38 0 49 9t11 21q0 28 -86 32l48 81q-68 2 -118.5 15t-75.5 27l44 117q11 -6 28.5 -13t39.5 -13t46.5 -10t50.5 -4 q61 0 93.5 20.5t32.5 62.5z" />
<glyph unicode="&#x15f;" horiz-adv-x="422" d="M264 138q0 20 -17 32t-42 22t-55 20.5t-55 29t-42 47t-17 73.5q0 74 44 113t127 39q57 0 103 -12t72 -27l-29 -94q-23 9 -58 19t-71 10q-58 0 -58 -45q0 -18 17 -29t42 -20.5t55 -20.5t55 -28.5t42 -45.5t17 -72q0 -64 -35 -105.5t-104 -52.5l-18 -34q41 -4 64.5 -21.5 t23.5 -53.5q0 -23 -11.5 -40t-31.5 -28.5t-47 -17.5t-58 -6t-64 6l9 48q7 -1 13 -1h11q38 0 49 9t11 21q0 28 -86 32l49 83q-44 4 -82 15.5t-62 27.5l36 97q23 -13 61 -25.5t78 -12.5q29 0 46.5 11t17.5 37z" />
<glyph unicode="&#x160;" horiz-adv-x="530" d="M362 188q0 32 -23.5 52t-59 36.5t-77 34t-77 43t-59 63.5t-23.5 97q0 51 17 88.5t48.5 62.5t74.5 37t96 12q61 0 115 -10.5t89 -30.5l-43 -115q-22 14 -66 25.5t-95 11.5q-48 0 -73.5 -19t-25.5 -51q0 -30 23.5 -50t59 -37t77 -35t77 -43.5t59 -63t23.5 -93.5 t-18.5 -96.5t-52 -67.5t-81 -40t-104.5 -13q-75 0 -132 14t-84 28l44 117q11 -6 28.5 -13t39.5 -13t46.5 -10t50.5 -4q61 0 93.5 20.5t32.5 62.5zM328 737h-94l-127 94v39h105l53 -45l19 -30l21 29l56 46h100v-40z" />
<glyph unicode="&#x161;" horiz-adv-x="422" d="M264 138q0 20 -17 32t-42 22t-55 20.5t-55 29t-42 47t-17 73.5q0 74 44 113t127 39q57 0 103 -12t72 -27l-29 -94q-23 9 -58 19t-71 10q-58 0 -58 -45q0 -18 17 -29t42 -20.5t55 -20.5t55 -28.5t42 -45.5t17 -72q0 -76 -48.5 -119.5t-145.5 -43.5q-53 0 -99.5 13.5 t-75.5 31.5l36 97q23 -13 61 -25.5t78 -12.5q29 0 46.5 11t17.5 37zM253 550h-91l-115 182h110l39 -66l16 -49l18 49l45 66h101z" />
<glyph unicode="&#x162;" horiz-adv-x="568" d="M216 0v578h-205v122h546v-122h-204v-578h-27l-24 -43q41 -4 64.5 -21.5t23.5 -53.5q0 -23 -11.5 -40t-31.5 -28.5t-47 -17.5t-58 -6t-64 6l9 48q7 -1 13 -1h11q38 0 49 9t11 21q0 28 -86 32l57 95h-26z" />
<glyph unicode="&#x163;" horiz-adv-x="349" d="M5 500h69v94l130 37v-131h122v-110h-122v-192q0 -52 10.5 -75t39.5 -23q20 0 34.5 4t32.5 12l23 -99q-19 -9 -41 -15t-48 -11l-18 -34q41 -4 64.5 -21.5t23.5 -53.5q0 -23 -11.5 -40t-31.5 -28.5t-47 -17.5t-58 -6t-64 6l9 48q7 -1 13 -1h11q38 0 49 9t11 21q0 28 -86 32 l50 84q-49 9 -72.5 44.5t-23.5 104.5v252h-69v110z" />
<glyph unicode="&#x164;" horiz-adv-x="568" d="M557 578h-204v-578h-137v578h-205v122h546v-122zM327 737h-94l-127 94v39h105l53 -45l19 -30l21 29l56 46h100v-40z" />
<glyph unicode="&#x165;" horiz-adv-x="360" d="M5 500h69v94l130 37v-131h122v-110h-122v-192q0 -52 10.5 -74.5t39.5 -22.5q20 0 34.5 4t32.5 12l23 -100q-27 -13 -63 -22t-73 -9q-69 0 -101.5 35.5t-32.5 116.5v252h-69v110zM375 723q-2 -29 -12 -60.5t-23.5 -60t-28.5 -51t-27 -32.5l-58 31q17 36 26 81.5t9 91.5 h114z" />
<glyph unicode="&#x16a;" horiz-adv-x="627" d="M440 700h130v-452q0 -68 -18 -117t-50 -81t-78 -47t-101 -15q-266 0 -266 243v469h137v-442q0 -41 7.5 -69.5t23.5 -46t40 -25t56 -7.5q63 0 91 35t28 113v442zM145 856h343v-89h-343v89z" />
<glyph unicode="&#x16b;" horiz-adv-x="538" d="M182 500v-284q0 -61 14.5 -88t56.5 -27q37 0 61.5 22t36.5 54v323h130v-348q0 -41 4 -80.5t12 -71.5h-98l-23 74h-4q-23 -38 -64 -63t-97 -25q-38 0 -68 10t-50 33t-30.5 62t-10.5 98v311h130zM106 658h323v-92h-323v92z" />
<glyph unicode="&#x16c;" horiz-adv-x="627" d="M440 700h130v-452q0 -68 -18 -117t-50 -81t-78 -47t-101 -15q-266 0 -266 243v469h137v-442q0 -41 7.5 -69.5t23.5 -46t40 -25t56 -7.5q63 0 91 35t28 113v442zM173 875q20 -26 58 -40t85 -14q48 0 82.5 15t54.5 39l49 -32q-12 -29 -32 -50t-45 -35t-53.5 -21t-56.5 -7 q-27 0 -55.5 6t-54.5 18.5t-48 33t-36 50.5z" />
<glyph unicode="&#x16d;" horiz-adv-x="538" d="M182 500v-284q0 -61 14.5 -88t56.5 -27q37 0 61.5 22t36.5 54v323h130v-348q0 -41 4 -80.5t12 -71.5h-98l-23 74h-4q-23 -38 -64 -63t-97 -25q-38 0 -68 10t-50 33t-30.5 62t-10.5 98v311h130zM159 720q17 -30 47.5 -44.5t64.5 -14.5t62.5 15t43.5 44l60 -27 q-3 -24 -16.5 -47.5t-35.5 -41.5t-51.5 -29t-63.5 -11q-66 0 -113 33.5t-61 90.5z" />
<glyph unicode="&#x16e;" horiz-adv-x="627" d="M440 700h130v-452q0 -68 -18 -117t-50 -81t-78 -47t-101 -15q-266 0 -266 243v469h137v-442q0 -41 7.5 -69.5t23.5 -46t40 -25t56 -7.5q63 0 91 35t28 113v442zM192 772q0 18 6 34.5t20.5 29t39 19.5t62.5 7q70 0 99 -24t29 -66q0 -18 -6.5 -34t-21.5 -27.5t-39.5 -18.5 t-60.5 -7q-71 0 -99.5 24.5t-28.5 62.5zM276 772q0 -31 44 -31q25 0 35 8t10 23q0 17 -10.5 25t-34.5 8q-44 0 -44 -33z" />
<glyph unicode="&#x16f;" horiz-adv-x="538" d="M182 500v-284q0 -61 14.5 -88t56.5 -27q37 0 61.5 22t36.5 54v323h130v-348q0 -41 4 -80.5t12 -71.5h-98l-23 74h-4q-23 -38 -64 -63t-97 -25q-38 0 -68 10t-50 33t-30.5 62t-10.5 98v311h130zM155 647q0 42 28.5 69t82.5 27q51 0 81 -24.5t30 -71.5q0 -39 -29.5 -66.5 t-81.5 -27.5q-53 0 -82 25.5t-29 68.5zM227 647q0 -16 12 -24.5t27 -8.5q17 0 28 8t11 25t-11.5 25.5t-27.5 8.5q-15 0 -27 -8t-12 -26z" />
<glyph unicode="&#x170;" horiz-adv-x="627" d="M440 700h130v-452q0 -68 -18 -117t-50 -81t-78 -47t-101 -15q-266 0 -266 243v469h137v-442q0 -41 7.5 -69.5t23.5 -46t40 -25t56 -7.5q63 0 91 35t28 113v442zM225 850h134v-16l-100 -93h-93zM423 850h140v-16l-143 -93h-94z" />
<glyph unicode="&#x171;" horiz-adv-x="538" d="M182 500v-284q0 -61 14.5 -88t56.5 -27q37 0 61.5 22t36.5 54v323h130v-348q0 -41 4 -80.5t12 -71.5h-98l-23 74h-4q-23 -38 -64 -63t-97 -25q-38 0 -68 10t-50 33t-30.5 62t-10.5 98v311h130zM166 700h119v-16l-76 -113h-78zM344 700h126v-16l-118 -113h-81z" />
<glyph unicode="&#x172;" horiz-adv-x="627" d="M440 700h130v-452q0 -68 -18 -117t-50 -81q-30 -30 -73 -45q-45 -31 -45 -73q0 -13 5.5 -23.5t16.5 -16.5t26.5 -5.5t35.5 10.5l19 -62q-15 -12 -47.5 -24t-67.5 -12q-56 0 -85.5 27.5t-29.5 68.5q0 55 53 93q-253 6 -253 243v469h137v-442q0 -41 7.5 -69.5t23.5 -46 t40 -25t56 -7.5q63 0 91 35t28 113v442z" />
<glyph unicode="&#x173;" horiz-adv-x="538" d="M182 500v-284q0 -61 14.5 -88t56.5 -27q37 0 61.5 22t36.5 54v323h130v-348q0 -41 4 -80.5t12 -71.5h-18q-29 -10 -42.5 -28.5t-13.5 -43.5q1 -26 22.5 -38.5t61.5 7.5l19 -62q-15 -12 -47 -24t-67 -12q-57 0 -86.5 25.5t-29.5 66.5t27 70t74 45l-21 68h-4 q-23 -38 -64 -63t-97 -25q-38 0 -68 10t-50 33t-30.5 62t-10.5 98v311h130z" />
<glyph unicode="&#x178;" horiz-adv-x="592" d="M228 260l-230 440h163l128 -263l14 -74h5l15 76l124 261h147l-229 -439v-261h-137v260zM116 798q0 26 18 42t58 16q39 0 57 -16t18 -42t-18 -41.5t-57 -15.5q-40 0 -58 15.5t-18 41.5zM330 798q0 26 18 42t57 16q40 0 58 -16t18 -42t-18 -41.5t-58 -15.5q-39 0 -57 15.5 t-18 41.5z" />
<glyph unicode="&#x179;" horiz-adv-x="539" d="M27 122l296 414l52 42h-348v122h485v-122l-298 -418l-51 -38h349v-122h-485v122zM298 870h159v-30l-160 -88h-103z" />
<glyph unicode="&#x17a;" horiz-adv-x="458" d="M31 110l197 237l51 43h-248v110h392v-110l-195 -241l-50 -39h245v-110h-392v110zM222 720h132v-30l-111 -124h-74z" />
<glyph unicode="&#x17b;" horiz-adv-x="539" d="M27 122l296 414l52 42h-348v122h485v-122l-298 -418l-51 -38h349v-122h-485v122zM186 799q0 25 21.5 43t64.5 18t66 -18t23 -43q0 -26 -23 -44t-66 -18t-64.5 18t-21.5 44z" />
<glyph unicode="&#x17c;" horiz-adv-x="458" d="M31 110l197 237l51 43h-248v110h392v-110l-195 -241l-50 -39h245v-110h-392v110zM151 641q0 29 21.5 49.5t59.5 20.5t61.5 -20.5t23.5 -49.5t-23.5 -48.5t-61.5 -19.5t-59.5 19.5t-21.5 48.5z" />
<glyph unicode="&#x17d;" horiz-adv-x="539" d="M27 122l296 414l52 42h-348v122h485v-122l-298 -418l-51 -38h349v-122h-485v122zM309 737h-94l-127 94v39h105l53 -45l19 -30l21 29l56 46h100v-40z" />
<glyph unicode="&#x17e;" horiz-adv-x="458" d="M31 110l197 237l51 43h-248v110h392v-110l-195 -241l-50 -39h245v-110h-392v110zM269 550h-91l-115 182h110l39 -66l16 -49l18 49l45 66h101z" />
<glyph unicode="&#x17f;" horiz-adv-x="249" d="M12 500h69v28q0 95 40 137.5t116 42.5q45 0 76 -6.5t58 -17.5l-26 -101q-23 8 -40 11.5t-37 3.5t-31.5 -6t-17 -18.5t-7 -31t-1.5 -42.5v-500h-130v390h-69v110z" />
<glyph unicode="&#x192;" d="M342 390l-71 -424q-6 -37 -17.5 -68.5t-32 -55t-51 -37t-74.5 -13.5q-14 0 -34.5 2t-41.5 5t-40.5 7.5t-31.5 9.5l21 105q23 -10 44 -14.5t49 -4.5q36 0 56 24.5t29 81.5l61 382h-78v110h96l11 67q6 37 16.5 64.5t29 46t47.5 27.5t72 9q16 0 36.5 -2.5t41.5 -7t41 -10 t35 -12.5l-32 -97q-49 19 -95 19q-32 0 -44.5 -15.5t-18.5 -55.5l-5 -33h119v-110h-138z" />
<glyph unicode="&#x1f4;" horiz-adv-x="609" d="M307 365h261v-312q-42 -35 -100.5 -51t-115.5 -16q-67 0 -124.5 21t-99.5 65.5t-66 113.5t-24 164q0 99 28.5 168.5t75 113t104.5 63t118 19.5t105.5 -9t72.5 -19l-28 -115q-25 10 -56 15.5t-79 5.5q-43 0 -79 -13t-62.5 -42.5t-41 -75.5t-14.5 -112q0 -63 14 -108.5 t39 -75t58.5 -43.5t71.5 -14q26 0 51 6.5t42 19.5v132l-151 16v83zM391 870h159v-30l-160 -88h-103z" />
<glyph unicode="&#x1f5;" horiz-adv-x="536" d="M480 0q0 -109 -59 -160.5t-165 -51.5q-72 0 -113.5 10t-62.5 21l27 103q23 -9 53.5 -18t75.5 -9q68 0 92.5 29.5t24.5 82.5v32h-4q-35 -47 -124 -47q-97 0 -144.5 60t-47.5 188q0 134 64 203t186 69q64 0 114.5 -9t82.5 -21v-482zM260 96q38 0 58.5 17t31.5 51v225 q-31 13 -77 13q-50 0 -78 -37.5t-28 -119.5q0 -73 24 -111t69 -38zM278 720h132v-30l-111 -124h-74z" />
<glyph unicode="&#x218;" horiz-adv-x="530" d="M362 188q0 32 -23.5 52t-59 36.5t-77 34t-77 43t-59 63.5t-23.5 97q0 51 17 88.5t48.5 62.5t74.5 37t96 12q61 0 115 -10.5t89 -30.5l-43 -115q-22 14 -66 25.5t-95 11.5q-48 0 -73.5 -19t-25.5 -51q0 -30 23.5 -50t59 -37t77 -35t77 -43.5t59 -63t23.5 -93.5 t-18.5 -96.5t-52 -67.5t-81 -40t-104.5 -13q-75 0 -132 14t-84 28l44 117q11 -6 28.5 -13t39.5 -13t46.5 -10t50.5 -4q61 0 93.5 20.5t32.5 62.5zM185 -105q0 29 19.5 46t48.5 17q35 0 57 -23t22 -65q0 -33 -11 -58t-27 -42.5t-34 -28t-31 -14.5l-34 54q14 7 28 19.5 t16 33.5q-20 -1 -37 14.5t-17 46.5z" />
<glyph unicode="&#x219;" horiz-adv-x="422" d="M264 138q0 20 -17 32t-42 22t-55 20.5t-55 29t-42 47t-17 73.5q0 74 44 113t127 39q57 0 103 -12t72 -27l-29 -94q-23 9 -58 19t-71 10q-58 0 -58 -45q0 -18 17 -29t42 -20.5t55 -20.5t55 -28.5t42 -45.5t17 -72q0 -76 -48.5 -119.5t-145.5 -43.5q-53 0 -99.5 13.5 t-75.5 31.5l36 97q23 -13 61 -25.5t78 -12.5q29 0 46.5 11t17.5 37zM141 -105q0 29 19.5 46t48.5 17q35 0 57 -23t22 -65q0 -33 -11 -58t-27 -42.5t-34 -28t-31 -14.5l-34 54q14 7 28 19.5t16 33.5q-20 -1 -37 14.5t-17 46.5z" />
<glyph unicode="&#x21a;" horiz-adv-x="568" d="M557 578h-204v-578h-137v578h-205v122h546v-122zM205 -105q0 29 19.5 46t48.5 17q35 0 57 -23t22 -65q0 -33 -11 -58t-27 -42.5t-34 -28t-31 -14.5l-34 54q14 7 28 19.5t16 33.5q-20 -1 -37 14.5t-17 46.5z" />
<glyph unicode="&#x21b;" horiz-adv-x="349" d="M5 500h69v94l130 37v-131h122v-110h-122v-192q0 -52 10.5 -74.5t39.5 -22.5q20 0 34.5 4t32.5 12l23 -100q-27 -13 -63 -22t-73 -9q-69 0 -101.5 35.5t-32.5 116.5v252h-69v110zM109 -105q0 29 19.5 46t48.5 17q35 0 57 -23t22 -65q0 -33 -11 -58t-27 -42.5t-34 -28 t-31 -14.5l-34 54q14 7 28 19.5t16 33.5q-20 -1 -37 14.5t-17 46.5z" />
<glyph unicode="&#x237;" horiz-adv-x="268" d="M69 500h130v-521q0 -91 -36 -139t-115 -48q-30 0 -64 7v109q4 0 7 -0.5t6 -0.5q45 0 58.5 29t13.5 80v484z" />
<glyph unicode="&#x2bc;" horiz-adv-x="223" d="M38 643q0 29 19.5 47t49.5 18q36 0 57 -24t21 -63q0 -40 -12.5 -68t-30 -46.5t-37 -28.5t-32.5 -15l-33 55q20 9 35.5 23.5t17.5 37.5q-20 -1 -37.5 15.5t-17.5 48.5z" />
<glyph unicode="&#x2c6;" horiz-adv-x="440" d="M183 732h86l111 -182h-103l-39 66l-17 49l-17 -49l-45 -66h-99z" />
<glyph unicode="&#x2c7;" horiz-adv-x="449" d="M266 550h-91l-115 182h110l39 -66l16 -49l18 49l45 66h101z" />
<glyph unicode="&#x2d8;" horiz-adv-x="461" d="M123 720q17 -30 47.5 -44.5t64.5 -14.5t62.5 15t43.5 44l60 -27q-3 -24 -16.5 -47.5t-35.5 -41.5t-51.5 -29t-63.5 -11q-66 0 -113 33.5t-61 90.5z" />
<glyph unicode="&#x2d9;" horiz-adv-x="286" d="M60 641q0 29 21.5 49.5t59.5 20.5t61.5 -20.5t23.5 -49.5t-23.5 -48.5t-61.5 -19.5t-59.5 19.5t-21.5 48.5z" />
<glyph unicode="&#x2da;" horiz-adv-x="342" d="M60 647q0 42 28.5 69t82.5 27q51 0 81 -24.5t30 -71.5q0 -39 -29.5 -66.5t-81.5 -27.5q-53 0 -82 25.5t-29 68.5zM132 647q0 -16 12 -24.5t27 -8.5q17 0 28 8t11 25t-11.5 25.5t-27.5 8.5q-15 0 -27 -8t-12 -26z" />
<glyph unicode="&#x2db;" horiz-adv-x="350" d="M263 10q-76 -22 -76 -79q0 -18 11 -30.5t31 -12.5q18 0 42 12l19 -62q-15 -12 -47.5 -23.5t-67.5 -11.5q-56 0 -85.5 25t-29.5 66t27.5 70t75.5 46h100z" />
<glyph unicode="&#x2dc;" horiz-adv-x="452" d="M60 658q31 37 57.5 51t50.5 14q20 0 38.5 -7t36.5 -15t35 -15t35 -7q14 0 28.5 6t30.5 21l20 -70q-29 -32 -53.5 -44t-47.5 -12q-20 0 -39 6.5t-37 14.5t-36 14.5t-36 6.5q-15 0 -31 -6.5t-33 -22.5z" />
<glyph unicode="&#x2dd;" horiz-adv-x="459" d="M95 700h119v-16l-76 -113h-78zM273 700h126v-16l-118 -113h-81z" />
<glyph unicode="&#x301;" horiz-adv-x="0" d="M-252 720h132v-30l-111 -124h-74z" />
<glyph unicode="&#x394;" horiz-adv-x="585" d="M12 0v71l241 634h79l243 -634v-71h-563zM158 116h270l-112 298l-23 100h-5l-24 -101z" />
<glyph unicode="&#x3a9;" horiz-adv-x="778" d="M58 110h105l85 -13v28l-46 9q-30 14 -56 37t-45.5 56t-30.5 75.5t-11 94.5q0 73 23.5 131.5t67 99.5t104.5 63.5t135 22.5q78 0 139.5 -23.5t103.5 -65.5t64.5 -101t22.5 -131q0 -52 -12 -93.5t-31.5 -73.5t-45 -54.5t-52.5 -36.5l-49 -10v-28l85 13h106v-110h-300v203 q26 4 53.5 17t50 35.5t37 56t14.5 80.5q0 37 -10 73t-32 64.5t-57.5 45.5t-87.5 17q-89 0 -137 -51t-48 -152q0 -45 14 -78.5t36 -56t49.5 -35t54.5 -16.5v-203h-299v110z" />
<glyph unicode="&#x3bc;" horiz-adv-x="569" d="M182 500v-273q0 -64 20.5 -96.5t71.5 -32.5q46 0 74 23t40 64v315h130v-337q0 -41 2.5 -82.5t12.5 -80.5h-96l-32 74h-4q-17 -35 -50 -60.5t-86 -25.5q-39 0 -60 14t-39 36h-5l21 -105v-133h-130v700h130z" />
<glyph unicode="&#x3c0;" horiz-adv-x="696" d="M566 156q0 -28 9 -39t23 -11q10 0 22.5 2t21.5 4l20 -90q-20 -9 -51.5 -18.5t-76.5 -9.5q-56 0 -77 30t-21 82v284h-140v-390h-130v390h-14q-18 0 -31.5 -10t-25.5 -34l-76 48q19 51 56.5 78.5t90.5 27.5h483v-110h-83v-234z" />
<glyph unicode="&#x401;" horiz-adv-x="522" d="M60 700h415v-122h-278v-163h253v-122h-253v-171h283v-122h-420v700zM82 798q0 26 18 42t58 16q39 0 57 -16t18 -42t-18 -41.5t-57 -15.5q-40 0 -58 15.5t-18 41.5zM296 798q0 26 18 42t57 16q40 0 58 -16t18 -42t-18 -41.5t-58 -15.5q-39 0 -57 15.5t-18 41.5z" />
<glyph unicode="&#x402;" horiz-adv-x="740" d="M353 0h-137v578h-205v122h546v-122h-204v-143q16 6 50 14t88 8q39 0 76.5 -10t67.5 -35.5t48.5 -69t18.5 -110.5q0 -116 -57 -177.5t-184 -61.5q-28 0 -41.5 1t-21.5 3v117q7 -2 23.5 -2.5t33.5 -0.5q50 0 76.5 29t26.5 86q0 34 -9 55.5t-25 33.5t-38 16t-48 4 q-23 0 -48.5 -6t-36.5 -12v-317z" />
<glyph unicode="&#x403;" horiz-adv-x="458" d="M467 578h-270v-578h-137v700h407v-122zM292 870h159v-30l-160 -88h-103z" />
<glyph unicode="&#x404;" horiz-adv-x="577" d="M549 29q-15 -11 -37.5 -19.5t-48 -13.5t-52.5 -7.5t-53 -2.5q-65 0 -123 19.5t-101.5 63t-69.5 113t-26 168.5q0 103 29 172.5t75.5 112t104 61t115.5 18.5q60 0 105 -8t72 -19l-26 -119q-23 11 -58.5 17.5t-80.5 6.5q-35 0 -66.5 -10.5t-56 -32.5t-42 -55t-24.5 -78h275 v-112h-278q11 -89 62.5 -142.5t139.5 -53.5q45 0 80 9t57 22z" />
<glyph unicode="&#x405;" horiz-adv-x="530" d="M362 188q0 32 -23.5 52t-59 36.5t-77 34t-77 43t-59 63.5t-23.5 97q0 51 17 88.5t48.5 62.5t74.5 37t96 12q61 0 115 -10.5t89 -30.5l-43 -115q-22 14 -66 25.5t-95 11.5q-48 0 -73.5 -19t-25.5 -51q0 -30 23.5 -50t59 -37t77 -35t77 -43.5t59 -63t23.5 -93.5 t-18.5 -96.5t-52 -67.5t-81 -40t-104.5 -13q-75 0 -132 14t-84 28l44 117q11 -6 28.5 -13t39.5 -13t46.5 -10t50.5 -4q61 0 93.5 20.5t32.5 62.5z" />
<glyph unicode="&#x406;" horiz-adv-x="285" d="M74 700h137v-700h-137v700z" />
<glyph unicode="&#x407;" horiz-adv-x="296" d="M19 792q0 31 15.5 47.5t44.5 16.5q28 0 43.5 -16.5t15.5 -47.5q0 -30 -15.5 -46t-43.5 -16q-29 0 -44.5 16t-15.5 46zM159 792q0 31 15.5 47.5t43.5 16.5q29 0 44.5 -16.5t15.5 -47.5q0 -30 -15.5 -46t-44.5 -16q-28 0 -43.5 16t-15.5 46zM79 700h137v-700h-137v700z" />
<glyph unicode="&#x408;" horiz-adv-x="334" d="M131 700h137v-512q0 -40 -9 -76t-29.5 -63.5t-52.5 -44t-78 -16.5q-29 0 -63 6t-59 17l30 112q26 -13 59 -13q42 0 53.5 31t11.5 82v477z" />
<glyph unicode="&#x409;" horiz-adv-x="935" d="M426 578h-149q-4 -95 -9 -173t-13.5 -140.5t-22.5 -110.5t-36 -83q-14 -23 -31.5 -38t-36.5 -24t-37.5 -12.5t-34.5 -3.5q-23 0 -38.5 3.5t-30.5 10.5l15 118q6 -2 12 -3t12 -1q16 0 31.5 8t26.5 27q15 22 26 64.5t19.5 108.5t13.5 157.5t7 213.5h413v-251q5 1 16.5 2.5 t25 2.5t27.5 2t26 1q49 0 95 -10t81.5 -35.5t56.5 -69t21 -110.5q0 -120 -74.5 -181t-213.5 -61q-12 0 -30 0.5t-39.5 1.5t-45.5 3t-46 5h-37v578zM631 112q28 0 53 5.5t44 19t29.5 35.5t10.5 54q0 34 -11.5 55.5t-30 33.5t-43.5 16t-52 4q-7 0 -17 -1l-20 -2t-18.5 -2.5 t-12.5 -2.5v-209q11 -3 29.5 -4.5t38.5 -1.5z" />
<glyph unicode="&#x40a;" horiz-adv-x="962" d="M453 305h-256v-305h-137v700h137v-273h256v273h137v-266q5 1 16.5 2.5t25 2.5t27.5 2t26 1q49 0 95 -9t81.5 -33t56.5 -66t21 -109q0 -120 -74 -177.5t-214 -57.5q-14 0 -38 1t-51.5 2.5t-56.5 4t-52 5.5v302zM658 112q31 0 56.5 5t43.5 17.5t27.5 33t9.5 51.5 q0 32 -10 51.5t-28 30.5t-43.5 15t-55.5 4q-7 0 -17 -1l-20 -2t-18.5 -3t-12.5 -3v-193q11 -3 29.5 -4.5t38.5 -1.5z" />
<glyph unicode="&#x40b;" horiz-adv-x="758" d="M353 0h-137v578h-205v122h546v-122h-204v-177q25 15 68.5 28t103.5 13q42 0 77 -11t60.5 -34t39.5 -60t14 -89v-248h-137v206q0 60 -24 89.5t-78 29.5q-38 0 -71 -8.5t-53 -25.5v-291z" />
<glyph unicode="&#x40c;" horiz-adv-x="620" d="M233 299h-36v-299h-137v700h137v-310l32 14l193 296h156l-204 -294l-54 -38l56 -39l233 -329h-169zM318 870h159v-30l-160 -88h-103z" />
<glyph unicode="&#x40e;" horiz-adv-x="568" d="M294 391l20 -91h6l16 94l105 306h141l-186 -484q-22 -57 -42.5 -99t-44 -69.5t-52.5 -41t-68 -13.5q-33 0 -53.5 4.5t-44.5 19.5l35 111q17 -9 31 -11t30 -2q47 0 66 74l-262 511h161zM228 874q4 -32 23.5 -46t50.5 -14q67 0 74 59l111 -17q-11 -63 -57.5 -92t-128.5 -29 q-41 0 -75 6t-59.5 19.5t-42 36.5t-20.5 57z" />
<glyph unicode="&#x40f;" horiz-adv-x="639" d="M60 0v700h137v-578h245v578h137v-700h-200l-15 -175h-88l-20 175h-196z" />
<glyph unicode="&#x410;" horiz-adv-x="605" d="M405 155h-215l-53 -155h-137l252 705h101l252 -705h-144zM225 265h150l-52 156l-21 110h-5l-21 -111z" />
<glyph unicode="&#x411;" horiz-adv-x="570" d="M60 700h431v-122h-294v-146q17 3 41.5 6t48.5 3q56 0 103 -11t80.5 -36.5t52.5 -67t19 -101.5q0 -59 -19.5 -103t-56 -73t-88 -44t-115.5 -15q-17 0 -42.5 1t-54 3t-56.5 5t-50 8v693zM273 103q26 0 48.5 6.5t39.5 20t27 34.5t10 51q0 36 -11 58t-30 34.5t-43.5 16.5 t-52.5 4q-14 0 -35 -2.5t-29 -4.5v-213q11 -3 33.5 -4t42.5 -1z" />
<glyph unicode="&#x412;" horiz-adv-x="591" d="M531 537q0 -26 -6.5 -52t-21.5 -47.5t-39 -38t-58 -24.5v-6q30 -5 57 -17t47 -33t31.5 -51t11.5 -71q0 -54 -23 -93.5t-61.5 -64.5t-87.5 -37t-101 -12h-43.5t-57 1.5t-62 4.5t-57.5 9v690q19 3 43.5 6t52.5 5t57.5 3t58.5 1q49 0 95.5 -7.5t83 -26.5t58.5 -53t22 -86z M281 103q25 0 48.5 6t41.5 18.5t29 31.5t11 45q0 33 -13 52t-34 29.5t-47 13.5t-52 3h-73v-193q5 -2 16 -3t23.5 -1.5t26 -1t23.5 -0.5zM236 406q14 0 32.5 1t30.5 3q38 12 65.5 36t27.5 63q0 26 -10 43t-26.5 27t-37.5 14t-44 4q-26 0 -48 -1t-34 -3v-187h44z" />
<glyph unicode="&#x413;" horiz-adv-x="458" d="M467 578h-270v-578h-137v700h407v-122z" />
<glyph unicode="&#x414;" horiz-adv-x="691" d="M674 -125h-97l-15 125h-450l-15 -125h-97v247h74q7 11 23 49t32 107.5t27 174t10 247.5h419v-578h89v-247zM448 122v456h-155q-6 -178 -28.5 -291.5t-45.5 -164.5h229z" />
<glyph unicode="&#x415;" horiz-adv-x="522" d="M60 700h415v-122h-278v-163h253v-122h-253v-171h283v-122h-420v700z" />
<glyph unicode="&#x416;" horiz-adv-x="839" d="M350 700h130v-311l35 14l145 297h154l-163 -307l-47 -34l57 -42l184 -317h-165l-161 304h-39v-304h-130v316l-36 -14l-161 -302h-160l183 307l54 39l-52 37l-171 317h159l145 -299h39v299z" />
<glyph unicode="&#x417;" horiz-adv-x="526" d="M120 310v107h24h22t26.5 0.5t26.5 2t21 3.5q35 8 60 28.5t25 55.5q0 48 -30.5 65.5t-80.5 17.5q-45 0 -84 -12t-59 -23l-35 116q11 6 31.5 13t47 13.5t57.5 10.5t63 4q44 0 86 -8t75 -28t53 -53.5t20 -85.5t-27.5 -96t-88.5 -64v-5q65 -13 101.5 -56t36.5 -115 q0 -57 -23 -97.5t-60.5 -66.5t-86.5 -38.5t-100 -12.5q-66 0 -120 11t-83 26l35 119q23 -11 66 -22.5t102 -11.5q22 0 44.5 5.5t40.5 18t29 32.5t11 48q0 47 -35 71t-125 26q-12 1 -18 1h-21h-27z" />
<glyph unicode="&#x418;" horiz-adv-x="666" d="M468 388l8 91h-5l-47 -94l-261 -385h-103v700h137v-381l-10 -94h6l49 97l261 378h102v-700h-137v388z" />
<glyph unicode="&#x419;" horiz-adv-x="666" d="M468 388l8 91h-5l-47 -94l-261 -385h-103v700h137v-381l-10 -94h6l49 97l261 378h102v-700h-137v388zM273 874q4 -32 23.5 -46t50.5 -14q67 0 74 59l111 -17q-11 -63 -57.5 -92t-128.5 -29q-41 0 -75 6t-59.5 19.5t-42 36.5t-20.5 57z" />
<glyph unicode="&#x41a;" horiz-adv-x="620" d="M233 299h-36v-299h-137v700h137v-310l32 14l193 296h156l-204 -294l-54 -38l56 -39l233 -329h-169z" />
<glyph unicode="&#x41b;" horiz-adv-x="623" d="M426 578h-149q-4 -95 -9 -173t-13.5 -140.5t-22.5 -110.5t-36 -83q-14 -23 -31.5 -38t-36.5 -24t-37.5 -12.5t-34.5 -3.5q-23 0 -38.5 3.5t-30.5 10.5l15 118q6 -2 12 -3t12 -1q16 0 31.5 8t26.5 27q15 22 26 64.5t19.5 108.5t13.5 157.5t7 213.5h413v-700h-137v578z" />
<glyph unicode="&#x41c;" horiz-adv-x="800" d="M603 363l15 139h-6l-43 -112l-149 -261h-44l-157 262l-44 111h-5l20 -138v-364h-130v700h125l187 -320l33 -80h4l30 82l177 318h124v-700h-137v363z" />
<glyph unicode="&#x41d;" horiz-adv-x="651" d="M453 293h-256v-293h-137v700h137v-285h256v285h137v-700h-137v293z" />
<glyph unicode="&#x41e;" horiz-adv-x="670" d="M38 350q0 175 77 269.5t220 94.5q75 0 131 -26t93 -74t55 -115t18 -149q0 -175 -77.5 -269.5t-219.5 -94.5q-76 0 -132 26t-92.5 74t-54.5 115t-18 149zM182 350q0 -53 9 -97.5t27.5 -76.5t47.5 -50t69 -18q73 0 113 57t40 185q0 51 -8.5 95t-26.5 77t-47 51.5t-71 18.5 q-73 0 -113 -58.5t-40 -183.5z" />
<glyph unicode="&#x41f;" horiz-adv-x="639" d="M442 578h-245v-578h-137v700h519v-700h-137v578z" />
<glyph unicode="&#x420;" horiz-adv-x="572" d="M60 693q42 8 92.5 12.5t100.5 4.5q52 0 104.5 -8.5t94.5 -34t68.5 -71t26.5 -118.5q0 -66 -23 -111.5t-61 -74.5t-86.5 -42t-100.5 -13h-16t-23 0.5t-23.5 1.5t-16.5 2v-241h-137v693zM264 592q-20 0 -38 -1.5t-29 -3.5v-227q4 -1 12 -2t17 -1.5t17.5 -0.5h12.5 q27 0 53.5 5t47.5 18.5t33.5 37.5t12.5 63q0 33 -12 54.5t-31.5 34.5t-44.5 18t-51 5z" />
<glyph unicode="&#x421;" horiz-adv-x="559" d="M534 29q-32 -23 -81.5 -33t-101.5 -10q-63 0 -119.5 19.5t-99.5 63t-68.5 113t-25.5 168.5q0 103 28.5 172.5t74 112t101.5 61t112 18.5q60 0 101.5 -8t68.5 -19l-27 -116q-23 11 -54.5 16t-76.5 5q-83 0 -133.5 -59t-50.5 -183q0 -54 12 -98.5t36.5 -76t61 -49 t84.5 -17.5q45 0 76 9t54 23z" />
<glyph unicode="&#x422;" horiz-adv-x="568" d="M557 578h-204v-578h-137v578h-205v122h546v-122z" />
<glyph unicode="&#x423;" horiz-adv-x="568" d="M294 391l20 -91h6l16 94l105 306h141l-186 -484q-22 -57 -42.5 -99t-44 -69.5t-52.5 -41t-68 -13.5q-33 0 -53.5 4.5t-44.5 19.5l35 111q17 -9 31 -11t30 -2q47 0 66 74l-262 511h161z" />
<glyph unicode="&#x424;" horiz-adv-x="802" d="M334 76q-19 -3 -39 -4t-43 -1q-48 0 -89 16.5t-71.5 51t-48 87t-17.5 124.5q0 68 17.5 121.5t50 91t77.5 57.5t100 20q13 0 32 -1t31 -4v85h134v-88q19 5 43.5 6.5t39.5 1.5q49 0 90 -17.5t71.5 -53t47.5 -88t16 -121.5q1 -71 -18 -125t-52 -90.5t-76.5 -55t-93.5 -18.5 q-16 0 -34.5 1.5t-33.5 5.5v-98h-134v96zM519 530q-10 -1 -27 -2t-29 -4v-340q9 -2 21.5 -2t23.5 -1q28 1 52 11t42 32t28 55t9 80q1 80 -31 125t-89 46zM287 182q8 0 24.5 0.5t27.5 4.5v339q-10 2 -23 2.5t-24 0.5q-55 0 -92 -42.5t-37 -135.5q0 -81 34 -125t90 -44z" />
<glyph unicode="&#x425;" horiz-adv-x="633" d="M225 356l-195 344h165l108 -202l24 -71l23 71l113 202h149l-202 -337l212 -363h-163l-123 216l-27 74l-26 -74l-124 -216h-149z" />
<glyph unicode="&#x426;" horiz-adv-x="682" d="M665 -125h-97l-15 125h-493v700h137v-578h241v578h137v-578h90v-247z" />
<glyph unicode="&#x427;" horiz-adv-x="606" d="M183 700v-222q0 -60 23.5 -89.5t77.5 -29.5q38 0 71.5 8.5t53.5 25.5v307h137v-700h-137v282q-26 -15 -69.5 -27.5t-103.5 -12.5q-42 0 -76.5 10.5t-60 34t-39.5 60t-14 88.5v265h137z" />
<glyph unicode="&#x428;" horiz-adv-x="861" d="M60 0v700h137v-578h165v578h137v-578h165v578h137v-700h-741z" />
<glyph unicode="&#x429;" horiz-adv-x="911" d="M60 0v700h137v-578h165v578h137v-578h165v578h137v-578h92v-247h-96l-15 125h-722z" />
<glyph unicode="&#x42a;" horiz-adv-x="664" d="M155 578h-159v122h296v-251q5 1 16.5 2.5t25 2.5t28 2t26.5 1q49 0 94.5 -10t81 -35.5t56.5 -69t21 -110.5q0 -120 -74 -181t-214 -61q-14 0 -38 0.5t-51.5 2.5t-56 5t-52.5 9v571zM360 112q28 0 53 5.5t44 19t29.5 35.5t10.5 54q0 34 -11.5 55.5t-30 33.5t-43.5 16 t-52 4q-7 0 -17 -1l-20 -2t-18.5 -2.5t-12.5 -2.5v-209q11 -3 29.5 -4.5t38.5 -1.5z" />
<glyph unicode="&#x42b;" horiz-adv-x="798" d="M600 700h137v-700h-137v700zM60 700h137v-251q11 2 35 5t47 3q50 0 95.5 -10t79.5 -35.5t54 -69t20 -109.5q0 -122 -71 -182.5t-211 -60.5q-14 0 -36 0.5t-47.5 2.5t-52.5 5t-50 9v693zM256 112q57 0 92.5 26.5t35.5 88.5q0 33 -10 54t-27 33t-40 16.5t-50 4.5 q-14 0 -33 -2.5t-27 -5.5v-209q11 -3 26.5 -4.5t32.5 -1.5z" />
<glyph unicode="&#x42c;" horiz-adv-x="569" d="M60 700h137v-251q5 1 16.5 2.5t25 2.5t27.5 2t26 1q49 0 95 -10t81.5 -35.5t56.5 -69t21 -110.5q0 -120 -74.5 -181t-213.5 -61q-14 0 -37.5 0.5t-51.5 2.5t-56.5 5t-52.5 9v693zM265 112q28 0 53 5.5t44 19t29.5 35.5t10.5 54q0 34 -11.5 55.5t-30 33.5t-43.5 16t-52 4 q-7 0 -17 -1l-20 -2t-18.5 -2.5t-12.5 -2.5v-209q11 -3 29.5 -4.5t38.5 -1.5z" />
<glyph unicode="&#x42d;" horiz-adv-x="574" d="M130 410h269q-3 40 -16.5 73.5t-36.5 57.5t-57 37.5t-77 13.5q-54 0 -94 -11.5t-65 -25.5l-29 116q35 18 88 30.5t105 12.5q69 0 127.5 -19t101 -62.5t66.5 -113t24 -169.5q0 -104 -28 -174t-75 -112t-108 -60t-127 -18q-57 0 -103.5 10t-74.5 23l36 119q23 -11 62 -20.5 t90 -9.5q39 0 72 11t58.5 34.5t41.5 59.5t20 87h-270v110z" />
<glyph unicode="&#x42e;" horiz-adv-x="897" d="M197 415h93q13 143 84 221t199 78q76 0 130 -26t88.5 -74t51 -115t16.5 -149q0 -175 -72 -269.5t-214 -94.5q-66 0 -116.5 22t-85.5 62t-55 97t-26 126h-93v-293h-137v700h137v-285zM430 350q0 -53 7.5 -97.5t24 -76.5t44 -50t67.5 -18q73 0 107.5 57t34.5 185 q0 51 -6.5 95t-22.5 77t-43.5 51.5t-69.5 18.5q-72 0 -107.5 -58.5t-35.5 -183.5z" />
<glyph unicode="&#x42f;" horiz-adv-x="580" d="M519 0h-137v277l-72 -19l-146 -258h-159l144 233l60 43q-32 8 -60 24.5t-49 42.5t-33 61.5t-12 80.5q0 63 22 106t61 69.5t93 38t117 11.5q17 0 39 -1t45.5 -3t46 -5t40.5 -8v-693zM331 588q-27 0 -51 -5t-42 -17t-28.5 -33t-10.5 -54q0 -31 10 -52.5t28 -35t42 -19.5 t52 -6h51v217q-11 2 -22.5 3.5t-28.5 1.5z" />
<glyph unicode="&#x430;" horiz-adv-x="496" d="M54 471q40 18 95 28.5t115 10.5q52 0 87 -12.5t55.5 -35.5t29 -55t8.5 -72q0 -44 -3 -88.5t-3.5 -87.5t2.5 -83.5t15 -76.5h-106l-21 69h-5q-20 -31 -55.5 -53.5t-91.5 -22.5q-35 0 -63 10.5t-48 30t-31 46t-11 59.5q0 46 20.5 77.5t59 51t92 27t119.5 4.5q7 56 -8 80.5 t-67 24.5q-39 0 -82.5 -8t-71.5 -21zM219 99q39 0 62 17.5t34 37.5v65q-31 3 -59.5 1t-50.5 -9t-35 -20t-13 -33q0 -28 16.5 -43.5t45.5 -15.5z" />
<glyph unicode="&#x431;" horiz-adv-x="537" d="M142 406q29 44 68.5 63.5t95.5 19.5q91 0 144.5 -55.5t53.5 -172.5q0 -135 -61 -205t-172 -70q-116 0 -177 77t-61 240q0 86 10 147t28.5 103t44 67t57 39.5t67.5 20.5t76 10q52 5 89 12.5t55 24.5l5 -116q-20 -17 -57 -23.5t-100 -11.5q-38 -2 -67 -9t-50 -25 t-33.5 -50.5t-18.5 -85.5h3zM167 244q0 -64 25 -106t77 -42q54 0 77.5 38t23.5 110q0 65 -22 100t-73 35q-55 0 -81.5 -36t-26.5 -99z" />
<glyph unicode="&#x432;" horiz-adv-x="505" d="M57 499q35 3 84.5 6t106.5 3q110 0 156.5 -31.5t46.5 -94.5q0 -35 -20 -68t-63 -48v-4q54 -12 78 -42.5t24 -78.5q0 -75 -57.5 -112t-184.5 -37q-42 0 -89 2.5t-82 6.5v498zM184 100q14 -2 26 -3t30 -1q54 0 77 15t23 46q0 26 -19.5 42.5t-69.5 16.5h-67v-116zM253 296 q32 0 52.5 15.5t20.5 39.5q0 26 -17.5 39.5t-63.5 13.5q-23 0 -36.5 -1t-24.5 -2v-105h69z" />
<glyph unicode="&#x433;" horiz-adv-x="376" d="M380 385h-189v-385h-134v500h323v-115z" />
<glyph unicode="&#x434;" horiz-adv-x="568" d="M554 -114h-95l-15 114h-336l-15 -114h-95v229h59q8 11 20.5 37.5t25 72.5t21.5 114t9 161h348v-385h73v-229zM351 109v281h-105q-2 -36 -7 -76.5t-12.5 -78.5t-17.5 -71t-22 -55h164z" />
<glyph unicode="&#x435;" horiz-adv-x="508" d="M457 43q-30 -24 -81.5 -40.5t-109.5 -16.5q-121 0 -177 70.5t-56 193.5q0 132 63 198t177 66q38 0 74 -10t64 -33t45 -62t17 -97q0 -21 -2.5 -45t-7.5 -50h-300q3 -63 32.5 -95t95.5 -32q41 0 73.5 12.5t49.5 25.5zM271 410q-51 0 -75.5 -30.5t-29.5 -81.5h186 q4 54 -16.5 83t-64.5 29z" />
<glyph unicode="&#x436;" horiz-adv-x="693" d="M242 203l-102 -203h-146l131 229l34 30l-51 38l-103 203h139l93 -203h43v203h124v-213l38 14l94 199h138l-109 -203l-39 -32l51 -40l121 -225h-149l-102 207h-43v-207h-124v217z" />
<glyph unicode="&#x437;" horiz-adv-x="432" d="M109 207v91h61q35 0 57.5 14t22.5 37q0 27 -20 38.5t-61 11.5q-39 0 -69 -10t-48 -21l-28 99q30 17 79.5 29.5t105.5 12.5q86 0 128.5 -32t42.5 -93q0 -17 -4.5 -34.5t-14.5 -33.5t-24.5 -28.5t-34.5 -19.5v-4q53 -12 75 -42.5t22 -81.5q0 -32 -13 -59.5t-39.5 -47.5 t-66.5 -32t-95 -12t-95.5 11.5t-67.5 26.5l28 101q23 -13 55.5 -21t72.5 -8q91 0 91 58q0 26 -23.5 38t-87.5 12h-49z" />
<glyph unicode="&#x438;" horiz-adv-x="545" d="M358 228l5 71h-3l-43 -73l-178 -226h-82v500h130v-238l-6 -68h4l41 71l180 235h82v-500h-130v228z" />
<glyph unicode="&#x439;" horiz-adv-x="545" d="M358 228l5 71h-3l-43 -73l-178 -226h-82v500h130v-238l-6 -68h4l41 71l180 235h82v-500h-130v228zM219 704q7 -39 23.5 -55t42.5 -16q28 0 44.5 16t22.5 54l99 -25q-12 -65 -59 -96.5t-110 -31.5q-31 0 -60 7t-52 22.5t-39 39.5t-22 59z" />
<glyph unicode="&#x43a;" horiz-adv-x="489" d="M222 207h-35v-207h-130v500h130v-213l31 14l117 199h139l-121 -190l-51 -38l56 -39l135 -233h-149z" />
<glyph unicode="&#x43b;" horiz-adv-x="515" d="M329 385h-99q-6 -71 -14 -141t-25.5 -125.5t-47.5 -90t-78 -34.5q-58 0 -82 15l16 108q16 -6 30 -6q20 0 35 17t25.5 61t17 119.5t9.5 191.5h343v-500h-130v385z" />
<glyph unicode="&#x43c;" horiz-adv-x="666" d="M485 229l8 104h-5l-40 -86l-94 -155h-47l-103 155l-38 86h-6l13 -103v-230h-116v500h135l115 -188l28 -63h4l29 65l106 186h136v-500h-125v229z" />
<glyph unicode="&#x43d;" horiz-adv-x="537" d="M350 197h-163v-197h-130v500h130v-188h163v188h130v-500h-130v197z" />
<glyph unicode="&#x43e;" horiz-adv-x="537" d="M33 250q0 127 62 195.5t174 68.5q60 0 104 -19t73 -53.5t43.5 -83.5t14.5 -108q0 -127 -61.5 -195.5t-173.5 -68.5q-60 0 -104 19t-73.5 53.5t-44 83.5t-14.5 108zM167 250q0 -33 6 -61t18 -49t31.5 -32.5t46.5 -11.5q51 0 76 37t25 117q0 69 -23 111.5t-78 42.5 q-48 0 -75 -36t-27 -118z" />
<glyph unicode="&#x43f;" horiz-adv-x="532" d="M345 385h-158v-385h-130v500h418v-500h-130v385z" />
<glyph unicode="&#x440;" horiz-adv-x="540" d="M57 500h95l15 -60h4q26 38 61.5 56t86.5 18q94 0 141 -59.5t47 -191.5q0 -64 -15 -115.5t-44.5 -87.5t-72 -55t-97.5 -19q-31 0 -51 4.5t-40 14.5v-205h-130v700zM280 404q-38 0 -59.5 -19t-33.5 -57v-208q14 -11 30.5 -17.5t43.5 -6.5q56 0 84 39.5t28 130.5 q0 66 -22 102t-71 36z" />
<glyph unicode="&#x441;" horiz-adv-x="433" d="M411 31q-30 -22 -72.5 -33.5t-87.5 -11.5q-60 0 -101.5 19t-67.5 53.5t-37.5 83.5t-11.5 108q0 127 57 195.5t166 68.5q55 0 88.5 -9t60.5 -23l-31 -106q-23 11 -45.5 17t-51.5 6q-54 0 -82 -35.5t-28 -113.5q0 -32 7 -59t21 -47t36.5 -31.5t52.5 -11.5q33 0 56 8.5 t41 20.5z" />
<glyph unicode="&#x442;" horiz-adv-x="418" d="M417 385h-141v-385h-134v385h-141v115h416v-115z" />
<glyph unicode="&#x443;" horiz-adv-x="478" d="M239 219l18 -78h6l13 79l76 280h134l-152 -451q-19 -56 -36.5 -102.5t-38.5 -80.5t-46.5 -52.5t-60.5 -18.5q-52 0 -83 17l24 104q15 -6 30 -6q23 0 44.5 19.5t32.5 70.5l-209 500h156z" />
<glyph unicode="&#x444;" horiz-adv-x="700" d="M286 -6q-17 -6 -35.5 -7t-33.5 -1q-91 0 -140 65t-49 199q0 128 54 194t156 66q28 0 48 -4v194h128v-195q18 3 32 4t27 1q99 0 149 -58.5t50 -191.5q0 -63 -13.5 -113.5t-39.5 -86.5t-63.5 -55t-86.5 -19q-9 0 -26.5 1.5t-28.5 5.5v-193h-128v194zM444 407 q-10 0 -17.5 -1.5t-18.5 -3.5v-310q8 -2 18.5 -2.5t22.5 -0.5q48 0 70.5 39.5t22.5 131.5q0 78 -22 112.5t-76 34.5zM251 89q11 0 20.5 1.5t20.5 3.5v309q-19 4 -39 4q-46 0 -70.5 -35.5t-24.5 -121.5q0 -78 22.5 -119.5t70.5 -41.5z" />
<glyph unicode="&#x445;" horiz-adv-x="525" d="M170 256l-150 244h155l65 -107l28 -70l30 70l68 107h141l-151 -240l161 -260h-151l-77 120l-30 74l-32 -74l-77 -120h-142z" />
<glyph unicode="&#x446;" horiz-adv-x="559" d="M545 -114h-95l-15 114h-378v500h130v-385h155v385h130v-385h73v-229z" />
<glyph unicode="&#x447;" horiz-adv-x="505" d="M163 500v-114q0 -31 2.5 -53.5t10 -37t21 -21.5t35.5 -7q29 0 50.5 7t35.5 17v209h130v-500h-130v196q-15 -11 -46 -24.5t-83 -13.5q-37 0 -66 8t-49 28t-30.5 53t-10.5 83v170h130z" />
<glyph unicode="&#x448;" horiz-adv-x="754" d="M57 0v500h130v-385h125v385h130v-385h125v385h130v-500h-640z" />
<glyph unicode="&#x449;" horiz-adv-x="783" d="M769 -114h-94l-15 114h-603v500h130v-385h125v385h130v-385h125v385h130v-385h72v-229z" />
<glyph unicode="&#x44a;" horiz-adv-x="539" d="M235 109q28 -6 57 -6q48 0 70 16.5t22 51.5q0 65 -89 65q-35 0 -60 -7v-120zM235 322q24 4 49 5.5t45 1.5q52 0 88 -11.5t58.5 -32.5t32.5 -49.5t10 -61.5q0 -91 -54.5 -136t-182.5 -45q-57 0 -99 2t-77 5v385h-110v115h240v-178z" />
<glyph unicode="&#x44b;" horiz-adv-x="703" d="M187 109q30 -6 57 -6q45 0 63 16.5t18 51.5q0 32 -18 48.5t-60 16.5q-33 0 -60 -7v-120zM187 322q24 4 48.5 5.5t44.5 1.5q51 0 85 -11.5t55 -32.5t30 -49.5t9 -61.5q0 -45 -12 -79t-39 -56.5t-70 -34t-106 -11.5q-57 0 -98.5 2t-76.5 5v500h130v-178zM516 500h130v-500 h-130v500z" />
<glyph unicode="&#x44c;" horiz-adv-x="490" d="M187 109q30 -6 57 -6q48 0 69.5 16.5t21.5 51.5q0 65 -88 65q-33 0 -60 -7v-120zM187 322q24 4 48.5 5.5t44.5 1.5q52 0 88 -11.5t58.5 -32.5t32.5 -49.5t10 -61.5q0 -91 -54 -136t-183 -45q-57 0 -98.5 2t-76.5 5v500h130v-178z" />
<glyph unicode="&#x44d;" horiz-adv-x="459" d="M109 300h186q-5 50 -33 77t-83 27q-38 0 -67 -9t-51 -21l-35 94q66 46 178 46t167 -66.5t55 -197.5q0 -132 -62 -198t-170 -66q-47 0 -95 9.5t-76 26.5l32 102q23 -13 54.5 -20.5t63.5 -7.5q64 0 91 27t32 84h-187v93z" />
<glyph unicode="&#x44e;" horiz-adv-x="734" d="M480 -14q-56 0 -95.5 15t-65 43t-39 68t-17.5 90h-76v-202h-130v500h130v-188h77q10 97 61.5 149.5t156.5 52.5q57 0 98 -19t68 -53.5t39.5 -83.5t12.5 -108q0 -127 -54 -195.5t-166 -68.5zM387 250q0 -73 20.5 -113.5t72.5 -40.5q46 0 66 34t20 120q0 77 -19 115.5 t-70 38.5q-46 0 -68 -35t-22 -119z" />
<glyph unicode="&#x44f;" horiz-adv-x="503" d="M321 189l-60 -12l-96 -177h-155l97 157l49 37q-49 8 -81 46.5t-32 96.5q0 91 60.5 134t185.5 43q48 0 89.5 -5t72.5 -11v-498h-130v189zM321 257v138q-11 5 -24 7t-25 2q-45 0 -70 -19t-25 -57t27.5 -56t80.5 -17z" />
<glyph unicode="&#x451;" horiz-adv-x="508" d="M457 43q-30 -24 -81.5 -40.5t-109.5 -16.5q-121 0 -177 70.5t-56 193.5q0 132 63 198t177 66q38 0 74 -10t64 -33t45 -62t17 -97q0 -21 -2.5 -45t-7.5 -50h-300q3 -63 32.5 -95t95.5 -32q41 0 73.5 12.5t49.5 25.5zM271 410q-51 0 -75.5 -30.5t-29.5 -81.5h186 q4 54 -16.5 83t-64.5 29zM85 632q0 32 19.5 51t51.5 19t50.5 -19t18.5 -51q0 -30 -18.5 -49t-50.5 -19t-51.5 19t-19.5 49zM304 632q0 32 18.5 51t50.5 19t51.5 -19t19.5 -51q0 -30 -19.5 -49t-51.5 -19t-50.5 19t-18.5 49z" />
<glyph unicode="&#x452;" horiz-adv-x="550" d="M-12 600h74v100h130v-100h161v-80h-161v-130h4q23 32 59 51t90 19q38 0 67 -10t48 -33t28.5 -62.5t9.5 -97.5v-278q0 -91 -36 -139t-115 -48q-30 0 -64 7v109q4 0 7.5 -0.5t7.5 -0.5q43 0 56.5 24.5t13.5 68.5v230q0 61 -16.5 88t-61.5 27q-33 0 -61.5 -22t-36.5 -57 v-266h-130v520h-74v80z" />
<glyph unicode="&#x453;" horiz-adv-x="376" d="M380 385h-189v-385h-134v500h323v-115zM217 720h132v-30l-111 -124h-74z" />
<glyph unicode="&#x454;" horiz-adv-x="457" d="M435 31q-30 -22 -75 -33.5t-90 -11.5q-60 0 -104 19t-72.5 53.5t-42.5 83.5t-14 108q0 63 17 112t48 83t75 51.5t98 17.5t90 -9t63 -23l-30 -106q-23 11 -48.5 17t-54.5 6q-47 0 -80.5 -24t-43.5 -78h196v-88h-197q9 -48 41.5 -78t90.5 -30q34 0 59 8.5t44 20.5z" />
<glyph unicode="&#x455;" horiz-adv-x="422" d="M264 138q0 20 -17 32t-42 22t-55 20.5t-55 29t-42 47t-17 73.5q0 74 44 113t127 39q57 0 103 -12t72 -27l-29 -94q-23 9 -58 19t-71 10q-58 0 -58 -45q0 -18 17 -29t42 -20.5t55 -20.5t55 -28.5t42 -45.5t17 -72q0 -76 -48.5 -119.5t-145.5 -43.5q-53 0 -99.5 13.5 t-75.5 31.5l36 97q23 -13 61 -25.5t78 -12.5q29 0 46.5 11t17.5 37z" />
<glyph unicode="&#x456;" horiz-adv-x="269" d="M68 500h130v-500h-130v500zM52 641q0 29 21.5 49.5t59.5 20.5t61.5 -20.5t23.5 -49.5t-23.5 -48.5t-61.5 -19.5t-59.5 19.5t-21.5 48.5z" />
<glyph unicode="&#x457;" horiz-adv-x="318" d="M21 642q0 31 15.5 50.5t47.5 19.5t47.5 -19.5t15.5 -50.5q0 -30 -15.5 -49.5t-47.5 -19.5t-47.5 19.5t-15.5 49.5zM172 642q0 31 15.5 50.5t47.5 19.5t47.5 -19.5t15.5 -50.5q0 -30 -15.5 -49.5t-47.5 -19.5t-47.5 19.5t-15.5 49.5zM93 500h130v-500h-130v500z" />
<glyph unicode="&#x458;" horiz-adv-x="268" d="M69 500h130v-521q0 -91 -36 -139t-115 -48q-30 0 -64 7v109q4 0 7 -0.5t6 -0.5q45 0 58.5 29t13.5 80v484zM51 641q0 29 21.5 49.5t59.5 20.5t61.5 -20.5t23.5 -49.5t-23.5 -48.5t-61.5 -19.5t-59.5 19.5t-21.5 48.5z" />
<glyph unicode="&#x459;" horiz-adv-x="762" d="M459 322q24 4 48.5 5.5t44.5 1.5q52 0 88 -11.5t58.5 -32.5t32.5 -49.5t10 -61.5q0 -91 -54 -136t-183 -45q-57 0 -98.5 2t-76.5 5v385h-99q-6 -71 -14 -141t-25.5 -125.5t-47.5 -90t-78 -34.5q-58 0 -82 15l16 108q16 -6 30 -6q20 0 35 17t25.5 61t17 119.5t9.5 191.5 h343v-178zM519 236q-35 0 -60 -7v-121q14 -3 28.5 -4t28.5 -1q48 0 69.5 16.5t21.5 51.5q0 65 -88 65z" />
<glyph unicode="&#x45a;" horiz-adv-x="784" d="M480 321q24 4 49 5.5t45 1.5q52 0 88 -11.5t58.5 -32.5t32.5 -49t10 -61q0 -91 -54.5 -136t-182.5 -45q-57 0 -99 2t-77 5v199h-163v-199h-130v500h130v-186h163v186h130v-179zM480 109q28 -6 57 -6q48 0 70 16.5t22 51.5q0 64 -89 64q-35 0 -60 -7v-119z" />
<glyph unicode="&#x45b;" horiz-adv-x="550" d="M-12 600h74v100h130v-100h161v-80h-161v-130h4q23 32 59 51t90 19q38 0 67 -10t48 -33t28.5 -62.5t9.5 -97.5v-257h-130v230q0 61 -16.5 88t-61.5 27q-33 0 -61.5 -22t-36.5 -57v-266h-130v520h-74v80z" />
<glyph unicode="&#x45c;" horiz-adv-x="489" d="M222 207h-35v-207h-130v500h130v-213l31 14l117 199h139l-121 -190l-51 -38l56 -39l135 -233h-149zM244 720h132v-30l-111 -124h-74z" />
<glyph unicode="&#x45e;" horiz-adv-x="478" d="M239 219l18 -78h6l13 79l76 280h134l-152 -451q-19 -56 -36.5 -102.5t-38.5 -80.5t-46.5 -52.5t-60.5 -18.5q-52 0 -83 17l24 104q15 -6 30 -6q23 0 44.5 19.5t32.5 70.5l-209 500h156zM185 704q7 -39 23.5 -55t42.5 -16q28 0 44.5 16t22.5 54l99 -25q-12 -65 -59 -96.5 t-110 -31.5q-31 0 -60 7t-52 22.5t-39 39.5t-22 59z" />
<glyph unicode="&#x45f;" horiz-adv-x="532" d="M57 0v500h130v-385h158v385h130v-500h-148l-15 -175h-88l-20 175h-147z" />
<glyph unicode="&#x462;" horiz-adv-x="651" d="M0 648h142v77h137v-77h200v-115h-200v-90q5 1 16.5 2.5t25 2.5t27.5 2t26 1q49 0 95 -9.5t81.5 -34.5t56.5 -67t21 -108q0 -120 -74.5 -181t-213.5 -61q-14 0 -37.5 0.5t-51.5 2.5t-56.5 5t-52.5 9v526h-142v115zM347 112q28 0 53 5.5t44 19t29.5 35.5t10.5 54 q0 34 -11.5 55.5t-30 33.5t-43.5 16t-52 4q-7 0 -17 -1l-20 -2t-18.5 -2.5t-12.5 -2.5v-209q11 -3 29.5 -4.5t38.5 -1.5z" />
<glyph unicode="&#x463;" horiz-adv-x="539" d="M-5 500h110v200h130v-200h160v-93h-160v-85q24 4 49 5.5t45 1.5q52 0 88 -11.5t58.5 -32.5t32.5 -49.5t10 -61.5q0 -91 -54.5 -136t-182.5 -45q-57 0 -99 2t-77 5v407h-110v93zM235 109q28 -6 57 -6q48 0 70 16.5t22 51.5q0 65 -89 65q-35 0 -60 -7v-120z" />
<glyph unicode="&#x472;" horiz-adv-x="670" d="M38 350q0 175 77 269.5t220 94.5q75 0 131 -26t93 -74t55 -115t18 -149q0 -175 -77.5 -269.5t-219.5 -94.5q-76 0 -132 26t-92.5 74t-54.5 115t-18 149zM488 407q-8 89 -48 137t-105 48q-29 0 -55 -10t-46.5 -32t-34 -57.5t-17.5 -85.5h306zM182 297q8 -95 49 -142 t104 -47q29 0 55.5 9.5t47 31t34 57.5t16.5 91h-306z" />
<glyph unicode="&#x473;" horiz-adv-x="537" d="M33 250q0 127 62 195.5t174 68.5q60 0 104 -19t73 -53.5t43.5 -83.5t14.5 -108q0 -127 -61.5 -195.5t-173.5 -68.5q-60 0 -104 19t-73.5 53.5t-44 83.5t-14.5 108zM370 289q-8 60 -33.5 87.5t-67.5 27.5q-19 0 -36 -6t-30.5 -19.5t-23 -35.5t-12.5 -54h203zM167 207 q6 -54 34 -82.5t68 -28.5q38 0 66.5 24.5t34.5 86.5h-203z" />
<glyph unicode="&#x474;" horiz-adv-x="629" d="M347 -5h-98l-262 705h159l140 -411l18 -119h4l16 120l69 229q16 54 33 90.5t38.5 58.5t48.5 31.5t63 9.5q38 0 62 -6t45 -17l-30 -116q-17 9 -31.5 12t-30.5 3q-23 0 -38 -17.5t-28 -57.5z" />
<glyph unicode="&#x475;" horiz-adv-x="527" d="M289 -5h-79l-217 505h151l93 -262l17 -77h4l15 79l23 71q17 54 32.5 92t34 61.5t42 34t56.5 10.5q24 0 46 -4.5t36 -12.5l-18 -106q-18 9 -34 9q-17 0 -32.5 -14t-31.5 -52z" />
<glyph unicode="&#x48a;" horiz-adv-x="712" d="M468 388l8 91h-5l-47 -94l-261 -385h-103v700h137v-381l-10 -94h6l49 97l261 378h102v-585h117v-31l-96 -214h-94l45 130h-109v388zM260 874q4 -32 23.5 -46t50.5 -14q67 0 74 59l111 -17q-11 -63 -57.5 -92t-128.5 -29q-41 0 -75 6t-59.5 19.5t-42 36.5t-20.5 57z" />
<glyph unicode="&#x48b;" horiz-adv-x="590" d="M358 228l5 71h-3l-43 -73l-178 -226h-82v500h130v-238l-6 -68h4l41 71l180 235h82v-385h107v-31l-96 -198h-94l45 114h-92v228zM219 704q7 -39 23.5 -55t42.5 -16q28 0 44.5 16t22.5 54l99 -25q-12 -65 -59 -96.5t-110 -31.5q-31 0 -60 7t-52 22.5t-39 39.5t-22 59z" />
<glyph unicode="&#x48c;" horiz-adv-x="651" d="M0 648h142v77h137v-77h200v-115h-200v-90q5 1 16.5 2.5t25 2.5t27.5 2t26 1q49 0 95 -9.5t81.5 -34.5t56.5 -67t21 -108q0 -120 -74.5 -181t-213.5 -61q-14 0 -37.5 0.5t-51.5 2.5t-56.5 5t-52.5 9v526h-142v115zM347 112q28 0 53 5.5t44 19t29.5 35.5t10.5 54 q0 34 -11.5 55.5t-30 33.5t-43.5 16t-52 4q-7 0 -17 -1l-20 -2t-18.5 -2.5t-12.5 -2.5v-209q11 -3 29.5 -4.5t38.5 -1.5z" />
<glyph unicode="&#x48d;" horiz-adv-x="539" d="M-5 500h110v200h130v-200h160v-93h-160v-85q24 4 49 5.5t45 1.5q52 0 88 -11.5t58.5 -32.5t32.5 -49.5t10 -61.5q0 -91 -54.5 -136t-182.5 -45q-57 0 -99 2t-77 5v407h-110v93zM235 109q28 -6 57 -6q48 0 70 16.5t22 51.5q0 65 -89 65q-35 0 -60 -7v-120z" />
<glyph unicode="&#x48e;" horiz-adv-x="572" d="M60 693q42 8 92.5 12.5t100.5 4.5q52 0 104.5 -8.5t94.5 -34t68.5 -71t26.5 -118.5q0 -69 -25 -116t-67 -76l64 -91l-79 -58l-77 109q-42 -9 -87 -9h-16t-23 0.5t-23.5 1.5t-16.5 2v-241h-137v693zM303 478l63 -92q17 14 27 36.5t10 57.5q0 33 -12 54.5t-31.5 34.5 t-44.5 18t-51 5q-20 0 -38 -1.5t-29 -3.5v-227q4 -1 12 -2t17 -1.5t17.5 -0.5h12.5q14 0 27 1t26 4l-58 83z" />
<glyph unicode="&#x48f;" horiz-adv-x="540" d="M57 500h95l15 -60h4q26 38 61.5 56t86.5 18q94 0 141 -59.5t47 -191.5q0 -142 -70 -215l47 -56l-73 -61l-55 67q-18 -5 -37.5 -8.5t-40.5 -3.5q-31 0 -51 4.5t-40 14.5v-205h-130v700zM294 193l48 -60q15 21 23 53.5t8 79.5q0 66 -22 102t-71 36q-38 0 -59.5 -19 t-33.5 -57v-208q14 -11 30.5 -17.5t43.5 -6.5q10 0 19.5 1t17.5 4l-47 57z" />
<glyph unicode="&#x490;" horiz-adv-x="458" d="M468 700l-1 -122h-270v-578h-137v700h298l21 152h88v-152h1z" />
<glyph unicode="&#x491;" horiz-adv-x="376" d="M191 385v-385h-134v500h215l21 152h87v-267h-189z" />
<glyph unicode="&#x492;" horiz-adv-x="508" d="M503 578h-270v-191h224v-93h-224v-294h-137v294h-96v93h96v313h407v-122z" />
<glyph unicode="&#x493;" horiz-adv-x="414" d="M406 385h-189v-111h162v-80h-162v-194h-134v194h-83v80h83v226h323v-115z" />
<glyph unicode="&#x494;" horiz-adv-x="582" d="M197 0h-137v700h407v-122h-270v-203q16 6 49.5 14t81.5 8q42 0 81 -11.5t69.5 -40t49 -78t18.5 -125.5q0 -129 -57 -199t-184 -70q-27 0 -40.5 1t-21.5 3v118q7 -2 23.5 -2.5t32.5 -0.5q51 0 77 35t26 109q0 41 -9 68t-25 42.5t-38 22t-47 6.5q-24 0 -49 -6t-37 -12v-257 z" />
<glyph unicode="&#x495;" horiz-adv-x="534" d="M187 0h-130v500h318v-115h-188v-126q16 6 46 13.5t78 7.5q38 0 72.5 -11t60.5 -38t41 -73t15 -116q0 -63 -11.5 -111t-38.5 -80t-70.5 -48t-106.5 -16q-28 0 -41.5 1.5t-21.5 3.5v112q8 -1 24.5 -1.5t32.5 -0.5q98 0 98 132q0 71 -26.5 101t-71.5 30q-23 0 -45.5 -6 t-34.5 -12v-147z" />
<glyph unicode="&#x496;" horiz-adv-x="857" d="M350 700h130v-311l35 14l145 297h154l-163 -307l-47 -34l57 -42l113 -195h78v-247h-96l-15 125h-61l-161 304h-39v-304h-130v316l-36 -14l-161 -302h-160l183 307l54 39l-52 37l-171 317h159l145 -299h39v299z" />
<glyph unicode="&#x497;" horiz-adv-x="727" d="M242 203l-102 -203h-146l131 229l34 30l-51 38l-103 203h139l93 -203h43v203h124v-213l38 14l94 199h138l-109 -203l-39 -32l51 -40l59 -110h84v-229h-95l-15 114h-61l-102 207h-43v-207h-124v217z" />
<glyph unicode="&#x498;" horiz-adv-x="526" d="M120 310v107h24h22t26.5 0.5t26.5 2t21 3.5q35 8 60 28.5t25 55.5q0 48 -30.5 65.5t-80.5 17.5q-45 0 -84 -12t-59 -23l-35 116q11 6 31.5 13t47 13.5t57.5 10.5t63 4q44 0 86 -8t75 -28t53 -53.5t20 -85.5t-27.5 -96t-88.5 -64v-5q65 -13 101.5 -56t36.5 -115 q0 -49 -17.5 -85.5t-46.5 -62.5t-67.5 -41.5t-81.5 -21.5l-14 -165h-88l-19 164q-45 5 -81 14t-58 20l35 119q23 -11 66 -22.5t102 -11.5q22 0 44.5 5.5t40.5 18t29 32.5t11 48q0 47 -35 71t-125 26q-12 1 -18 1h-21h-27z" />
<glyph unicode="&#x499;" horiz-adv-x="432" d="M109 207v91h61q35 0 57.5 14.5t22.5 37.5q0 27 -19.5 38t-60.5 11q-39 0 -69.5 -10.5t-48.5 -21.5l-28 100q30 17 79.5 29.5t105.5 12.5q86 0 128.5 -32t42.5 -93q0 -17 -4.5 -34.5t-14.5 -33.5t-24.5 -28.5t-34.5 -19.5v-4q53 -12 75 -42.5t22 -81.5t-34 -90.5 t-106 -53.5l-14 -171h-88l-19 167q-38 4 -66.5 13.5t-49.5 21.5l28 101q23 -13 56 -21.5t73 -8.5q90 0 90 58q0 26 -23.5 38.5t-87.5 12.5h-49z" />
<glyph unicode="&#x49a;" horiz-adv-x="635" d="M233 299h-36v-299h-137v700h137v-310l32 14l193 296h156l-204 -294l-54 -38l56 -39l146 -207h106v-247h-96l-15 125h-77z" />
<glyph unicode="&#x49b;" horiz-adv-x="527" d="M222 207h-35v-207h-130v500h130v-213l31 14l117 199h139l-121 -190l-51 -38l56 -39l68 -118h93v-229h-95l-15 114h-65z" />
<glyph unicode="&#x49c;" horiz-adv-x="716" d="M251 299h-54v-299h-137v700h137v-310l54 4v133h93v-125l22 2l162 296h148l-171 -294l-54 -38l56 -39l198 -329h-159l-176 299h-26v-127h-93v127z" />
<glyph unicode="&#x49d;" horiz-adv-x="587" d="M229 207h-42v-207h-130v500h130v-213l42 4v120h76v-112l22 2l92 199h136l-96 -190l-53 -38l56 -39l110 -233h-144l-97 207h-26v-118h-76v118z" />
<glyph unicode="&#x49e;" horiz-adv-x="692" d="M0 643h132v57h137v-57h93v-93h-93v-160l54 14l177 296h150l-188 -294l-64 -38l61 -39l222 -329h-169l-196 299h-47v-299h-137v539h-132v104z" />
<glyph unicode="&#x49f;" horiz-adv-x="502" d="M-14 626h82v74h130v-74h153v-80h-153v-259l30 14l114 199h143l-120 -190l-51 -38l55 -39l135 -233h-149l-122 207h-35v-207h-130v546h-82v80z" />
<glyph unicode="&#x4a0;" horiz-adv-x="719" d="M159 578h-159v122h296v-310l32 14l193 296h156l-204 -294l-54 -38l56 -39l233 -329h-169l-207 299h-36v-299h-137v561v17z" />
<glyph unicode="&#x4a1;" horiz-adv-x="540" d="M235 287l32 14l116 199h140l-121 -190l-52 -38l57 -39l134 -233h-149l-121 207h-36v-207h-130v385h-110v115h240v-213z" />
<glyph unicode="&#x4a2;" horiz-adv-x="696" d="M453 293h-256v-293h-137v700h137v-285h256v285h137v-578h88v-247h-96l-15 125h-114v293z" />
<glyph unicode="&#x4a3;" d="M350 197h-163v-197h-130v500h130v-188h163v188h130v-385h78v-229h-95l-15 114h-98v197z" />
<glyph unicode="&#x4a4;" horiz-adv-x="851" d="M860 578h-270v-578h-137v293h-256v-293h-137v700h137v-285h256v285h407v-122z" />
<glyph unicode="&#x4a5;" horiz-adv-x="664" d="M668 385h-188v-385h-130v197h-163v-197h-130v500h130v-188h163v188h318v-115z" />
<glyph unicode="&#x4a6;" horiz-adv-x="962" d="M579 228v-228h-137v578h-245v-578h-137v700h519v-325q16 6 49.5 14t81.5 8q42 0 81 -11.5t69.5 -40t49 -78t18.5 -125.5q0 -129 -57 -199t-184 -70q-27 0 -40.5 1t-21.5 3v118q7 -2 23.5 -2.5t32.5 -0.5q51 0 77 35t26 109q0 41 -9 68t-25 42.5t-38 22t-48 6.5 q-23 0 -48 -6t-37 -12v-29z" />
<glyph unicode="&#x4a7;" horiz-adv-x="822" d="M475 0h-130v385h-158v-385h-130v500h418v-241q16 6 46 13.5t78 7.5q36 0 70 -11t60.5 -38t42.5 -73t16 -116q0 -63 -12 -111t-38.5 -80t-70 -48t-106.5 -16q-28 0 -41.5 1.5t-21.5 3.5v112q8 -1 24.5 -1.5t32.5 -0.5q98 0 98 132q0 71 -26.5 101t-71.5 30q-23 0 -46 -6 t-35 -12z" />
<glyph unicode="&#x4a8;" horiz-adv-x="876" d="M355 592q-80 0 -126.5 -58t-46.5 -176q0 -58 17.5 -104.5t45.5 -78.5t63.5 -49.5t71.5 -17.5q11 0 23.5 1t20.5 5q-23 15 -43.5 39.5t-35.5 57.5t-23.5 72.5t-8.5 83.5q0 76 18.5 134t52 98t80.5 60.5t105 20.5q63 0 109.5 -21.5t76.5 -59.5t44.5 -89.5t14.5 -111.5 q0 -56 -13 -103.5t-33.5 -84.5t-45.5 -62.5t-48 -37.5q5 -1 11.5 -1.5t12.5 -0.5q30 0 57 8.5t46 21.5l42 -107q-22 -22 -56.5 -33.5t-88.5 -11.5q-20 0 -41 3t-41.5 9t-38 15t-30.5 21q-33 -23 -73.5 -35.5t-94.5 -12.5q-81 0 -144 25t-107 72t-67 114.5t-23 152.5 q0 175 80.5 269.5t236.5 94.5v-122zM457 371q0 -30 6.5 -61.5t20 -60.5t32.5 -53.5t45 -42.5q23 16 43 40.5t34.5 55t23 67t8.5 76.5q0 34 -5 64.5t-17 53t-31.5 35.5t-48.5 13q-51 0 -81 -46t-30 -141z" />
<glyph unicode="&#x4a9;" horiz-adv-x="709" d="M272 404q-56 -4 -81 -39.5t-25 -110.5q0 -36 10 -65t27 -50t41 -32t52 -11q8 0 20 2t19 7q-27 20 -47 63t-20 100q0 39 10 80t33.5 74.5t62.5 55.5t96 22q55 0 92.5 -17t60 -45.5t32.5 -66t10 -79.5q0 -34 -9 -65t-23 -57t-32 -45.5t-36 -30.5q22 -9 50 -3.5t47 23.5 l30 -89q-20 -18 -48.5 -28.5t-72.5 -10.5q-41 0 -72 11.5t-52 30.5q-32 -23 -72.5 -32.5t-84.5 -9.5q-62 0 -110 19t-81 53.5t-50 83.5t-17 108q0 58 13 105t42 81.5t74.5 54.5t110.5 23v-110zM394 268q0 -45 17.5 -81t47.5 -60q32 21 52 62.5t20 95.5q0 45 -16.5 75 t-48.5 30q-22 0 -36 -10t-22 -26.5t-11 -38.5t-3 -47z" />
<glyph unicode="&#x4aa;" horiz-adv-x="559" d="M534 29q-24 -17 -58.5 -26.5t-72.5 -13.5l-14 -164h-88l-19 168q-51 9 -95.5 34t-77.5 68.5t-52 106.5t-19 148q0 103 28.5 172.5t74 112t101.5 61t112 18.5q60 0 101.5 -8t68.5 -19l-27 -116q-23 11 -54.5 16t-76.5 5q-83 0 -133.5 -59t-50.5 -183q0 -54 12 -98.5 t36.5 -76t61 -49t84.5 -17.5q45 0 76 9t54 23z" />
<glyph unicode="&#x4ab;" horiz-adv-x="433" d="M411 31q-38 -27 -94 -38l-14 -168h-88l-19 166q-45 8 -76 30t-50.5 55.5t-28 77.5t-8.5 96q0 127 57 195.5t166 68.5q55 0 88.5 -9t60.5 -23l-31 -106q-23 11 -45.5 17t-51.5 6q-54 0 -82 -35.5t-28 -113.5q0 -32 7 -59t21 -47t36.5 -31.5t52.5 -11.5q33 0 56 8.5 t41 20.5z" />
<glyph unicode="&#x4ac;" horiz-adv-x="568" d="M216 578h-205v122h546v-122h-204v-456h87v-247h-96l-15 125h-113v578z" />
<glyph unicode="&#x4ad;" horiz-adv-x="418" d="M142 385h-141v115h416v-115h-141v-270h84v-229h-95l-15 114h-108v385z" />
<glyph unicode="&#x4ae;" horiz-adv-x="592" d="M228 260l-230 440h163l128 -263l14 -74h5l15 76l124 261h147l-229 -439v-261h-137v260z" />
<glyph unicode="&#x4af;" horiz-adv-x="491" d="M-7 500h151l93 -297l18 -93h4l14 95l85 295h140l-181 -501v-199h-130v199z" />
<glyph unicode="&#x4b0;" horiz-adv-x="592" d="M73 294h137l-212 406h163l128 -263l14 -74h5l15 76l124 261h147l-212 -406h138v-91h-155v-203h-137v203h-155v91z" />
<glyph unicode="&#x4b1;" horiz-adv-x="491" d="M67 0h119l-193 500h151l93 -297l18 -93h4l14 95l85 295h140l-181 -500h120v-80h-120v-120h-130v120h-120v80z" />
<glyph unicode="&#x4b2;" horiz-adv-x="667" d="M225 356l-195 344h165l108 -202l24 -71l23 71l113 202h149l-202 -337l140 -241h110v-247h-96l-15 125h-90l-123 216l-27 74l-26 -74l-124 -216h-149z" />
<glyph unicode="&#x4b3;" horiz-adv-x="542" d="M170 256l-150 244h155l65 -107l28 -70l30 70l68 107h141l-151 -240l90 -145h89v-229h-95l-15 114h-59l-77 120l-30 74l-32 -74l-77 -120h-142z" />
<glyph unicode="&#x4b4;" horiz-adv-x="838" d="M820 -125h-97l-15 125h-493v578h-204v122h483v-122h-142v-456h241v578h137v-578h90v-247z" />
<glyph unicode="&#x4b5;" horiz-adv-x="647" d="M631 -114h-95l-15 114h-379v385h-141v115h376v-115h-105v-270h156v385h130v-385h73v-229z" />
<glyph unicode="&#x4b6;" horiz-adv-x="651" d="M409 282q-26 -15 -69.5 -27.5t-103.5 -12.5q-42 0 -76.5 10.5t-60 34t-39.5 60t-14 88.5v265h137v-222q0 -60 23.5 -89.5t77.5 -29.5q38 0 71.5 8.5t53.5 25.5v307h137v-578h87v-247h-96l-15 125h-113v282z" />
<glyph unicode="&#x4b7;" horiz-adv-x="546" d="M163 500v-114q0 -31 2.5 -53.5t10 -37t21 -21.5t35.5 -7q29 0 50.5 7t35.5 17v209h130v-385h84v-229h-95l-15 114h-104v196q-15 -11 -46 -24.5t-83 -13.5q-37 0 -66 8t-49 28t-30.5 53t-10.5 83v170h130z" />
<glyph unicode="&#x4b8;" horiz-adv-x="645" d="M272 243q-8 -1 -15 -1h-15q-44 0 -80 10.5t-62 34t-40 60t-14 88.5v265h137v-222q0 -57 20.5 -86t68.5 -33v118h93v-112q25 5 46.5 11.5t35.5 16.5v307h137v-700h-137v282q-27 -16 -82 -28v-132h-93v121z" />
<glyph unicode="&#x4b9;" horiz-adv-x="536" d="M223 159q-9 -1 -17.5 -1h-17.5q-37 0 -66 8t-49 28t-30.5 53t-10.5 83v170h130v-114q0 -56 12 -84.5t49 -33.5v118h76v-113q34 6 51 18v209h130v-500h-130v196q-15 -11 -51 -22v-115h-76v100z" />
<glyph unicode="&#x4ba;" horiz-adv-x="606" d="M423 0v222q0 60 -23.5 89.5t-77.5 29.5q-38 0 -71.5 -8.5t-53.5 -25.5v-307h-137v700h137v-282q26 15 69.5 27.5t103.5 12.5q42 0 76.5 -10.5t60 -34t39.5 -60t14 -88.5v-265h-137z" />
<glyph unicode="&#x4bb;" horiz-adv-x="545" d="M363 0v284q0 61 -17 88t-62 27q-33 0 -60.5 -22.5t-36.5 -57.5v-319h-130v700h130v-256h4q24 32 59 51t89 19q38 0 67 -10t48.5 -33t29 -62.5t9.5 -97.5v-311h-130z" />
<glyph unicode="&#x4bc;" horiz-adv-x="794" d="M343 293q3 -40 15.5 -74t35.5 -59t57.5 -38.5t81.5 -13.5q45 0 82.5 13.5t70.5 35.5l35 -116q-45 -26 -98 -40.5t-115 -14.5q-137 0 -215.5 78t-86.5 229h-32q-50 1 -83 13.5t-53.5 33.5t-29 48.5t-8.5 56.5q2 49 24 76h115q-12 -14 -16.5 -31t-3.5 -31q0 -8 3 -18 t12 -18t26 -13t46 -2q4 69 24.5 125.5t55.5 96.5t86 62t117 22q134 0 200.5 -76.5t66.5 -222.5q0 -28 -2.5 -58t-7.5 -64h-403zM622 408q3 19 3 39q0 31 -7.5 58.5t-24 48.5t-41.5 33.5t-59 12.5q-73 0 -110 -49.5t-40 -142.5h279z" />
<glyph unicode="&#x4bd;" horiz-adv-x="647" d="M596 43q-30 -24 -81.5 -40.5t-109.5 -16.5q-110 0 -166.5 59t-65.5 163h-7q-77 0 -118.5 35t-41.5 101v7q1 27 8 43t21 33h109q-14 -12 -22 -28.5t-8 -40.5q0 -20 12.5 -34t49.5 -14q14 102 75 153t161 51q38 0 74 -10t64 -33t45 -62t17 -97q0 -21 -2.5 -45t-7.5 -50 h-299q3 -63 32 -95t95 -32q41 0 73.5 12.5t49.5 25.5zM410 410q-51 0 -74.5 -30.5t-28.5 -81.5h184q0 4 0.5 8t0.5 8q0 46 -20.5 71t-61.5 25z" />
<glyph unicode="&#x4be;" horiz-adv-x="794" d="M343 293q3 -40 15.5 -74t35.5 -59t57.5 -38.5t81.5 -13.5q45 0 82.5 13.5t70.5 35.5l35 -116q-37 -21 -78 -34t-88 -18l-14 -164h-88l-19 168q-104 19 -163 94.5t-65 205.5h-32q-50 1 -83 13.5t-53.5 33.5t-29 48.5t-8.5 56.5q2 49 24 76h115q-12 -14 -16.5 -31t-3.5 -31 q0 -8 3 -18t12 -18t26 -13t46 -2q4 69 24.5 125.5t55.5 96.5t86 62t117 22q134 0 200.5 -76.5t66.5 -222.5q0 -28 -2.5 -58t-7.5 -64h-403zM622 408q3 19 3 39q0 31 -7.5 58.5t-24 48.5t-41.5 33.5t-59 12.5q-73 0 -110 -49.5t-40 -142.5h279z" />
<glyph unicode="&#x4bf;" horiz-adv-x="647" d="M596 43q-23 -18 -56.5 -31.5t-74.5 -20.5l-14 -166h-88l-19 167q-80 15 -121.5 71t-49.5 145h-7q-77 0 -118.5 35t-41.5 101v7q1 27 8 43t21 33h109q-14 -12 -22 -28.5t-8 -40.5q0 -20 12.5 -34t49.5 -14q14 102 75 153t161 51q38 0 74 -10t64 -33t45 -62t17 -97 q0 -21 -2.5 -45t-7.5 -50h-299q3 -63 32 -95t95 -32q41 0 73.5 12.5t49.5 25.5zM410 410q-51 0 -74.5 -30.5t-28.5 -81.5h184q0 4 0.5 8t0.5 8q0 46 -20.5 71t-61.5 25z" />
<glyph unicode="&#x4c0;" horiz-adv-x="285" d="M74 700h137v-700h-137v700z" />
<glyph unicode="&#x4c3;" horiz-adv-x="611" d="M424 76q0 49 -10 90.5t-33 70.5t-59.5 45.5t-88.5 16.5h-36v-299h-137v700h137v-310l32 14l193 296h156l-197 -280l-61 -40h52q48 -12 82.5 -34t56.5 -56t32.5 -82.5t10.5 -113.5v-27q0 -140 -56.5 -207t-152.5 -67q-29 0 -60 6v111h15q63 0 93.5 39t30.5 127z" />
<glyph unicode="&#x4c4;" horiz-adv-x="501" d="M338 27q0 87 -28 128.5t-88 46.5h-35v-202h-130v500h130v-217l31 14l117 203h139l-122 -197l-46 -32l41 -2q39 -11 62.5 -34t36.5 -53.5t17.5 -66t4.5 -70.5v-17q0 -123 -46.5 -180t-131.5 -57q-15 0 -31.5 1.5t-33.5 5.5v110q6 -1 12 -1.5t11 -0.5q90 0 90 121z" />
<glyph unicode="&#x4c5;" horiz-adv-x="651" d="M426 578h-149q-4 -95 -9 -173t-13.5 -140.5t-22.5 -110.5t-36 -83q-14 -23 -31.5 -38t-36.5 -24t-37.5 -12.5t-34.5 -3.5q-23 0 -38.5 3.5t-30.5 10.5l15 118q6 -2 12 -3t12 -1q16 0 31.5 8t26.5 27q15 22 26 64.5t19.5 108.5t13.5 157.5t7 213.5h413v-585h98v-31 l-96 -214h-94l45 130h-90v578z" />
<glyph unicode="&#x4c6;" horiz-adv-x="550" d="M329 385h-99q-6 -71 -14 -141t-25.5 -125.5t-47.5 -90t-78 -34.5q-58 0 -82 15l16 108q16 -6 30 -6q20 0 35 17t25.5 61t17 119.5t9.5 191.5h343v-385h95v-31l-96 -198h-94l45 114h-80v385z" />
<glyph unicode="&#x4c7;" horiz-adv-x="651" d="M590 -21q0 -91 -36 -139t-114 -48q-14 0 -30.5 1.5t-33.5 5.5v109q4 0 7.5 -0.5t7.5 -0.5q21 0 33.5 6t19 18t8 29.5t1.5 39.5v293h-256v-293h-137v700h137v-285h256v285h137v-721z" />
<glyph unicode="&#x4c8;" horiz-adv-x="537" d="M350 197h-163v-197h-130v500h130v-188h163v188h130v-521q0 -91 -36 -139t-115 -48q-30 0 -64 7v109q4 0 7.5 -0.5t7.5 -0.5q43 0 56.5 24.5t13.5 68.5v197z" />
<glyph unicode="&#x4c9;" horiz-adv-x="683" d="M453 293h-256v-293h-137v700h137v-285h256v285h137v-585h103v-31l-96 -214h-94l45 130h-95v293z" />
<glyph unicode="&#x4ca;" horiz-adv-x="576" d="M350 197h-163v-197h-130v500h130v-188h163v188h130v-385h101v-31l-96 -198h-94l45 114h-86v197z" />
<glyph unicode="&#x4cb;" horiz-adv-x="606" d="M183 700v-222q0 -60 23.5 -89.5t77.5 -29.5q38 0 71.5 8.5t53.5 25.5v307h137v-700h-112l-15 -125h-96v247h86v160q-26 -15 -69.5 -27.5t-103.5 -12.5q-42 0 -76.5 10.5t-60 34t-39.5 60t-14 88.5v265h137z" />
<glyph unicode="&#x4cc;" horiz-adv-x="505" d="M318 207q-15 -11 -46 -22t-83 -11q-74 0 -115 38.5t-41 128.5v159h130v-103q0 -28 2.5 -49t10 -35.5t21 -21.5t35.5 -7q29 0 50.5 7t35.5 17v192h130v-500h-120l-15 -114h-95v212h100v109z" />
<glyph unicode="&#x4cd;" horiz-adv-x="846" d="M603 363l15 139h-6l-43 -112l-149 -261h-44l-157 262l-44 111h-5l20 -138v-364h-130v700h125l187 -320l33 -80h4l30 82l177 318h124v-585h116v-31l-96 -214h-94l45 130h-108v363z" />
<glyph unicode="&#x4ce;" horiz-adv-x="710" d="M485 229l8 104h-5l-40 -86l-94 -155h-47l-103 155l-38 86h-6l13 -103v-230h-116v500h135l115 -188l28 -63h4l29 65l106 186h136v-385h105v-31l-96 -198h-94l45 114h-85v229z" />
<glyph unicode="&#x4cf;" horiz-adv-x="262" d="M66 700h130v-700h-130v700z" />
<glyph unicode="&#x4d0;" horiz-adv-x="605" d="M405 155h-215l-53 -155h-137l252 705h101l252 -705h-144zM225 265h150l-52 156l-21 110h-5l-21 -111zM229 874q4 -32 23.5 -46t50.5 -14q67 0 74 59l111 -17q-11 -63 -57.5 -92t-128.5 -29q-41 0 -75 6t-59.5 19.5t-42 36.5t-20.5 57z" />
<glyph unicode="&#x4d1;" horiz-adv-x="496" d="M54 471q40 18 95 28.5t115 10.5q52 0 87 -12.5t55.5 -35.5t29 -55t8.5 -72q0 -44 -3 -88.5t-3.5 -87.5t2.5 -83.5t15 -76.5h-106l-21 69h-5q-20 -31 -55.5 -53.5t-91.5 -22.5q-35 0 -63 10.5t-48 30t-31 46t-11 59.5q0 46 20.5 77.5t59 51t92 27t119.5 4.5q7 56 -8 80.5 t-67 24.5q-39 0 -82.5 -8t-71.5 -21zM219 99q39 0 62 17.5t34 37.5v65q-31 3 -59.5 1t-50.5 -9t-35 -20t-13 -33q0 -28 16.5 -43.5t45.5 -15.5zM187 704q7 -39 23.5 -55t42.5 -16q28 0 44.5 16t22.5 54l99 -25q-12 -65 -59 -96.5t-110 -31.5q-31 0 -60 7t-52 22.5t-39 39.5 t-22 59z" />
<glyph unicode="&#x4d2;" horiz-adv-x="605" d="M405 155h-215l-53 -155h-137l252 705h101l252 -705h-144zM225 265h150l-52 156l-21 110h-5l-21 -111zM119 798q0 26 18 42t58 16q39 0 57 -16t18 -42t-18 -41.5t-57 -15.5q-40 0 -58 15.5t-18 41.5zM333 798q0 26 18 42t57 16q40 0 58 -16t18 -42t-18 -41.5t-58 -15.5 q-39 0 -57 15.5t-18 41.5z" />
<glyph unicode="&#x4d3;" horiz-adv-x="496" d="M54 471q40 18 95 28.5t115 10.5q52 0 87 -12.5t55.5 -35.5t29 -55t8.5 -72q0 -44 -3 -88.5t-3.5 -87.5t2.5 -83.5t15 -76.5h-106l-21 69h-5q-20 -31 -55.5 -53.5t-91.5 -22.5q-35 0 -63 10.5t-48 30t-31 46t-11 59.5q0 46 20.5 77.5t59 51t92 27t119.5 4.5q7 56 -8 80.5 t-67 24.5q-39 0 -82.5 -8t-71.5 -21zM219 99q39 0 62 17.5t34 37.5v65q-31 3 -59.5 1t-50.5 -9t-35 -20t-13 -33q0 -28 16.5 -43.5t45.5 -15.5zM67 632q0 32 19.5 51t51.5 19t50.5 -19t18.5 -51q0 -30 -18.5 -49t-50.5 -19t-51.5 19t-19.5 49zM286 632q0 32 18.5 51t50.5 19 t51.5 -19t19.5 -51q0 -30 -19.5 -49t-51.5 -19t-50.5 19t-18.5 49z" />
<glyph unicode="&#x4d4;" horiz-adv-x="862" d="M394 532l-36 -103l-84 -148h126v251h-6zM400 170h-186l-99 -170h-144l424 700h419v-122h-277v-163h252v-122h-252v-171h282v-122h-419v170z" />
<glyph unicode="&#x4d5;" horiz-adv-x="785" d="M219 99q39 0 62 17.5t34 37.5v65q-31 3 -59.5 1t-50.5 -9t-35 -20t-13 -33q0 -28 16.5 -43.5t45.5 -15.5zM350 76q-27 -34 -66.5 -59t-107.5 -25q-35 0 -63 10.5t-48 30t-31 46t-11 59.5q0 46 20.5 77.5t58.5 51t91.5 27t119.5 4.5q7 56 -7.5 80.5t-66.5 24.5 q-39 0 -79.5 -10.5t-71.5 -25.5l-34 94q38 20 94 34.5t116 14.5q52 0 83 -13.5t51 -40.5q25 28 65 43t87 15q38 0 74 -10t64 -33t45 -62t17 -97q0 -21 -2.5 -44.5t-7.5 -50.5h-301q4 -63 33.5 -95t95.5 -32q41 0 73.5 12.5t49.5 25.5l43 -85q-30 -24 -81.5 -40.5 t-109.5 -16.5q-64 0 -112.5 23.5t-75.5 66.5h-5zM548 410q-51 0 -75.5 -30.5t-29.5 -81.5h187q3 54 -17 83t-65 29z" />
<glyph unicode="&#x4d6;" horiz-adv-x="522" d="M60 700h415v-122h-278v-163h253v-122h-253v-171h283v-122h-420v700zM198 874q4 -32 23.5 -46t50.5 -14q67 0 74 59l111 -17q-11 -63 -57.5 -92t-128.5 -29q-41 0 -75 6t-59.5 19.5t-42 36.5t-20.5 57z" />
<glyph unicode="&#x4d7;" horiz-adv-x="508" d="M457 43q-30 -24 -81.5 -40.5t-109.5 -16.5q-121 0 -177 70.5t-56 193.5q0 132 63 198t177 66q38 0 74 -10t64 -33t45 -62t17 -97q0 -21 -2.5 -45t-7.5 -50h-300q3 -63 32.5 -95t95.5 -32q41 0 73.5 12.5t49.5 25.5zM271 410q-51 0 -75.5 -30.5t-29.5 -81.5h186 q4 54 -16.5 83t-64.5 29zM199 704q7 -39 23.5 -55t42.5 -16q28 0 44.5 16t22.5 54l99 -25q-12 -65 -59 -96.5t-110 -31.5q-31 0 -60 7t-52 22.5t-39 39.5t-22 59z" />
<glyph unicode="&#x4d8;" horiz-adv-x="630" d="M184 296q-3 -20 -3 -38q0 -31 7.5 -59.5t23 -50.5t39.5 -35.5t58 -13.5q70 0 107.5 50t37.5 147h-270zM455 409q-6 87 -49 135t-133 48q-52 0 -92 -15.5t-63 -29.5l-29 117q15 9 37.5 18t50 16t58 11.5t61.5 4.5q69 0 124 -20.5t93.5 -65t58.5 -113.5t20 -165 q0 -85 -16.5 -152.5t-52 -114.5t-90 -72t-130.5 -25q-68 0 -118 22t-83 62t-49 96t-16 124q0 28 2.5 57.5t7.5 61.5h408z" />
<glyph unicode="&#x4d9;" horiz-adv-x="508" d="M50 457q30 24 81.5 40.5t109.5 16.5q60 0 104 -19t72.5 -53.5t42.5 -83.5t14 -108q0 -127 -62 -195.5t-169 -68.5q-39 0 -76.5 11t-67 36t-47.5 66.5t-18 101.5q0 42 10 91h303q-5 62 -34.5 90t-95.5 28q-41 0 -72.5 -14.5t-48.5 -26.5zM242 90q50 0 75.5 34.5t26.5 86.5 h-189q-5 -54 18.5 -87.5t68.5 -33.5z" />
<glyph unicode="&#x4da;" horiz-adv-x="630" d="M184 296q-3 -20 -3 -38q0 -31 7.5 -59.5t23 -50.5t39.5 -35.5t58 -13.5q70 0 107.5 50t37.5 147h-270zM455 409q-6 87 -49 135t-133 48q-52 0 -92 -15.5t-63 -29.5l-29 117q15 9 37.5 18t50 16t58 11.5t61.5 4.5q69 0 124 -20.5t93.5 -65t58.5 -113.5t20 -165 q0 -85 -16.5 -152.5t-52 -114.5t-90 -72t-130.5 -25q-68 0 -118 22t-83 62t-49 96t-16 124q0 28 2.5 57.5t7.5 61.5h408zM127 798q0 26 18 42t58 16q39 0 57 -16t18 -42t-18 -41.5t-57 -15.5q-40 0 -58 15.5t-18 41.5zM341 798q0 26 18 42t57 16q40 0 58 -16t18 -42 t-18 -41.5t-58 -15.5q-39 0 -57 15.5t-18 41.5z" />
<glyph unicode="&#x4db;" horiz-adv-x="508" d="M49 457q30 24 81.5 40.5t109.5 16.5q60 0 104 -19t72.5 -53.5t42.5 -83.5t14 -108q0 -127 -62 -195.5t-169 -68.5q-39 0 -76.5 11t-67 36t-47.5 66.5t-18 101.5q0 42 10 91h303q-5 62 -34.5 90t-95.5 28q-41 0 -72.5 -14.5t-48.5 -26.5zM241 90q50 0 75.5 34.5t26.5 86.5 h-189q-5 -54 18.5 -87.5t68.5 -33.5zM64 632q0 32 19.5 51t51.5 19t50.5 -19t18.5 -51q0 -30 -18.5 -49t-50.5 -19t-51.5 19t-19.5 49zM283 632q0 32 18.5 51t50.5 19t51.5 -19t19.5 -51q0 -30 -19.5 -49t-51.5 -19t-50.5 19t-18.5 49z" />
<glyph unicode="&#x4dc;" horiz-adv-x="839" d="M350 700h130v-311l35 14l145 297h154l-163 -307l-47 -34l57 -42l184 -317h-165l-161 304h-39v-304h-130v316l-36 -14l-161 -302h-160l183 307l54 39l-52 37l-171 317h159l145 -299h39v299zM235 798q0 26 18 42t58 16q39 0 57 -16t18 -42t-18 -41.5t-57 -15.5 q-40 0 -58 15.5t-18 41.5zM449 798q0 26 18 42t57 16q40 0 58 -16t18 -42t-18 -41.5t-58 -15.5q-39 0 -57 15.5t-18 41.5z" />
<glyph unicode="&#x4dd;" horiz-adv-x="693" d="M242 203l-102 -203h-146l131 229l34 30l-51 38l-103 203h139l93 -203h43v203h124v-213l38 14l94 199h138l-109 -203l-39 -32l51 -40l121 -225h-149l-102 207h-43v-207h-124v217zM165 632q0 32 19.5 51t51.5 19t50.5 -19t18.5 -51q0 -30 -18.5 -49t-50.5 -19t-51.5 19 t-19.5 49zM384 632q0 32 18.5 51t50.5 19t51.5 -19t19.5 -51q0 -30 -19.5 -49t-51.5 -19t-50.5 19t-18.5 49z" />
<glyph unicode="&#x4de;" horiz-adv-x="526" d="M120 310v107h24h22t26.5 0.5t26.5 2t21 3.5q35 8 60 28.5t25 55.5q0 48 -30.5 65.5t-80.5 17.5q-45 0 -84 -12t-59 -23l-35 116q11 6 31.5 13t47 13.5t57.5 10.5t63 4q44 0 86 -8t75 -28t53 -53.5t20 -85.5t-27.5 -96t-88.5 -64v-5q65 -13 101.5 -56t36.5 -115 q0 -57 -23 -97.5t-60.5 -66.5t-86.5 -38.5t-100 -12.5q-66 0 -120 11t-83 26l35 119q23 -11 66 -22.5t102 -11.5q22 0 44.5 5.5t40.5 18t29 32.5t11 48q0 47 -35 71t-125 26q-12 1 -18 1h-21h-27zM58 798q0 26 18 42t58 16q39 0 57 -16t18 -42t-18 -41.5t-57 -15.5 q-40 0 -58 15.5t-18 41.5zM272 798q0 26 18 42t57 16q40 0 58 -16t18 -42t-18 -41.5t-58 -15.5q-39 0 -57 15.5t-18 41.5z" />
<glyph unicode="&#x4df;" horiz-adv-x="432" d="M109 207v91h61q35 0 57.5 14t22.5 37q0 27 -20 38.5t-61 11.5q-39 0 -69 -10t-48 -21l-28 99q30 17 79.5 29.5t105.5 12.5q86 0 128.5 -32t42.5 -93q0 -17 -4.5 -34.5t-14.5 -33.5t-24.5 -28.5t-34.5 -19.5v-4q53 -12 75 -42.5t22 -81.5q0 -32 -13 -59.5t-39.5 -47.5 t-66.5 -32t-95 -12t-95.5 11.5t-67.5 26.5l28 101q23 -13 55.5 -21t72.5 -8q91 0 91 58q0 26 -23.5 38t-87.5 12h-49zM19 632q0 32 19.5 51t51.5 19t50.5 -19t18.5 -51q0 -30 -18.5 -49t-50.5 -19t-51.5 19t-19.5 49zM238 632q0 32 18.5 51t50.5 19t51.5 -19t19.5 -51 q0 -30 -19.5 -49t-51.5 -19t-50.5 19t-18.5 49z" />
<glyph unicode="&#x4e0;" horiz-adv-x="548" d="M222 108q30 0 56 7t45.5 21t30.5 34t11 47q0 57 -44 80t-129 23h-81v58l156 174l45 43l-59 -12h-207v117h431v-75l-170 -188l-45 -32v-4l46 10q44 0 80.5 -12.5t62.5 -36.5t40.5 -60.5t14.5 -84.5q0 -54 -19.5 -96.5t-55.5 -72.5t-86.5 -46t-113.5 -16q-22 0 -49 2.5 t-54 7t-52 12t-42 17.5l32 120q14 -8 32.5 -14.5t39.5 -11.5t42.5 -8t41.5 -3z" />
<glyph unicode="&#x4e1;" horiz-adv-x="484" d="M191 -102q59 0 96 28.5t37 80.5q0 111 -160 111h-64v53l117 177l54 49l-73 -7h-171v110h396v-70l-139 -185l-40 -29v-2l31 3q34 0 66.5 -13.5t57.5 -38.5t40 -61t15 -81q0 -55 -19.5 -98.5t-55 -74t-85.5 -46.5t-111 -16q-45 0 -90 10t-83 32l46 103q27 -14 59.5 -24.5 t75.5 -10.5z" />
<glyph unicode="&#x4e2;" horiz-adv-x="666" d="M468 388l8 91h-5l-47 -94l-261 -385h-103v700h137v-381l-10 -94h6l49 97l261 378h102v-700h-137v388zM166 856h343v-89h-343v89z" />
<glyph unicode="&#x4e3;" horiz-adv-x="545" d="M358 228l5 71h-3l-43 -73l-178 -226h-82v500h130v-238l-6 -68h4l41 71l180 235h82v-500h-130v228zM114 658h323v-92h-323v92z" />
<glyph unicode="&#x4e4;" horiz-adv-x="666" d="M468 388l8 91h-5l-47 -94l-261 -385h-103v700h137v-381l-10 -94h6l49 97l261 378h102v-700h-137v388zM150 798q0 26 18 42t58 16q39 0 57 -16t18 -42t-18 -41.5t-57 -15.5q-40 0 -58 15.5t-18 41.5zM364 798q0 26 18 42t57 16q40 0 58 -16t18 -42t-18 -41.5t-58 -15.5 q-39 0 -57 15.5t-18 41.5z" />
<glyph unicode="&#x4e5;" horiz-adv-x="545" d="M358 228l5 71h-3l-43 -73l-178 -226h-82v500h130v-238l-6 -68h4l41 71l180 235h82v-500h-130v228zM103 632q0 32 19.5 51t51.5 19t50.5 -19t18.5 -51q0 -30 -18.5 -49t-50.5 -19t-51.5 19t-19.5 49zM322 632q0 32 18.5 51t50.5 19t51.5 -19t19.5 -51q0 -30 -19.5 -49 t-51.5 -19t-50.5 19t-18.5 49z" />
<glyph unicode="&#x4e6;" horiz-adv-x="670" d="M38 350q0 175 77 269.5t220 94.5q75 0 131 -26t93 -74t55 -115t18 -149q0 -175 -77.5 -269.5t-219.5 -94.5q-76 0 -132 26t-92.5 74t-54.5 115t-18 149zM182 350q0 -53 9 -97.5t27.5 -76.5t47.5 -50t69 -18q73 0 113 57t40 185q0 51 -8.5 95t-26.5 77t-47 51.5t-71 18.5 q-73 0 -113 -58.5t-40 -183.5zM152 798q0 26 18 42t58 16q39 0 57 -16t18 -42t-18 -41.5t-57 -15.5q-40 0 -58 15.5t-18 41.5zM366 798q0 26 18 42t57 16q40 0 58 -16t18 -42t-18 -41.5t-58 -15.5q-39 0 -57 15.5t-18 41.5z" />
<glyph unicode="&#x4e7;" horiz-adv-x="537" d="M33 250q0 127 62 195.5t174 68.5q60 0 104 -19t73 -53.5t43.5 -83.5t14.5 -108q0 -127 -61.5 -195.5t-173.5 -68.5q-60 0 -104 19t-73.5 53.5t-44 83.5t-14.5 108zM167 250q0 -33 6 -61t18 -49t31.5 -32.5t46.5 -11.5q51 0 76 37t25 117q0 69 -23 111.5t-78 42.5 q-48 0 -75 -36t-27 -118zM88 632q0 32 19.5 51t51.5 19t50.5 -19t18.5 -51q0 -30 -18.5 -49t-50.5 -19t-51.5 19t-19.5 49zM307 632q0 32 18.5 51t50.5 19t51.5 -19t19.5 -51q0 -30 -19.5 -49t-51.5 -19t-50.5 19t-18.5 49z" />
<glyph unicode="&#x4e8;" horiz-adv-x="670" d="M38 350q0 175 77 269.5t220 94.5q75 0 131 -26t93 -74t55 -115t18 -149q0 -175 -77.5 -269.5t-219.5 -94.5q-76 0 -132 26t-92.5 74t-54.5 115t-18 149zM488 407q-8 89 -48 137t-105 48q-29 0 -55 -10t-46.5 -32t-34 -57.5t-17.5 -85.5h306zM182 297q8 -95 49 -142 t104 -47q29 0 55.5 9.5t47 31t34 57.5t16.5 91h-306z" />
<glyph unicode="&#x4e9;" horiz-adv-x="537" d="M33 250q0 127 62 195.5t174 68.5q60 0 104 -19t73 -53.5t43.5 -83.5t14.5 -108q0 -127 -61.5 -195.5t-173.5 -68.5q-60 0 -104 19t-73.5 53.5t-44 83.5t-14.5 108zM370 289q-8 60 -33.5 87.5t-67.5 27.5q-19 0 -36 -6t-30.5 -19.5t-23 -35.5t-12.5 -54h203zM167 207 q6 -54 34 -82.5t68 -28.5q38 0 66.5 24.5t34.5 86.5h-203z" />
<glyph unicode="&#x4ea;" horiz-adv-x="670" d="M38 350q0 175 77 269.5t220 94.5q75 0 131 -26t93 -74t55 -115t18 -149q0 -175 -77.5 -269.5t-219.5 -94.5q-76 0 -132 26t-92.5 74t-54.5 115t-18 149zM488 407q-8 89 -48 137t-105 48q-29 0 -55 -10t-46.5 -32t-34 -57.5t-17.5 -85.5h306zM182 297q8 -95 49 -142 t104 -47q29 0 55.5 9.5t47 31t34 57.5t16.5 91h-306zM153 798q0 26 18 42t58 16q39 0 57 -16t18 -42t-18 -41.5t-57 -15.5q-40 0 -58 15.5t-18 41.5zM367 798q0 26 18 42t57 16q40 0 58 -16t18 -42t-18 -41.5t-58 -15.5q-39 0 -57 15.5t-18 41.5z" />
<glyph unicode="&#x4eb;" horiz-adv-x="537" d="M33 250q0 127 62 195.5t174 68.5q60 0 104 -19t73 -53.5t43.5 -83.5t14.5 -108q0 -127 -61.5 -195.5t-173.5 -68.5q-60 0 -104 19t-73.5 53.5t-44 83.5t-14.5 108zM370 289q-8 60 -33.5 87.5t-67.5 27.5q-19 0 -36 -6t-30.5 -19.5t-23 -35.5t-12.5 -54h203zM167 207 q6 -54 34 -82.5t68 -28.5q38 0 66.5 24.5t34.5 86.5h-203zM88 632q0 32 19.5 51t51.5 19t50.5 -19t18.5 -51q0 -30 -18.5 -49t-50.5 -19t-51.5 19t-19.5 49zM307 632q0 32 18.5 51t50.5 19t51.5 -19t19.5 -51q0 -30 -19.5 -49t-51.5 -19t-50.5 19t-18.5 49z" />
<glyph unicode="&#x4ec;" horiz-adv-x="574" d="M130 410h269q-3 40 -16.5 73.5t-36.5 57.5t-57 37.5t-77 13.5q-54 0 -94 -11.5t-65 -25.5l-29 116q35 18 88 30.5t105 12.5q69 0 127.5 -19t101 -62.5t66.5 -113t24 -169.5q0 -104 -28 -174t-75 -112t-108 -60t-127 -18q-57 0 -103.5 10t-74.5 23l36 119q23 -11 62 -20.5 t90 -9.5q39 0 72 11t58.5 34.5t41.5 59.5t20 87h-270v110zM48 798q0 26 18 42t58 16q39 0 57 -16t18 -42t-18 -41.5t-57 -15.5q-40 0 -58 15.5t-18 41.5zM262 798q0 26 18 42t57 16q40 0 58 -16t18 -42t-18 -41.5t-58 -15.5q-39 0 -57 15.5t-18 41.5z" />
<glyph unicode="&#x4ed;" horiz-adv-x="459" d="M109 300h186q-5 50 -33 77t-83 27q-38 0 -67 -9t-51 -21l-35 94q66 46 178 46t167 -66.5t55 -197.5q0 -132 -62 -198t-170 -66q-47 0 -95 9.5t-76 26.5l32 102q23 -13 54.5 -20.5t63.5 -7.5q64 0 91 27t32 84h-187v93zM24 632q0 32 19.5 51t51.5 19t50.5 -19t18.5 -51 q0 -30 -18.5 -49t-50.5 -19t-51.5 19t-19.5 49zM243 632q0 32 18.5 51t50.5 19t51.5 -19t19.5 -51q0 -30 -19.5 -49t-51.5 -19t-50.5 19t-18.5 49z" />
<glyph unicode="&#x4ee;" horiz-adv-x="568" d="M294 391l20 -91h6l16 94l105 306h141l-186 -484q-22 -57 -42.5 -99t-44 -69.5t-52.5 -41t-68 -13.5q-33 0 -53.5 4.5t-44.5 19.5l35 111q17 -9 31 -11t30 -2q47 0 66 74l-262 511h161zM126 856h343v-89h-343v89z" />
<glyph unicode="&#x4ef;" horiz-adv-x="478" d="M239 219l18 -78h6l13 79l76 280h134l-152 -451q-19 -56 -36.5 -102.5t-38.5 -80.5t-46.5 -52.5t-60.5 -18.5q-52 0 -83 17l24 104q15 -6 30 -6q23 0 44.5 19.5t32.5 70.5l-209 500h156zM86 658h323v-92h-323v92z" />
<glyph unicode="&#x4f0;" horiz-adv-x="568" d="M294 391l20 -91h6l16 94l105 306h141l-186 -484q-22 -57 -42.5 -99t-44 -69.5t-52.5 -41t-68 -13.5q-33 0 -53.5 4.5t-44.5 19.5l35 111q17 -9 31 -11t30 -2q47 0 66 74l-262 511h161zM123 798q0 26 18 42t58 16q39 0 57 -16t18 -42t-18 -41.5t-57 -15.5q-40 0 -58 15.5 t-18 41.5zM337 798q0 26 18 42t57 16q40 0 58 -16t18 -42t-18 -41.5t-58 -15.5q-39 0 -57 15.5t-18 41.5z" />
<glyph unicode="&#x4f1;" horiz-adv-x="478" d="M239 219l18 -78h6l13 79l76 280h134l-152 -451q-19 -56 -36.5 -102.5t-38.5 -80.5t-46.5 -52.5t-60.5 -18.5q-52 0 -83 17l24 104q15 -6 30 -6q23 0 44.5 19.5t32.5 70.5l-209 500h156zM72 632q0 32 19.5 51t51.5 19t50.5 -19t18.5 -51q0 -30 -18.5 -49t-50.5 -19 t-51.5 19t-19.5 49zM291 632q0 32 18.5 51t50.5 19t51.5 -19t19.5 -51q0 -30 -19.5 -49t-51.5 -19t-50.5 19t-18.5 49z" />
<glyph unicode="&#x4f2;" horiz-adv-x="568" d="M294 391l20 -91h6l16 94l105 306h141l-186 -484q-22 -57 -42.5 -99t-44 -69.5t-52.5 -41t-68 -13.5q-33 0 -53.5 4.5t-44.5 19.5l35 111q17 -9 31 -11t30 -2q47 0 66 74l-262 511h161zM202 850h134v-16l-100 -93h-93zM400 850h140v-16l-143 -93h-94z" />
<glyph unicode="&#x4f3;" horiz-adv-x="478" d="M239 219l18 -78h6l13 79l76 280h134l-152 -451q-19 -56 -36.5 -102.5t-38.5 -80.5t-46.5 -52.5t-60.5 -18.5q-52 0 -83 17l24 104q15 -6 30 -6q23 0 44.5 19.5t32.5 70.5l-209 500h156zM161 700h119v-16l-76 -113h-78zM339 700h126v-16l-118 -113h-81z" />
<glyph unicode="&#x4f4;" horiz-adv-x="606" d="M183 700v-222q0 -60 23.5 -89.5t77.5 -29.5q38 0 71.5 8.5t53.5 25.5v307h137v-700h-137v282q-26 -15 -69.5 -27.5t-103.5 -12.5q-42 0 -76.5 10.5t-60 34t-39.5 60t-14 88.5v265h137zM121 798q0 26 18 42t58 16q39 0 57 -16t18 -42t-18 -41.5t-57 -15.5q-40 0 -58 15.5 t-18 41.5zM335 798q0 26 18 42t57 16q40 0 58 -16t18 -42t-18 -41.5t-58 -15.5q-39 0 -57 15.5t-18 41.5z" />
<glyph unicode="&#x4f5;" horiz-adv-x="505" d="M163 500v-114q0 -31 2.5 -53.5t10 -37t21 -21.5t35.5 -7q29 0 50.5 7t35.5 17v209h130v-500h-130v196q-15 -11 -46 -24.5t-83 -13.5q-37 0 -66 8t-49 28t-30.5 53t-10.5 83v170h130zM60 632q0 32 19.5 51t51.5 19t50.5 -19t18.5 -51q0 -30 -18.5 -49t-50.5 -19t-51.5 19 t-19.5 49zM279 632q0 32 18.5 51t50.5 19t51.5 -19t19.5 -51q0 -30 -19.5 -49t-51.5 -19t-50.5 19t-18.5 49z" />
<glyph unicode="&#x4f6;" horiz-adv-x="458" d="M467 578h-270v-456h88v-247h-96l-15 125h-114v700h407v-122z" />
<glyph unicode="&#x4f7;" horiz-adv-x="376" d="M57 500h323v-115h-189v-270h90v-229h-95l-15 114h-114v500z" />
<glyph unicode="&#x4f8;" horiz-adv-x="798" d="M600 700h137v-700h-137v700zM60 700h137v-251q11 2 35 5t47 3q50 0 95.5 -10t79.5 -35.5t54 -69t20 -109.5q0 -122 -71 -182.5t-211 -60.5q-14 0 -36 0.5t-47.5 2.5t-52.5 5t-50 9v693zM256 112q57 0 92.5 26.5t35.5 88.5q0 33 -10 54t-27 33t-40 16.5t-50 4.5 q-14 0 -33 -2.5t-27 -5.5v-209q11 -3 26.5 -4.5t32.5 -1.5zM212 798q0 26 18 42t58 16q39 0 57 -16t18 -42t-18 -41.5t-57 -15.5q-40 0 -58 15.5t-18 41.5zM426 798q0 26 18 42t57 16q40 0 58 -16t18 -42t-18 -41.5t-58 -15.5q-39 0 -57 15.5t-18 41.5z" />
<glyph unicode="&#x4f9;" horiz-adv-x="703" d="M187 109q30 -6 57 -6q45 0 63 16.5t18 51.5q0 32 -18 48.5t-60 16.5q-33 0 -60 -7v-120zM187 322q24 4 48.5 5.5t44.5 1.5q51 0 85 -11.5t55 -32.5t30 -49.5t9 -61.5q0 -45 -12 -79t-39 -56.5t-70 -34t-106 -11.5q-57 0 -98.5 2t-76.5 5v500h130v-178zM516 500h130v-500 h-130v500zM164 632q0 32 19.5 51t51.5 19t50.5 -19t18.5 -51q0 -30 -18.5 -49t-50.5 -19t-51.5 19t-19.5 49zM383 632q0 32 18.5 51t50.5 19t51.5 -19t19.5 -51q0 -30 -19.5 -49t-51.5 -19t-50.5 19t-18.5 49z" />
<glyph unicode="&#x4fc;" horiz-adv-x="633" d="M452 -21q0 34 -15 66t-29 55l-71 116l-28 74l-26 -74l-124 -216h-149l215 356l-195 344h165l108 -202l24 -71l23 71l113 202h149l-202 -337l130 -213q25 -39 39 -83t14 -87q0 -91 -40.5 -139t-121.5 -48q-15 0 -31.5 1.5t-33.5 5.5v109q4 0 7.5 -0.5t7.5 -0.5q43 0 57 21 t14 50z" />
<glyph unicode="&#x4fd;" horiz-adv-x="525" d="M443 128q22 -32 37 -74t15 -79q0 -88 -38 -135.5t-118 -47.5q-31 0 -65 7v104q5 -1 9.5 -1h9.5q42 0 57.5 18t14.5 48q0 27 -12.5 53.5t-26.5 47.5l-34 51l-34 72l-31 -72l-77 -120h-142l162 256l-150 244h155l65 -107l28 -70l30 70l68 107h141l-151 -240z" />
<glyph unicode="&#x510;" horiz-adv-x="526" d="M384 310h-21t-18 -1q-88 -2 -124.5 -28t-36.5 -72q0 -26 10.5 -45t28 -31.5t41 -18.5t50.5 -6q51 0 92.5 12.5t64.5 23.5l37 -108q-14 -9 -35.5 -17.5t-48.5 -16t-57.5 -12t-63.5 -4.5q-60 0 -108.5 12.5t-83 38t-53 65t-18.5 93.5q0 73 35.5 117.5t100.5 57.5v5 q-58 22 -86 66t-28 96q0 48 19.5 81.5t53 54.5t77 30t91.5 9q29 0 58.5 -4t55 -10.5t46 -14t31.5 -14.5l-36 -109q-25 11 -63 20.5t-74 9.5q-55 0 -85 -18t-30 -60q0 -20 8 -35t20.5 -26t29 -18t34.5 -10q17 -5 44 -5.5t45 -0.5h24v-107h-27z" />
<glyph unicode="&#x511;" horiz-adv-x="432" d="M274 207q-32 0 -53.5 -3t-34.5 -9.5t-18 -16t-5 -22.5q0 -26 22.5 -41.5t67.5 -15.5q40 0 73 9t56 23l28 -101q-26 -15 -67 -28t-96 -13q-110 0 -162 42.5t-52 108.5q0 51 23.5 80.5t73.5 43.5v4q-40 14 -59 45.5t-19 66.5q0 64 46 96.5t125 32.5q62 0 108.5 -12.5 t76.5 -29.5l-28 -99q-18 11 -48.5 21t-69.5 10q-41 0 -60.5 -11t-19.5 -38q0 -23 22.5 -37.5t57.5 -14.5h61v-91h-49z" />
<glyph unicode="&#x512;" horiz-adv-x="634" d="M574 -21q0 -91 -36 -139t-114 -48q-14 0 -30.5 1.5t-33.5 5.5v109q5 0 8.5 -0.5t7.5 -0.5q21 0 33 6t18 17.5t8 29t2 40.5v578h-149q-4 -95 -9.5 -173t-15 -140.5t-24 -110.5t-35.5 -83q-15 -23 -32 -38t-35 -24t-36 -12.5t-34 -3.5q-23 0 -44 4t-36 11l22 117 q13 -5 27 -5q15 0 30.5 8t28.5 28q15 22 26 64.5t19.5 108.5t13.5 157.5t7 213.5h413v-721z" />
<glyph unicode="&#x513;" horiz-adv-x="515" d="M329 385h-99q-6 -71 -14 -141t-25.5 -125.5t-47.5 -90t-78 -34.5q-58 0 -82 15l16 108q16 -6 30 -6q20 0 35 17t25.5 61t17 119.5t9.5 191.5h343v-521q0 -91 -36 -139t-115 -48q-30 0 -64 7v109q4 0 7.5 -0.5t7.5 -0.5q43 0 56.5 24.5t13.5 68.5v385z" />
<glyph unicode="&#x51c;" horiz-adv-x="862" d="M242 309l13 -124h4l14 126l122 389h90l120 -391l14 -124h4l15 126l85 389h139l-193 -705h-92l-125 389l-17 107h-5l-17 -108l-124 -388h-97l-192 705h149z" />
<glyph unicode="&#x51d;" horiz-adv-x="721" d="M419 500l91 -256l18 -83h4l14 84l64 255h119l-154 -505h-96l-101 280l-13 63h-5l-12 -64l-96 -279h-99l-161 505h141l73 -251l12 -89h5l17 90l83 250h96z" />
<glyph unicode="&#x524;" horiz-adv-x="684" d="M442 578h-245v-578h-137v700h519v-578h87v-247h-96l-15 125h-113v578z" />
<glyph unicode="&#x525;" horiz-adv-x="574" d="M345 385h-158v-385h-130v500h418v-385h83v-229h-95l-15 114h-103v385z" />
<glyph unicode="&#x526;" horiz-adv-x="661" d="M423 222q0 60 -23.5 89.5t-77.5 29.5q-38 0 -71.5 -8.5t-53.5 -25.5v-307h-137v700h137v-282q26 15 69.5 27.5t103.5 12.5q42 0 76.5 -10.5t60 -34t39.5 -60t14 -88.5v-143h88v-247h-96l-15 125h-114v222z" />
<glyph unicode="&#x527;" horiz-adv-x="590" d="M493 115h80v-229h-95l-15 114h-100v284q0 61 -17 88t-62 27q-33 0 -60.5 -22.5t-36.5 -57.5v-319h-130v700h130v-256h4q24 32 59 51t89 19q38 0 67 -10t48.5 -33t29 -62.5t9.5 -97.5v-196z" />
<glyph unicode="&#x52e;" horiz-adv-x="669" d="M426 578h-149q-4 -95 -9 -173t-13.5 -140.5t-22.5 -110.5t-36 -83q-14 -23 -31.5 -38t-36.5 -24t-37.5 -12.5t-34.5 -3.5q-23 0 -38.5 3.5t-30.5 10.5l15 118q6 -2 12 -3t12 -1q16 0 31.5 8t26.5 27q15 22 26 64.5t19.5 108.5t13.5 157.5t7 213.5h413v-578h88v-247h-96 l-15 125h-114v578z" />
<glyph unicode="&#x52f;" horiz-adv-x="563" d="M329 385h-99q-6 -71 -14 -141t-25.5 -125.5t-47.5 -90t-78 -34.5q-58 0 -82 15l16 108q16 -6 30 -6q20 0 35 17t25.5 61t17 119.5t9.5 191.5h343v-385h88v-229h-95l-15 114h-108v385z" />
<glyph unicode="&#x1e30;" horiz-adv-x="620" d="M233 299h-36v-299h-137v700h137v-310l32 14l193 296h156l-204 -294l-54 -38l56 -39l233 -329h-169zM310 870h159v-30l-160 -88h-103z" />
<glyph unicode="&#x1e31;" horiz-adv-x="491" d="M222 207h-35v-207h-130v700h130v-413l30 14l114 199h143l-120 -190l-51 -38l55 -39l135 -233h-149zM299 720h132v-30l-111 -124h-74z" />
<glyph unicode="&#x1e3e;" horiz-adv-x="800" d="M603 363l15 139h-6l-43 -112l-149 -261h-44l-157 262l-44 111h-5l20 -138v-364h-130v700h125l187 -320l33 -80h4l30 82l177 318h124v-700h-137v363zM422 870h159v-30l-160 -88h-103z" />
<glyph unicode="&#x1e3f;" horiz-adv-x="805" d="M341 0v272q0 69 -13 98t-54 29q-34 0 -55 -18.5t-32 -47.5v-333h-130v500h101l15 -66h4q23 32 58.5 56t91.5 24q48 0 78.5 -19.5t47.5 -65.5q23 39 59 62t87 23q42 0 71.5 -10t48 -34.5t27.5 -65.5t9 -104v-300h-130v281q0 59 -12.5 88.5t-55.5 29.5q-35 0 -55.5 -19 t-30.5 -52v-328h-130zM399 720h132v-30l-111 -124h-74z" />
<glyph unicode="&#x1e54;" horiz-adv-x="572" d="M60 693q42 8 92.5 12.5t100.5 4.5q52 0 104.5 -8.5t94.5 -34t68.5 -71t26.5 -118.5q0 -66 -23 -111.5t-61 -74.5t-86.5 -42t-100.5 -13h-16t-23 0.5t-23.5 1.5t-16.5 2v-241h-137v693zM264 592q-20 0 -38 -1.5t-29 -3.5v-227q4 -1 12 -2t17 -1.5t17.5 -0.5h12.5 q27 0 53.5 5t47.5 18.5t33.5 37.5t12.5 63q0 33 -12 54.5t-31.5 34.5t-44.5 18t-51 5zM292 870h159v-30l-160 -88h-103z" />
<glyph unicode="&#x1e55;" horiz-adv-x="540" d="M57 500h95l15 -60h4q26 38 61.5 56t86.5 18q94 0 141 -59.5t47 -191.5q0 -64 -15 -115.5t-44.5 -87.5t-72 -55t-97.5 -19q-31 0 -51 4.5t-40 14.5v-205h-130v700zM280 404q-38 0 -59.5 -19t-33.5 -57v-208q14 -11 30.5 -17.5t43.5 -6.5q56 0 84 39.5t28 130.5 q0 66 -22 102t-71 36zM264 720h132v-30l-111 -124h-74z" />
<glyph unicode="&#x1e9e;" horiz-adv-x="672" d="M419 570q-18 16 -48.5 25t-67.5 9q-35 0 -56 -12.5t-32 -35t-14.5 -54t-3.5 -69.5v-433h-137v478q0 57 13 100.5t42.5 73.5t76 45.5t112.5 15.5q51 0 91.5 -7.5t74 -21t61.5 -31t55 -37.5l-135 -179l-35 -29v-5l35 8q81 -6 129.5 -55t48.5 -139q0 -108 -61.5 -169.5 t-179.5 -61.5q-14 0 -34 2t-40.5 6t-38.5 9t-28 10l27 114q10 -5 24 -8.5t28.5 -5.5t28.5 -3.5t25 -1.5q50 0 77.5 27.5t27.5 79.5q0 55 -37 80t-113 25h-50v83z" />
<glyph unicode="&#x2011;" horiz-adv-x="360" d="M54 345h251v-115h-251v115z" />
<glyph unicode="&#x2013;" horiz-adv-x="660" d="M109 346h442v-115h-442v115z" />
<glyph unicode="&#x2014;" horiz-adv-x="820" d="M109 346h602v-115h-602v115z" />
<glyph unicode="&#x2018;" horiz-adv-x="223" d="M185 527q0 -29 -19.5 -46.5t-48.5 -17.5q-37 0 -58 23.5t-21 62.5q0 40 12.5 68t30 46.5t36.5 29t33 15.5l32 -54q-20 -8 -34 -25.5t-16 -37.5q20 0 36.5 -17.5t16.5 -46.5z" />
<glyph unicode="&#x2019;" horiz-adv-x="223" d="M38 643q0 29 19.5 47t49.5 18q36 0 57 -24t21 -63q0 -40 -12.5 -68t-30 -46.5t-37 -28.5t-32.5 -15l-33 55q20 9 35.5 23.5t17.5 37.5q-20 -1 -37.5 15.5t-17.5 48.5z" />
<glyph unicode="&#x201a;" horiz-adv-x="223" d="M38 61q0 29 19.5 47t49.5 18q36 0 57 -24t21 -63q0 -40 -12.5 -68t-30 -46.5t-37 -28.5t-32.5 -15l-33 55q20 9 35.5 23.5t17.5 37.5q-20 -1 -37.5 15.5t-17.5 48.5z" />
<glyph unicode="&#x201c;" horiz-adv-x="396" d="M358 527q0 -29 -19.5 -46.5t-48.5 -17.5q-37 0 -58 23.5t-21 62.5q0 40 12.5 68t30 46.5t36.5 29t33 15.5l32 -54q-20 -8 -34 -25.5t-16 -37.5q20 0 36.5 -17.5t16.5 -46.5zM185 527q0 -29 -19.5 -46.5t-48.5 -17.5q-37 0 -58 23.5t-21 62.5q0 40 12.5 68t30 46.5 t36.5 29t33 15.5l32 -54q-20 -8 -34 -25.5t-16 -37.5q20 0 36.5 -17.5t16.5 -46.5z" />
<glyph unicode="&#x201d;" horiz-adv-x="396" d="M211 643q0 29 19.5 47t49.5 18q36 0 57 -24t21 -63q0 -40 -12.5 -68t-30 -46.5t-37 -28.5t-32.5 -15l-33 55q20 9 35.5 23.5t17.5 37.5q-20 -1 -37.5 15.5t-17.5 48.5zM38 643q0 29 19.5 47t49.5 18q36 0 57 -24t21 -63q0 -40 -12.5 -68t-30 -46.5t-37 -28.5t-32.5 -15 l-33 55q20 9 35.5 23.5t17.5 37.5q-20 -1 -37.5 15.5t-17.5 48.5z" />
<glyph unicode="&#x201e;" horiz-adv-x="396" d="M211 61q0 29 19.5 47t49.5 18q36 0 57 -24t21 -63q0 -40 -12.5 -68t-30 -46.5t-37 -28.5t-32.5 -15l-33 55q20 9 35.5 23.5t17.5 37.5q-20 -1 -37.5 15.5t-17.5 48.5zM38 61q0 29 19.5 47t49.5 18q36 0 57 -24t21 -63q0 -40 -12.5 -68t-30 -46.5t-37 -28.5t-32.5 -15 l-33 55q20 9 35.5 23.5t17.5 37.5q-20 -1 -37.5 15.5t-17.5 48.5z" />
<glyph unicode="&#x2020;" horiz-adv-x="509" d="M40 513h116l52 -16l-16 54v149h124v-149l-15 -54l51 16h117v-112h-119l-49 16l15 -50v-367l-16 -200h-92l-16 201v366l16 50l-52 -16h-116v112z" />
<glyph unicode="&#x2021;" horiz-adv-x="509" d="M192 371l16 45l-52 -15h-116v112h116l52 -15l-16 50v152h124v-152l-15 -50l51 15h117v-112h-119l-49 15l15 -45v-84l-15 -45l49 15h119v-112h-117l-51 15l15 -50v-110l-17 -200h-90l-17 201v109l16 50l-52 -15h-116v112h116l52 -15l-16 45v84z" />
<glyph unicode="&#x2022;" horiz-adv-x="452" d="M73 311q0 34 12 62t33 48t48.5 31.5t58.5 11.5q32 0 60 -10.5t48.5 -30t32.5 -48t12 -64.5t-12 -64t-32.5 -47.5t-48.5 -30t-60 -10.5q-31 0 -58.5 10.5t-48.5 30t-33 47.5t-12 64z" />
<glyph unicode="&#x2026;" horiz-adv-x="809" d="M53 66q0 35 22 55.5t58 20.5q38 0 60 -20.5t22 -55.5t-22 -56t-60 -21q-36 0 -58 21t-22 56zM325 66q0 35 22 55.5t58 20.5q38 0 60 -20.5t22 -55.5t-22 -56t-60 -21q-36 0 -58 21t-22 56zM597 66q0 35 22 55.5t58 20.5q38 0 60 -20.5t22 -55.5t-22 -56t-60 -21 q-36 0 -58 21t-22 56z" />
<glyph unicode="&#x2030;" horiz-adv-x="1232" d="M51 542q0 45 13 77t36 53t55.5 30.5t70.5 9.5t70 -9t55.5 -29t36.5 -52.5t14 -79.5q-1 -47 -14 -79.5t-36.5 -52.5t-55.5 -29t-70 -9t-70.5 9t-55.5 29t-36 52.5t-13 79.5zM167 542q0 -86 59 -86q31 0 44.5 18.5t14.5 67.5q-1 48 -14.5 67t-44.5 19t-45 -19t-14 -67z M452 171q0 45 13 77t36 53t55.5 30.5t70.5 9.5t70 -9t55.5 -29t36.5 -52.5t14 -79.5q-1 -47 -14 -79.5t-36.5 -52.5t-55.5 -29t-70 -9t-70.5 9t-55.5 29t-36 52.5t-13 79.5zM568 171q0 -86 59 -86q31 0 44.5 18.5t14.5 67.5q-1 48 -14.5 67t-44.5 19t-45 -19t-14 -67z M840 171q0 45 13 77t36 53t55.5 30.5t70.5 9.5t70 -9t55.5 -29t36.5 -52.5t14 -79.5q-1 -47 -14 -79.5t-36.5 -52.5t-55.5 -29t-70 -9t-70.5 9t-55.5 29t-36 52.5t-13 79.5zM956 171q0 -86 59 -86q31 0 44.5 18.5t14.5 67.5q-1 48 -14.5 67t-44.5 19t-45 -19t-14 -67z M677 714l73 -66l-576 -662l-73 69z" />
<glyph unicode="&#x2039;" horiz-adv-x="307" d="M29 259l160 230l75 -62l-83 -126l-48 -41l48 -36l91 -122l-77 -64z" />
<glyph unicode="&#x203a;" horiz-adv-x="307" d="M278 268l-160 -230l-76 61l84 127l48 41l-48 36l-92 123l78 63z" />
<glyph unicode="&#x2044;" horiz-adv-x="184" d="M266 715l85 -50l-430 -679l-86 53z" />
<glyph unicode="&#x2081;" horiz-adv-x="412" d="M72 0h97v164l10 46l-30 -32l-59 -39l-49 77l158 111h85v-327h88v-100h-300v100z" />
<glyph unicode="&#x2082;" horiz-adv-x="412" d="M348 200q0 -59 -30 -101t-72 -80l-47 -25v-4l59 11h106v-101h-313v71q26 18 58 42t59.5 51.5t46 56.5t18.5 55q0 49 -56 49q-27 0 -51 -8.5t-42 -19.5l-34 90q35 21 74.5 30.5t75.5 9.5q71 0 109.5 -32.5t38.5 -94.5z" />
<glyph unicode="&#x2083;" horiz-adv-x="412" d="M169 -12q44 0 62.5 14t19.5 37q-1 23 -20 36t-70 13h-42v38l73 80l43 25l-58 -6h-115v95h283v-62l-87 -92l-34 -18v-5l30 3q52 -2 81.5 -31.5t30.5 -83.5q-1 -36 -15.5 -62t-39 -43t-57.5 -25t-68 -8q-39 0 -72.5 6.5t-57.5 17.5l23 90q41 -19 90 -19z" />
<glyph unicode="&#x2084;" horiz-adv-x="412" d="M402 -22h-76v-78h-101v78h-207v67l218 283h90v-261h76v-89zM225 153l6 53h-5l-22 -49l-48 -66l-36 -32l52 8h53v86z" />
<glyph unicode="&#x20ac;" d="M34 475h62q15 66 43.5 111t66.5 73.5t83.5 41.5t94.5 13q52 0 92.5 -8t67.5 -19l-35 -103q-22 9 -51 13.5t-68 4.5q-60 0 -103 -30t-65 -97h259l-26 -93h-249q-1 -8 -1 -15.5v-16.5v-26h230l-26 -93h-188q20 -66 63.5 -99.5t115.5 -33.5q42 0 72.5 9t54.5 23l27 -101 q-15 -11 -36 -19.5t-44 -13.5t-47 -7.5t-46 -2.5q-110 0 -185.5 58.5t-101.5 186.5h-92l32 93h49v26v16t1 16h-82z" />
<glyph unicode="&#x20b4;" d="M495 321v-93h-249q-14 -14 -24.5 -37t-10.5 -43q0 -26 22 -41.5t76 -15.5q53 0 84.5 9.5t53.5 21.5l29 -98q-25 -14 -70 -26t-127 -12q-94 0 -144 36t-50 108q0 16 3.5 31.5t9 29t11 22.5t9.5 15h-73v93h450zM45 378v93h250q15 14 26 37t11 45q0 56 -80 56 q-40 0 -68.5 -8.5t-52.5 -20.5l-37 98q16 8 32.5 14.5t36.5 11.5t47.5 7.5t66.5 2.5q88 0 134 -33t46 -101q0 -32 -12.5 -62.5t-27.5 -46.5h78v-93h-450z" />
<glyph unicode="&#x20bd;" d="M23 364h79v329q42 8 87 12.5t95 4.5q52 0 100 -9t84 -33t57.5 -66t21.5 -108q0 -61 -21 -103t-56 -68.5t-80 -38t-94 -11.5h-68v-58h160v-91h-160v-124h-126v124h-79v91h79v58h-79v91zM228 367h52q27 0 51.5 6.5t42.5 20.5t28.5 37.5t10.5 56.5q0 61 -33 86.5t-85 25.5 q-20 0 -38 -1.5t-29 -3.5v-228z" />
<glyph unicode="&#x2113;" horiz-adv-x="500" d="M406 30q-22 -14 -57.5 -28t-70.5 -14q-63 0 -91.5 30.5t-28.5 95.5v104l-50 -44l-35 44l85 74v254q0 44 10 75.5t27.5 51.5t41 29.5t50.5 9.5q48 0 79 -29.5t31 -89.5q0 -74 -40 -157t-131 -171v-140q0 -44 17 -60.5t41 -16.5q25 0 55 10.5t50 21.5zM333 588q0 34 -14 49 t-32 15q-12 0 -23 -3.5t-19.5 -14t-13.5 -29t-5 -48.5v-212q56 65 81.5 125.5t25.5 117.5z" />
<glyph unicode="&#x2116;" horiz-adv-x="1027" d="M655 321h314v-111h-314v111zM234 362l-55 113h-5l16 -110v-365h-130v705h100l250 -370l52 -110h6l-16 107v368h130v-705h-99zM634 542q0 45 13 77t36 53t55.5 30.5t70.5 9.5t70 -9t55.5 -29t36.5 -52.5t13 -79.5t-13 -79.5t-36.5 -52.5t-55.5 -29t-70 -9t-70.5 9 t-55.5 29t-36 52.5t-13 79.5zM750 542q0 -86 59 -86q31 0 44.5 18.5t13.5 67.5q0 48 -13.5 67t-44.5 19t-45 -19t-14 -67z" />
<glyph unicode="&#x2122;" horiz-adv-x="948" d="M395 590h-118v-250h-130v250h-118v110h366v-110zM800 484l17 103h-6l-36 -85l-68 -117h-78l-68 114l-39 88h-5l23 -102v-145h-111v360h130l91 -150l24 -63h1l25 65l84 148h129v-360h-113v144z" />
<glyph unicode="&#x212e;" horiz-adv-x="600" d="M157 259v-181q62 -59 145 -59q124 0 193 120l35 -21q-43 -66 -99 -100.5t-129 -34.5q-59 0 -107 21.5t-81.5 58.5t-51.5 87.5t-18 108.5q0 59 18.5 109.5t52.5 87.5t81.5 58t105.5 21q62 0 109.5 -22t80.5 -59.5t50 -87.5t19 -107h-404zM448 295v145q-63 60 -147 60 q-86 0 -144 -60v-145h291z" />
<glyph unicode="&#x2202;" horiz-adv-x="538" d="M276 503q21 0 36 -2t26 -5.5t20 -8t17 -9.5h5q-5 39 -25 65t-48.5 42t-62.5 22.5t-68 6.5h-14.5t-13.5 -1l22 101q8 1 16.5 1h16.5q66 0 123 -15t98.5 -50t65.5 -94t24 -146q0 -112 -21.5 -192t-59.5 -131.5t-90.5 -76t-114.5 -24.5q-99 0 -154.5 54.5t-55.5 148.5 q0 57 15.5 113t47 101t80.5 72.5t115 27.5zM284 393q-57 0 -94.5 -53t-37.5 -146q0 -41 21.5 -69.5t65.5 -28.5q41 0 68 23t43.5 60t23 84t6.5 94q-18 17 -40 26.5t-56 9.5z" />
<glyph unicode="&#x220f;" horiz-adv-x="654" d="M463 578h-266v-778h-137v900h533v-900h-130v778z" />
<glyph unicode="&#x2211;" horiz-adv-x="527" d="M183 -38l-42 -40h360v-122h-481v122l186 292l42 34l-46 37l-182 293v122h481v-122h-348l46 -41l172 -281z" />
<glyph unicode="&#x2212;" horiz-adv-x="527" d="M43 394h442v-112h-442v112z" />
<glyph unicode="&#x2215;" horiz-adv-x="527" d="M436 715l85 -50l-430 -679l-86 53z" />
<glyph unicode="&#x221a;" horiz-adv-x="527" d="M187 475l79 -186l22 -115h4l18 117l120 409h125l-230 -705h-67l-151 369h-112v111h192z" />
<glyph unicode="&#x221e;" horiz-adv-x="857" d="M417 265q-36 -58 -87 -86t-113 -28q-36 0 -69 13.5t-58 39t-40 62t-15 82.5q0 48 15 86t40.5 64.5t60.5 40t76 13.5q74 0 124 -29.5t87 -74.5q45 56 96 80t112 24q37 0 69 -13.5t56 -38.5t37.5 -61.5t13.5 -82.5q0 -49 -15 -87t-42 -64.5t-64 -40t-80 -13.5q-36 0 -66 9 t-54.5 24.5t-45 36t-38.5 44.5zM620 262q35 0 57.5 25.5t22.5 65.5q0 16 -5 32t-15 28.5t-25.5 20t-36.5 7.5q-31 0 -64 -18.5t-62 -56.5q11 -21 25 -39.5t30.5 -33t35 -23t37.5 -8.5zM237 441q-34 0 -57.5 -26.5t-23.5 -65.5q0 -38 25 -62.5t62 -24.5q32 0 65 22.5t57 55.5 q-23 45 -54.5 73t-73.5 28z" />
<glyph unicode="&#x222b;" horiz-adv-x="368" d="M247 -34q0 -96 -39 -135t-117 -39q-46 0 -87.5 7t-65.5 17l29 102q44 -17 84 -17q38 0 52 23.5t14 78.5v535q0 96 36.5 136t117.5 40q18 0 38.5 -2t40.5 -5.5t38 -8t31 -9.5l-22 -102q-23 8 -42.5 12.5t-46.5 4.5q-35 0 -48 -20.5t-13 -74.5v-543z" />
<glyph unicode="&#x2248;" horiz-adv-x="527" d="M30 473q47 38 84.5 52.5t69.5 14.5q29 0 54 -8.5t48 -18t45.5 -18t45.5 -8.5q18 0 37 6t40 23l47 -103q-36 -27 -66 -38t-56 -11q-28 0 -52 9t-46.5 20t-45.5 20t-49 9q-24 0 -51.5 -10.5t-60.5 -38.5zM30 280q47 38 84.5 52.5t69.5 14.5q29 0 54 -8.5t48 -18t45.5 -18 t45.5 -8.5q18 0 37 6t40 23l47 -103q-36 -27 -66 -38t-56 -11q-28 0 -52 9t-46.5 20t-45.5 20t-49 9q-24 0 -51.5 -10.5t-60.5 -38.5z" />
<glyph unicode="&#x2260;" horiz-adv-x="527" d="M43 490h232l50 113h113l-50 -113h97v-112h-147l-36 -80h183v-112h-232l-57 -129h-112l57 129h-98v112h147l36 80h-183v112z" />
<glyph unicode="&#x2264;" horiz-adv-x="527" d="M483 80l-56 -96l-382 215l56 96zM34 413v70l386 231l57 -90l-224 -139l-91 -35l90 -31l230 -137l-57 -90z" />
<glyph unicode="&#x2265;" horiz-adv-x="527" d="M488 205l-381 -221l-56 95l380 222zM488 493v-70l-386 -231l-57 90l224 139l91 35l-90 31l-230 137l57 90z" />
<glyph unicode="&#x25ca;" horiz-adv-x="527" d="M299 -5h-75l-197 347l197 363h75l201 -358zM298 201l80 133l-91 157l-27 84h-5l-28 -86l-78 -134l90 -156l28 -84h4z" />
<glyph unicode="&#x25fc;" horiz-adv-x="500" d="M0 500h500v-500h-500v500z" />
<glyph unicode="&#x2c67;" horiz-adv-x="696" d="M453 293h-256v-293h-137v700h137v-285h256v285h137v-578h88v-247h-96l-15 125h-114v293z" />
<glyph unicode="&#x2c68;" horiz-adv-x="590" d="M493 115h80v-229h-95l-15 114h-100v284q0 61 -17 88t-62 27q-33 0 -60.5 -22.5t-36.5 -57.5v-319h-130v700h130v-256h4q24 32 59 51t89 19q38 0 67 -10t48.5 -33t29 -62.5t9.5 -97.5v-196z" />
<glyph unicode="&#xf401;" horiz-adv-x="0" d="M-283 870h159v-30l-160 -88h-103z" />
<glyph unicode="&#xf406;" horiz-adv-x="501" d="M112 875q20 -26 58 -40t85 -14q48 0 82.5 15t54.5 39l49 -32q-12 -29 -32 -50t-45 -35t-53.5 -21t-56.5 -7q-27 0 -55.5 6t-54.5 18.5t-48 33t-36 50.5z" />
<glyph unicode="&#xf407;" horiz-adv-x="332" d="M208 0l-24 -43q41 -4 64.5 -21.5t23.5 -53.5q0 -23 -11.5 -40t-31.5 -28.5t-47 -17.5t-58 -6t-64 6l9 48q7 -1 13 -1h11q38 0 49 9t11 21q0 28 -86 32l57 95h84z" />
<glyph unicode="&#xf408;" horiz-adv-x="476" d="M193 870h96l127 -93v-39h-99l-57 41l-20 34l-21 -33l-62 -42h-97v40z" />
<glyph unicode="&#xf409;" horiz-adv-x="267" d="M60 -105q0 29 19.5 46t48.5 17q35 0 57 -23t22 -65q0 -33 -11 -58t-27 -42.5t-34 -28t-31 -14.5l-34 54q14 7 28 19.5t16 33.5q-20 -1 -37 14.5t-17 46.5z" />
<glyph unicode="&#xf40a;" horiz-adv-x="223" d="M38 643q0 29 19.5 47t49.5 18q36 0 57 -24t21 -63q0 -40 -12.5 -68t-30 -46.5t-37 -28.5t-32.5 -15l-33 55q20 9 35.5 23.5t17.5 37.5q-20 -1 -37.5 15.5t-17.5 48.5z" />
<glyph unicode="&#xf40b;" horiz-adv-x="295" d="M60 799q0 25 21.5 43t64.5 18t66 -18t23 -43q0 -26 -23 -44t-66 -18t-64.5 18t-21.5 44z" />
<glyph unicode="&#xf40c;" horiz-adv-x="376" d="M60 772q0 18 6 34.5t20.5 29t39 19.5t62.5 7q70 0 99 -24t29 -66q0 -18 -6.5 -34t-21.5 -27.5t-39.5 -18.5t-60.5 -7q-71 0 -99.5 24.5t-28.5 62.5zM144 772q0 -31 44 -31q25 0 35 8t10 23q0 17 -10.5 25t-34.5 8q-44 0 -44 -33z" />
<glyph unicode="&#xf40d;" horiz-adv-x="490" d="M60 800q32 35 61.5 48t58.5 13q22 0 44 -5.5t42.5 -12t40.5 -12t38 -5.5q16 0 31 5t29 19l25 -67q-28 -26 -54.5 -36.5t-51.5 -10.5q-23 0 -44 5.5t-41.5 12.5t-40.5 12.5t-39 5.5t-37.5 -7.5t-37.5 -27.5z" />
<glyph unicode="&#xf40e;" horiz-adv-x="350" d="M263 10q-76 -22 -76 -79q0 -18 11 -30.5t31 -12.5q18 0 42 12l19 -62q-15 -12 -47.5 -23.5t-67.5 -11.5q-56 0 -85.5 25t-29.5 66t27.5 70t75.5 46h100z" />
<glyph unicode="&#xf486;" horiz-adv-x="591" d="M531 537q0 -26 -6.5 -52t-21.5 -47.5t-39 -38t-58 -24.5v-6q30 -5 57 -17t47 -33t31.5 -51t11.5 -71q0 -54 -23 -93.5t-61.5 -64.5t-87.5 -37t-101 -12h-43.5t-57 1.5t-62 4.5t-57.5 9v690q19 3 43.5 6t52.5 5t57.5 3t58.5 1q49 0 95.5 -7.5t83 -26.5t58.5 -53t22 -86z M281 103q25 0 48.5 6t41.5 18.5t29 31.5t11 45q0 33 -13 52t-34 29.5t-47 13.5t-52 3h-73v-193q5 -2 16 -3t23.5 -1.5t26 -1t23.5 -0.5zM236 406q14 0 32.5 1t30.5 3q38 12 65.5 36t27.5 63q0 26 -10 43t-26.5 27t-37.5 14t-44 4q-26 0 -48 -1t-34 -3v-187h44zM288 870h159 v-30l-160 -88h-103z" />
<glyph unicode="&#xf487;" horiz-adv-x="536" d="M57 700h130v-240h4q21 24 54 38t73 14q90 0 137.5 -61.5t47.5 -187.5q0 -135 -66.5 -205t-182.5 -70q-64 0 -117 10.5t-80 23.5v678zM280 402q-36 0 -58.5 -18.5t-34.5 -53.5v-218q16 -8 34.5 -11t39.5 -3q53 0 80.5 38.5t27.5 122.5q0 143 -89 143zM313 720h132v-30 l-111 -124h-74z" />
<glyph unicode="&#xf488;" horiz-adv-x="508" d="M60 700h415v-122h-278v-173h256v-122h-256v-283h-137v700zM288 870h159v-30l-160 -88h-103z" />
<glyph unicode="&#xf489;" horiz-adv-x="321" d="M11 500h69v28q0 95 40 137.5t116 42.5q80 0 133 -19l-25 -104q-23 8 -40.5 10.5t-36.5 2.5q-20 0 -31.5 -6t-17 -18.5t-7 -31t-1.5 -42.5h110v-110h-110v-390h-130v390h-69v110zM251 870h159v-30l-160 -88h-103z" />
<glyph unicode="&#xf49e;" horiz-adv-x="606" d="M-17 607h77v93h137v-93h221v-93h-221v-96q26 15 69.5 27.5t103.5 12.5q42 0 76.5 -10.5t60 -34t39.5 -60t14 -88.5v-265h-137v222q0 60 -23.5 89.5t-77.5 29.5q-38 0 -71.5 -8.5t-53.5 -25.5v-307h-137v514h-77v93z" />
<glyph unicode="&#xf49f;" horiz-adv-x="556" d="M-6 641h74v59h130v-59h161v-80h-161v-117h4q24 32 59 51t89 19q38 0 67 -10t48.5 -33t29 -62.5t9.5 -97.5v-311h-130v284q0 61 -17 88t-62 27q-33 0 -60.5 -22.5t-36.5 -57.5v-319h-130v561h-74v80z" />
<glyph unicode="&#xf4c6;" horiz-adv-x="606" d="M183 700v-222q0 -60 23.5 -89.5t77.5 -29.5q38 0 71.5 8.5t53.5 25.5v307h137v-721q0 -91 -38.5 -139t-118.5 -48q-15 0 -31.5 1.5t-33.5 5.5v109q4 0 7.5 -0.5t7.5 -0.5q43 0 56.5 24.5t13.5 68.5v282q-26 -15 -69.5 -27.5t-103.5 -12.5q-42 0 -76.5 10.5t-60 34 t-39.5 60t-14 88.5v265h137z" />
<glyph unicode="&#xf4c7;" horiz-adv-x="505" d="M318 196q-15 -11 -46 -24.5t-83 -13.5q-37 0 -66 8t-49 28t-30.5 53t-10.5 83v170h130v-114q0 -31 2.5 -53.5t10 -36.5t21 -21t35.5 -7q29 0 50.5 6.5t35.5 16.5v209h130v-521q0 -91 -36 -139t-115 -48q-30 0 -64 7v109q4 0 7.5 -0.5t7.5 -0.5q43 0 56.5 24.5t13.5 68.5 v196z" />
<glyph unicode="&#xf4cc;" horiz-adv-x="568" d="M294 391l20 -91h6l16 94l105 306h141l-186 -484q-22 -57 -42.5 -99t-44 -69.5t-52.5 -41t-68 -13.5q-33 0 -53.5 4.5t-44.5 19.5l35 111q17 -9 31 -11t30 -2q47 0 66 74l-262 511h161zM301 870h159v-30l-160 -88h-103z" />
<glyph unicode="&#xf4cd;" horiz-adv-x="478" d="M239 219l18 -78h6l13 79l76 280h134l-152 -451q-19 -56 -36.5 -102.5t-38.5 -80.5t-46.5 -52.5t-60.5 -18.5q-52 0 -83 17l24 104q15 -6 30 -6q23 0 44.5 19.5t32.5 70.5l-209 500h156zM253 720h132v-30l-111 -124h-74z" />
<glyph unicode="&#xf4d6;" horiz-adv-x="574" d="M130 410h269q-3 40 -16.5 73.5t-36.5 57.5t-57 37.5t-77 13.5q-54 0 -94 -11.5t-65 -25.5l-29 116q35 18 88 30.5t105 12.5q69 0 127.5 -19t101 -62.5t66.5 -113t24 -169.5q0 -104 -28 -174t-75 -112t-108 -60t-127 -18q-57 0 -103.5 10t-74.5 23l36 119q23 -11 62 -20.5 t90 -9.5q39 0 72 11t58.5 34.5t41.5 59.5t20 87h-270v110zM146 799q0 25 21.5 43t64.5 18t66 -18t23 -43q0 -26 -23 -44t-66 -18t-64.5 18t-21.5 44z" />
<glyph unicode="&#xf4d7;" horiz-adv-x="459" d="M109 300h186q-5 50 -33 77t-83 27q-38 0 -67 -9t-51 -21l-35 94q66 46 178 46t167 -66.5t55 -197.5q0 -132 -62 -198t-170 -66q-47 0 -95 9.5t-76 26.5l32 102q23 -13 54.5 -20.5t63.5 -7.5q64 0 91 27t32 84h-187v93zM110 641q0 29 21.5 49.5t59.5 20.5t61.5 -20.5 t23.5 -49.5t-23.5 -48.5t-61.5 -19.5t-59.5 19.5t-21.5 48.5z" />
<glyph unicode="&#xf50a;" horiz-adv-x="526" d="M120 310v107h24h22t26.5 0.5t26.5 2t21 3.5q35 8 60 28.5t25 55.5q0 48 -30.5 65.5t-80.5 17.5q-45 0 -84 -12t-59 -23l-35 116q11 6 31.5 13t47 13.5t57.5 10.5t63 4q44 0 86 -8t75 -28t53 -53.5t20 -85.5t-27.5 -96t-88.5 -64v-5q65 -13 101.5 -56t36.5 -115 q0 -49 -17.5 -85.5t-46.5 -62.5t-67.5 -41.5t-81.5 -21.5l-14 -165h-88l-19 164q-45 5 -81 14t-58 20l35 119q23 -11 66 -22.5t102 -11.5q22 0 44.5 5.5t40.5 18t29 32.5t11 48q0 47 -35 71t-125 26q-12 1 -18 1h-21h-27z" />
<glyph unicode="&#xf50b;" horiz-adv-x="432" d="M109 207v91h61q35 0 57.5 14.5t22.5 37.5q0 27 -19.5 38t-60.5 11q-39 0 -69.5 -10.5t-48.5 -21.5l-28 100q30 17 79.5 29.5t105.5 12.5q86 0 128.5 -32t42.5 -93q0 -17 -4.5 -34.5t-14.5 -33.5t-24.5 -28.5t-34.5 -19.5v-4q53 -12 75 -42.5t22 -81.5t-34 -90.5 t-106 -53.5l-14 -171h-88l-19 167q-38 4 -66.5 13.5t-49.5 21.5l28 101q23 -13 56 -21.5t73 -8.5q90 0 90 58q0 26 -23.5 38.5t-87.5 12.5h-49z" />
<glyph unicode="&#xf50c;" horiz-adv-x="559" d="M534 29q-26 -19 -65.5 -29t-83.5 -13l-16 -30q41 -4 64.5 -21.5t23.5 -53.5q0 -23 -11.5 -40t-31.5 -28.5t-47 -17.5t-58 -6t-64 6l9 48q7 -1 13 -1h11q38 0 49 9t11 21q0 28 -86 32l50 84q-55 7 -103 30.5t-84 67.5t-56.5 109t-20.5 154q0 103 28.5 172.5t74 112 t101.5 61t112 18.5q60 0 101.5 -8t68.5 -19l-27 -116q-23 11 -54.5 16t-76.5 5q-83 0 -133.5 -59t-50.5 -183q0 -54 12 -98.5t36.5 -76t61 -49t84.5 -17.5q45 0 76 9t54 23z" />
<glyph unicode="&#xf50d;" horiz-adv-x="433" d="M411 31q-23 -17 -52.5 -27t-62.5 -15l-18 -32q41 -4 64.5 -21.5t23.5 -53.5q0 -23 -11.5 -40t-31.5 -28.5t-47 -17.5t-58 -6t-64 6l9 48q7 -1 13 -1h11q38 0 49 9t11 21q0 28 -86 32l50 84q-49 6 -83 27.5t-55 55t-30.5 79t-9.5 99.5q0 127 57 195.5t166 68.5 q55 0 88.5 -9t60.5 -23l-31 -106q-23 11 -45.5 17t-51.5 6q-54 0 -82 -35.5t-28 -113.5q0 -32 7 -59t21 -47t36.5 -31.5t52.5 -11.5q33 0 56 8.5t41 20.5z" />
<glyph unicode="&#xf50e;" horiz-adv-x="605" d="M405 155h-215l-53 -155h-137l252 705h101l252 -705h-144zM225 265h150l-52 156l-21 110h-5l-21 -111zM134 856h343v-89h-343v89z" />
<glyph unicode="&#xf50f;" horiz-adv-x="496" d="M54 471q40 18 95 28.5t115 10.5q52 0 87 -12.5t55.5 -35.5t29 -55t8.5 -72q0 -44 -3 -88.5t-3.5 -87.5t2.5 -83.5t15 -76.5h-106l-21 69h-5q-20 -31 -55.5 -53.5t-91.5 -22.5q-35 0 -63 10.5t-48 30t-31 46t-11 59.5q0 46 20.5 77.5t59 51t92 27t119.5 4.5q7 56 -8 80.5 t-67 24.5q-39 0 -82.5 -8t-71.5 -21zM219 99q39 0 62 17.5t34 37.5v65q-31 3 -59.5 1t-50.5 -9t-35 -20t-13 -33q0 -28 16.5 -43.5t45.5 -15.5zM91 658h323v-92h-323v92z" />
<glyph unicode="&#xf510;" horiz-adv-x="522" d="M60 700h415v-122h-278v-163h253v-122h-253v-171h283v-122h-420v700zM97 856h343v-89h-343v89z" />
<glyph unicode="&#xf511;" horiz-adv-x="508" d="M457 43q-30 -24 -81.5 -40.5t-109.5 -16.5q-121 0 -177 70.5t-56 193.5q0 132 63 198t177 66q38 0 74 -10t64 -33t45 -62t17 -97q0 -21 -2.5 -45t-7.5 -50h-300q3 -63 32.5 -95t95.5 -32q41 0 73.5 12.5t49.5 25.5zM271 410q-51 0 -75.5 -30.5t-29.5 -81.5h186 q4 54 -16.5 83t-64.5 29zM97 658h323v-92h-323v92z" />
<glyph unicode="&#xf512;" horiz-adv-x="522" d="M60 700h415v-122h-278v-163h253v-122h-253v-171h283v-122h-420v700zM82 798q0 26 18 42t58 16q39 0 57 -16t18 -42t-18 -41.5t-57 -15.5q-40 0 -58 15.5t-18 41.5zM296 798q0 26 18 42t57 16q40 0 58 -16t18 -42t-18 -41.5t-58 -15.5q-39 0 -57 15.5t-18 41.5zM92 983 h343v-89h-343v89z" />
<glyph unicode="&#xf513;" horiz-adv-x="508" d="M457 43q-30 -24 -81.5 -40.5t-109.5 -16.5q-121 0 -177 70.5t-56 193.5q0 132 63 198t177 66q38 0 74 -10t64 -33t45 -62t17 -97q0 -21 -2.5 -45t-7.5 -50h-300q3 -63 32.5 -95t95.5 -32q41 0 73.5 12.5t49.5 25.5zM271 410q-51 0 -75.5 -30.5t-29.5 -81.5h186 q4 54 -16.5 83t-64.5 29zM82 626q0 32 19.5 51t51.5 19t50.5 -19t18.5 -51q0 -30 -18.5 -49t-50.5 -19t-51.5 19t-19.5 49zM301 626q0 32 18.5 51t50.5 19t51.5 -19t19.5 -51q0 -30 -19.5 -49t-51.5 -19t-50.5 19t-18.5 49zM90 848h343v-89h-343v89z" />
<glyph unicode="&#xf514;" horiz-adv-x="522" d="M60 700h415v-122h-278v-163h253v-122h-253v-171h283v-122h-420v700zM82 798q0 26 18 42t58 16q39 0 57 -16t18 -42t-18 -41.5t-57 -15.5q-40 0 -58 15.5t-18 41.5zM296 798q0 26 18 42t57 16q40 0 58 -16t18 -42t-18 -41.5t-58 -15.5q-39 0 -57 15.5t-18 41.5zM197 1010 q4 -32 23.5 -46t50.5 -14q67 0 74 59l111 -17q-11 -63 -57.5 -92t-128.5 -29q-41 0 -75 6t-59.5 19.5t-42 36.5t-20.5 57z" />
<glyph unicode="&#xf515;" horiz-adv-x="508" d="M457 43q-30 -24 -81.5 -40.5t-109.5 -16.5q-121 0 -177 70.5t-56 193.5q0 132 63 198t177 66q38 0 74 -10t64 -33t45 -62t17 -97q0 -21 -2.5 -45t-7.5 -50h-300q3 -63 32.5 -95t95.5 -32q41 0 73.5 12.5t49.5 25.5zM271 410q-51 0 -75.5 -30.5t-29.5 -81.5h186 q4 54 -16.5 83t-64.5 29zM82 632q0 32 19.5 51t51.5 19t50.5 -19t18.5 -51q0 -30 -18.5 -49t-50.5 -19t-51.5 19t-19.5 49zM301 632q0 32 18.5 51t50.5 19t51.5 -19t19.5 -51q0 -30 -19.5 -49t-51.5 -19t-50.5 19t-18.5 49zM196 866q4 -32 23.5 -46t50.5 -14q67 0 74 59 l111 -17q-11 -63 -57.5 -92t-128.5 -29q-41 0 -75 6t-59.5 19.5t-42 36.5t-20.5 57z" />
<glyph unicode="&#xf516;" horiz-adv-x="526" d="M120 310v107h24h22t26.5 0.5t26.5 2t21 3.5q35 8 60 28.5t25 55.5q0 48 -30.5 65.5t-80.5 17.5q-45 0 -84 -12t-59 -23l-35 116q11 6 31.5 13t47 13.5t57.5 10.5t63 4q44 0 86 -8t75 -28t53 -53.5t20 -85.5t-27.5 -96t-88.5 -64v-5q65 -13 101.5 -56t36.5 -115 q0 -57 -23 -97.5t-60.5 -66.5t-86.5 -38.5t-100 -12.5q-66 0 -120 11t-83 26l35 119q23 -11 66 -22.5t102 -11.5q22 0 44.5 5.5t40.5 18t29 32.5t11 48q0 47 -35 71t-125 26q-12 1 -18 1h-21h-27zM283 737h-94l-127 94v39h105l53 -45l19 -30l21 29l56 46h100v-40z" />
<glyph unicode="&#xf517;" horiz-adv-x="432" d="M109 207v91h61q35 0 57.5 14t22.5 37q0 27 -20 38.5t-61 11.5q-39 0 -69 -10t-48 -21l-28 99q30 17 79.5 29.5t105.5 12.5q86 0 128.5 -32t42.5 -93q0 -17 -4.5 -34.5t-14.5 -33.5t-24.5 -28.5t-34.5 -19.5v-4q53 -12 75 -42.5t22 -81.5q0 -32 -13 -59.5t-39.5 -47.5 t-66.5 -32t-95 -12t-95.5 11.5t-67.5 26.5l28 101q23 -13 55.5 -21t72.5 -8q91 0 91 58q0 26 -23.5 38t-87.5 12h-49zM241 550h-91l-115 182h110l39 -66l16 -49l18 49l45 66h101z" />
<glyph unicode="&#xf518;" horiz-adv-x="670" d="M38 350q0 175 77 269.5t220 94.5q75 0 131 -26t93 -74t55 -115t18 -149q0 -175 -77.5 -269.5t-219.5 -94.5q-76 0 -132 26t-92.5 74t-54.5 115t-18 149zM182 350q0 -53 9 -97.5t27.5 -76.5t47.5 -50t69 -18q73 0 113 57t40 185q0 51 -8.5 95t-26.5 77t-47 51.5t-71 18.5 q-73 0 -113 -58.5t-40 -183.5zM167 856h343v-89h-343v89z" />
<glyph unicode="&#xf519;" horiz-adv-x="537" d="M33 250q0 127 62 195.5t174 68.5q60 0 104 -19t73 -53.5t43.5 -83.5t14.5 -108q0 -127 -61.5 -195.5t-173.5 -68.5q-60 0 -104 19t-73.5 53.5t-44 83.5t-14.5 108zM167 250q0 -33 6 -61t18 -49t31.5 -32.5t46.5 -11.5q51 0 76 37t25 117q0 69 -23 111.5t-78 42.5 q-48 0 -75 -36t-27 -118zM106 658h323v-92h-323v92z" />
<glyph unicode="&#xf51a;" horiz-adv-x="670" d="M38 350q0 175 77 269.5t220 94.5q75 0 131 -26t93 -74t55 -115t18 -149q0 -175 -77.5 -269.5t-219.5 -94.5q-76 0 -132 26t-92.5 74t-54.5 115t-18 149zM182 350q0 -53 9 -97.5t27.5 -76.5t47.5 -50t69 -18q73 0 113 57t40 185q0 51 -8.5 95t-26.5 77t-47 51.5t-71 18.5 q-73 0 -113 -58.5t-40 -183.5zM266 874q4 -32 23.5 -46t50.5 -14q67 0 74 59l111 -17q-11 -63 -57.5 -92t-128.5 -29q-41 0 -75 6t-59.5 19.5t-42 36.5t-20.5 57z" />
<glyph unicode="&#xf51b;" horiz-adv-x="537" d="M33 250q0 127 62 195.5t174 68.5q60 0 104 -19t73 -53.5t43.5 -83.5t14.5 -108q0 -127 -61.5 -195.5t-173.5 -68.5q-60 0 -104 19t-73.5 53.5t-44 83.5t-14.5 108zM167 250q0 -33 6 -61t18 -49t31.5 -32.5t46.5 -11.5q51 0 76 37t25 117q0 69 -23 111.5t-78 42.5 q-48 0 -75 -36t-27 -118zM208 704q7 -39 23.5 -55t42.5 -16q28 0 44.5 16t22.5 54l99 -25q-12 -65 -59 -96.5t-110 -31.5q-31 0 -60 7t-52 22.5t-39 39.5t-22 59z" />
<glyph unicode="&#xf51c;" horiz-adv-x="670" d="M38 350q0 175 77 269.5t220 94.5q75 0 131 -26t93 -74t55 -115t18 -149q0 -175 -77.5 -269.5t-219.5 -94.5q-76 0 -132 26t-92.5 74t-54.5 115t-18 149zM488 407q-8 89 -48 137t-105 48q-29 0 -55 -10t-46.5 -32t-34 -57.5t-17.5 -85.5h306zM182 297q8 -95 49 -142 t104 -47q29 0 55.5 9.5t47 31t34 57.5t16.5 91h-306zM267 874q4 -32 23.5 -46t50.5 -14q67 0 74 59l111 -17q-11 -63 -57.5 -92t-128.5 -29q-41 0 -75 6t-59.5 19.5t-42 36.5t-20.5 57z" />
<glyph unicode="&#xf51d;" horiz-adv-x="537" d="M33 250q0 127 62 195.5t174 68.5q60 0 104 -19t73 -53.5t43.5 -83.5t14.5 -108q0 -127 -61.5 -195.5t-173.5 -68.5q-60 0 -104 19t-73.5 53.5t-44 83.5t-14.5 108zM370 289q-8 60 -33.5 87.5t-67.5 27.5q-19 0 -36 -6t-30.5 -19.5t-23 -35.5t-12.5 -54h203zM167 207 q6 -54 34 -82.5t68 -28.5q38 0 66.5 24.5t34.5 86.5h-203zM208 704q7 -39 23.5 -55t42.5 -16q28 0 44.5 16t22.5 54l99 -25q-12 -65 -59 -96.5t-110 -31.5q-31 0 -60 7t-52 22.5t-39 39.5t-22 59z" />
<glyph unicode="&#xf51e;" horiz-adv-x="670" d="M38 350q0 175 77 269.5t220 94.5q75 0 131 -26t93 -74t55 -115t18 -149q0 -175 -77.5 -269.5t-219.5 -94.5q-76 0 -132 26t-92.5 74t-54.5 115t-18 149zM182 350q0 -53 9 -97.5t27.5 -76.5t47.5 -50t69 -18q73 0 113 57t40 185q0 51 -8.5 95t-26.5 77t-47 51.5t-71 18.5 q-73 0 -113 -58.5t-40 -183.5zM153 798q0 26 18 42t58 16q39 0 57 -16t18 -42t-18 -41.5t-57 -15.5q-40 0 -58 15.5t-18 41.5zM367 798q0 26 18 42t57 16q40 0 58 -16t18 -42t-18 -41.5t-58 -15.5q-39 0 -57 15.5t-18 41.5zM268 1010q4 -32 23.5 -46t50.5 -14q67 0 74 59 l111 -17q-11 -63 -57.5 -92t-128.5 -29q-41 0 -75 6t-59.5 19.5t-42 36.5t-20.5 57z" />
<glyph unicode="&#xf51f;" horiz-adv-x="537" d="M33 250q0 127 62 195.5t174 68.5q60 0 104 -19t73 -53.5t43.5 -83.5t14.5 -108q0 -127 -61.5 -195.5t-173.5 -68.5q-60 0 -104 19t-73.5 53.5t-44 83.5t-14.5 108zM167 250q0 -33 6 -61t18 -49t31.5 -32.5t46.5 -11.5q51 0 76 37t25 117q0 69 -23 111.5t-78 42.5 q-48 0 -75 -36t-27 -118zM90 632q0 32 19.5 51t51.5 19t50.5 -19t18.5 -51q0 -30 -18.5 -49t-50.5 -19t-51.5 19t-19.5 49zM309 632q0 32 18.5 51t50.5 19t51.5 -19t19.5 -51q0 -30 -19.5 -49t-51.5 -19t-50.5 19t-18.5 49zM196 866q4 -32 23.5 -46t50.5 -14q67 0 74 59 l111 -17q-11 -63 -57.5 -92t-128.5 -29q-41 0 -75 6t-59.5 19.5t-42 36.5t-20.5 57z" />
<glyph unicode="&#xf520;" horiz-adv-x="798" d="M600 700h137v-700h-137v700zM60 700h137v-251q11 2 35 5t47 3q50 0 95.5 -10t79.5 -35.5t54 -69t20 -109.5q0 -122 -71 -182.5t-211 -60.5q-14 0 -36 0.5t-47.5 2.5t-52.5 5t-50 9v693zM256 112q57 0 92.5 26.5t35.5 88.5q0 33 -10 54t-27 33t-40 16.5t-50 4.5 q-14 0 -33 -2.5t-27 -5.5v-209q11 -3 26.5 -4.5t32.5 -1.5zM220 856h343v-89h-343v89z" />
<glyph unicode="&#xf521;" horiz-adv-x="703" d="M187 109q30 -6 57 -6q45 0 63 16.5t18 51.5q0 32 -18 48.5t-60 16.5q-33 0 -60 -7v-120zM187 322q24 4 48.5 5.5t44.5 1.5q51 0 85 -11.5t55 -32.5t30 -49.5t9 -61.5q0 -45 -12 -79t-39 -56.5t-70 -34t-106 -11.5q-57 0 -98.5 2t-76.5 5v500h130v-178zM516 500h130v-500 h-130v500zM184 658h323v-92h-323v92z" />
<glyph unicode="&#xf522;" horiz-adv-x="574" d="M130 410h269q-3 40 -16.5 73.5t-36.5 57.5t-57 37.5t-77 13.5q-54 0 -94 -11.5t-65 -25.5l-29 116q35 18 88 30.5t105 12.5q69 0 127.5 -19t101 -62.5t66.5 -113t24 -169.5q0 -104 -28 -174t-75 -112t-108 -60t-127 -18q-57 0 -103.5 10t-74.5 23l36 119q23 -11 62 -20.5 t90 -9.5q39 0 72 11t58.5 34.5t41.5 59.5t20 87h-270v110zM67 856h343v-89h-343v89z" />
<glyph unicode="&#xf523;" horiz-adv-x="459" d="M109 300h186q-5 50 -33 77t-83 27q-38 0 -67 -9t-51 -21l-35 94q66 46 178 46t167 -66.5t55 -197.5q0 -132 -62 -198t-170 -66q-47 0 -95 9.5t-76 26.5l32 102q23 -13 54.5 -20.5t63.5 -7.5q64 0 91 27t32 84h-187v93zM49 658h323v-92h-323v92z" />
<glyph unicode="&#xf524;" horiz-adv-x="574" d="M130 410h269q-3 40 -16.5 73.5t-36.5 57.5t-57 37.5t-77 13.5q-54 0 -94 -11.5t-65 -25.5l-29 116q35 18 88 30.5t105 12.5q69 0 127.5 -19t101 -62.5t66.5 -113t24 -169.5q0 -104 -28 -174t-75 -112t-108 -60t-127 -18q-57 0 -103.5 10t-74.5 23l36 119q23 -11 62 -20.5 t90 -9.5q39 0 72 11t58.5 34.5t41.5 59.5t20 87h-270v110zM168 874q4 -32 23.5 -46t50.5 -14q67 0 74 59l111 -17q-11 -63 -57.5 -92t-128.5 -29q-41 0 -75 6t-59.5 19.5t-42 36.5t-20.5 57z" />
<glyph unicode="&#xf525;" horiz-adv-x="459" d="M109 300h186q-5 50 -33 77t-83 27q-38 0 -67 -9t-51 -21l-35 94q66 46 178 46t167 -66.5t55 -197.5q0 -132 -62 -198t-170 -66q-47 0 -95 9.5t-76 26.5l32 102q23 -13 54.5 -20.5t63.5 -7.5q64 0 91 27t32 84h-187v93zM147 704q7 -39 23.5 -55t42.5 -16q28 0 44.5 16 t22.5 54l99 -25q-12 -65 -59 -96.5t-110 -31.5q-31 0 -60 7t-52 22.5t-39 39.5t-22 59z" />
<glyph unicode="&#xf526;" horiz-adv-x="577" d="M549 29q-15 -11 -37.5 -19.5t-48 -13.5t-52.5 -7.5t-53 -2.5q-65 0 -123 19.5t-101.5 63t-69.5 113t-26 168.5q0 103 29 172.5t75.5 112t104 61t115.5 18.5q60 0 105 -8t72 -19l-26 -119q-23 11 -58.5 17.5t-80.5 6.5q-35 0 -66.5 -10.5t-56 -32.5t-42 -55t-24.5 -78h275 v-112h-278q11 -89 62.5 -142.5t139.5 -53.5q45 0 80 9t57 22zM158 798q0 26 18 42t58 16q39 0 57 -16t18 -42t-18 -41.5t-57 -15.5q-40 0 -58 15.5t-18 41.5zM372 798q0 26 18 42t57 16q40 0 58 -16t18 -42t-18 -41.5t-58 -15.5q-39 0 -57 15.5t-18 41.5z" />
<glyph unicode="&#xf527;" horiz-adv-x="457" d="M435 31q-30 -22 -75 -33.5t-90 -11.5q-60 0 -104 19t-72.5 53.5t-42.5 83.5t-14 108q0 63 17 112t48 83t75 51.5t98 17.5t90 -9t63 -23l-30 -106q-23 11 -48.5 17t-54.5 6q-47 0 -80.5 -24t-43.5 -78h196v-88h-197q9 -48 41.5 -78t90.5 -30q34 0 59 8.5t44 20.5zM82 632 q0 32 19.5 51t51.5 19t50.5 -19t18.5 -51q0 -30 -18.5 -49t-50.5 -19t-51.5 19t-19.5 49zM301 632q0 32 18.5 51t50.5 19t51.5 -19t19.5 -51q0 -30 -19.5 -49t-51.5 -19t-50.5 19t-18.5 49z" />
<glyph unicode="&#xf528;" horiz-adv-x="580" d="M519 0h-137v277l-72 -19l-146 -258h-159l144 233l60 43q-32 8 -60 24.5t-49 42.5t-33 61.5t-12 80.5q0 63 22 106t61 69.5t93 38t117 11.5q17 0 39 -1t45.5 -3t46 -5t40.5 -8v-693zM331 588q-27 0 -51 -5t-42 -17t-28.5 -33t-10.5 -54q0 -31 10 -52.5t28 -35t42 -19.5 t52 -6h51v217q-11 2 -22.5 3.5t-28.5 1.5zM148 856h343v-89h-343v89z" />
<glyph unicode="&#xf529;" horiz-adv-x="503" d="M321 189l-60 -12l-96 -177h-155l97 157l49 37q-49 8 -81 46.5t-32 96.5q0 91 60.5 134t185.5 43q48 0 89.5 -5t72.5 -11v-498h-130v189zM321 257v138q-11 5 -24 7t-25 2q-45 0 -70 -19t-25 -57t27.5 -56t80.5 -17zM95 658h323v-92h-323v92z" />
<glyph unicode="&#xf52a;" horiz-adv-x="580" d="M519 0h-137v277l-72 -19l-146 -258h-159l144 233l60 43q-32 8 -60 24.5t-49 42.5t-33 61.5t-12 80.5q0 63 22 106t61 69.5t93 38t117 11.5q17 0 39 -1t45.5 -3t46 -5t40.5 -8v-693zM331 588q-27 0 -51 -5t-42 -17t-28.5 -33t-10.5 -54q0 -31 10 -52.5t28 -35t42 -19.5 t52 -6h51v217q-11 2 -22.5 3.5t-28.5 1.5zM245 874q4 -32 23.5 -46t50.5 -14q67 0 74 59l111 -17q-11 -63 -57.5 -92t-128.5 -29q-41 0 -75 6t-59.5 19.5t-42 36.5t-20.5 57z" />
<glyph unicode="&#xf52b;" horiz-adv-x="503" d="M321 189l-60 -12l-96 -177h-155l97 157l49 37q-49 8 -81 46.5t-32 96.5q0 91 60.5 134t185.5 43q48 0 89.5 -5t72.5 -11v-498h-130v189zM321 257v138q-11 5 -24 7t-25 2q-45 0 -70 -19t-25 -57t27.5 -56t80.5 -17zM202 704q7 -39 23.5 -55t42.5 -16q28 0 44.5 16t22.5 54 l99 -25q-12 -65 -59 -96.5t-110 -31.5q-31 0 -60 7t-52 22.5t-39 39.5t-22 59z" />
<glyph unicode="&#xf52c;" horiz-adv-x="897" d="M197 415h93q13 143 84 221t199 78q76 0 130 -26t88.5 -74t51 -115t16.5 -149q0 -175 -72 -269.5t-214 -94.5q-66 0 -116.5 22t-85.5 62t-55 97t-26 126h-93v-293h-137v700h137v-285zM430 350q0 -53 7.5 -97.5t24 -76.5t44 -50t67.5 -18q73 0 107.5 57t34.5 185 q0 51 -6.5 95t-22.5 77t-43.5 51.5t-69.5 18.5q-72 0 -107.5 -58.5t-35.5 -183.5zM283 856h343v-89h-343v89z" />
<glyph unicode="&#xf52d;" horiz-adv-x="734" d="M480 -14q-56 0 -95.5 15t-65 43t-39 68t-17.5 90h-76v-202h-130v500h130v-188h77q10 97 61.5 149.5t156.5 52.5q57 0 98 -19t68 -53.5t39.5 -83.5t12.5 -108q0 -127 -54 -195.5t-166 -68.5zM387 250q0 -73 20.5 -113.5t72.5 -40.5q46 0 66 34t20 120q0 77 -19 115.5 t-70 38.5q-46 0 -68 -35t-22 -119zM196 658h323v-92h-323v92z" />
<glyph unicode="&#xf52e;" horiz-adv-x="897" d="M197 415h93q13 143 84 221t199 78q76 0 130 -26t88.5 -74t51 -115t16.5 -149q0 -175 -72 -269.5t-214 -94.5q-66 0 -116.5 22t-85.5 62t-55 97t-26 126h-93v-293h-137v700h137v-285zM430 350q0 -53 7.5 -97.5t24 -76.5t44 -50t67.5 -18q73 0 107.5 57t34.5 185 q0 51 -6.5 95t-22.5 77t-43.5 51.5t-69.5 18.5q-72 0 -107.5 -58.5t-35.5 -183.5zM357 874q4 -32 23.5 -46t50.5 -14q67 0 74 59l111 -17q-11 -63 -57.5 -92t-128.5 -29q-41 0 -75 6t-59.5 19.5t-42 36.5t-20.5 57z" />
<glyph unicode="&#xf52f;" horiz-adv-x="734" d="M480 -14q-56 0 -95.5 15t-65 43t-39 68t-17.5 90h-76v-202h-130v500h130v-188h77q10 97 61.5 149.5t156.5 52.5q57 0 98 -19t68 -53.5t39.5 -83.5t12.5 -108q0 -127 -54 -195.5t-166 -68.5zM387 250q0 -73 20.5 -113.5t72.5 -40.5q46 0 66 34t20 120q0 77 -19 115.5 t-70 38.5q-46 0 -68 -35t-22 -119zM301 704q7 -39 23.5 -55t42.5 -16q28 0 44.5 16t22.5 54l99 -25q-12 -65 -59 -96.5t-110 -31.5q-31 0 -60 7t-52 22.5t-39 39.5t-22 59z" />
<glyph unicode="&#xf532;" horiz-adv-x="666" d="M468 388l8 91h-5l-46 -94l-262 -385h-103v700h137v-381l-10 -94h6l49 97l261 378h102v-721q0 -90 -34 -139t-116 -49q-16 0 -33.5 2t-37.5 6v108q4 0 7.5 -0.5t7.5 -0.5q43 0 56 24.5t13 69.5v388zM273 874q4 -32 23.5 -46t50.5 -14q67 0 74 59l111 -17 q-11 -63 -57.5 -92t-128.5 -29q-41 0 -75 6t-59.5 19.5t-42 36.5t-20.5 57z" />
<glyph unicode="&#xf533;" horiz-adv-x="545" d="M358 228l5 71h-3l-42 -73l-179 -226h-82v500h130v-238l-6 -68h4l41 71l180 235h82v-521q0 -91 -36 -139t-115 -48q-30 0 -64 7v109q4 0 7.5 -0.5t7.5 -0.5q22 0 35.5 6t21 18t10.5 29.5t3 39.5v228zM219 704q7 -39 23.5 -55t42.5 -16q28 0 44.5 16t22.5 54l99 -25 q-12 -65 -59 -96.5t-110 -31.5q-31 0 -60 7t-52 22.5t-39 39.5t-22 59z" />
<glyph unicode="&#xf534;" horiz-adv-x="670" d="M38 350q0 175 77 269.5t220 94.5q75 0 131 -26t93 -74t55 -115t18 -149q0 -175 -77.5 -269.5t-219.5 -94.5q-76 0 -132 26t-92.5 74t-54.5 115t-18 149zM182 350q0 -53 9 -97.5t27.5 -76.5t47.5 -50t69 -18q73 0 113 57t40 185q0 51 -8.5 95t-26.5 77t-47 51.5t-71 18.5 q-73 0 -113 -58.5t-40 -183.5zM249 799q0 25 21.5 43t64.5 18t66 -18t23 -43q0 -26 -23 -44t-66 -18t-64.5 18t-21.5 44z" />
<glyph unicode="&#xf535;" horiz-adv-x="537" d="M33 250q0 127 62 195.5t174 68.5q60 0 104 -19t73 -53.5t43.5 -83.5t14.5 -108q0 -127 -61.5 -195.5t-173.5 -68.5q-60 0 -104 19t-73.5 53.5t-44 83.5t-14.5 108zM167 250q0 -33 6 -61t18 -49t31.5 -32.5t46.5 -11.5q51 0 76 37t25 117q0 69 -23 111.5t-78 42.5 q-48 0 -75 -36t-27 -118zM187 641q0 29 21.5 49.5t59.5 20.5t61.5 -20.5t23.5 -49.5t-23.5 -48.5t-61.5 -19.5t-59.5 19.5t-21.5 48.5z" />
<glyph unicode="&#xf536;" horiz-adv-x="798" d="M600 700h137v-700h-137v700zM60 700h137v-251q11 2 35 5t47 3q50 0 95.5 -10t79.5 -35.5t54 -69t20 -109.5q0 -122 -71 -182.5t-211 -60.5q-14 0 -36 0.5t-47.5 2.5t-52.5 5t-50 9v693zM256 112q57 0 92.5 26.5t35.5 88.5q0 33 -10 54t-27 33t-40 16.5t-50 4.5 q-14 0 -33 -2.5t-27 -5.5v-209q11 -3 26.5 -4.5t32.5 -1.5zM332 874q4 -32 23.5 -46t50.5 -14q67 0 74 59l111 -17q-11 -63 -57.5 -92t-128.5 -29q-41 0 -75 6t-59.5 19.5t-42 36.5t-20.5 57z" />
<glyph unicode="&#xf537;" horiz-adv-x="703" d="M187 109q30 -6 57 -6q45 0 63 16.5t18 51.5q0 32 -18 48.5t-60 16.5q-33 0 -60 -7v-120zM187 322q24 4 48.5 5.5t44.5 1.5q51 0 85 -11.5t55 -32.5t30 -49.5t9 -61.5q0 -45 -12 -79t-39 -56.5t-70 -34t-106 -11.5q-57 0 -98.5 2t-76.5 5v500h130v-178zM516 500h130v-500 h-130v500zM293 704q7 -39 23.5 -55t42.5 -16q28 0 44.5 16t22.5 54l99 -25q-12 -65 -59 -96.5t-110 -31.5q-31 0 -60 7t-52 22.5t-39 39.5t-22 59z" />
<glyph unicode="&#xf538;" horiz-adv-x="526" d="M384 310h-21t-18 -1q-88 -2 -124.5 -28t-36.5 -72q0 -26 10.5 -45t28 -31.5t41 -18.5t50.5 -6q51 0 92.5 12.5t64.5 23.5l37 -108q-14 -9 -35.5 -17.5t-48.5 -16t-57.5 -12t-63.5 -4.5q-60 0 -108.5 12.5t-83 38t-53 65t-18.5 93.5q0 73 35.5 117.5t100.5 57.5v5 q-58 22 -86 66t-28 96q0 48 19.5 81.5t53 54.5t77 30t91.5 9q29 0 58.5 -4t55 -10.5t46 -14t31.5 -14.5l-36 -109q-25 11 -63 20.5t-74 9.5q-55 0 -85 -18t-30 -60q0 -20 8 -35t20.5 -26t29 -18t34.5 -10q17 -5 44 -5.5t45 -0.5h24v-107h-27zM106 798q0 26 18 42t58 16 q39 0 57 -16t18 -42t-18 -41.5t-57 -15.5q-40 0 -58 15.5t-18 41.5zM320 798q0 26 18 42t57 16q40 0 58 -16t18 -42t-18 -41.5t-58 -15.5q-39 0 -57 15.5t-18 41.5z" />
<glyph unicode="&#xf539;" horiz-adv-x="432" d="M274 207q-32 0 -53.5 -3t-34.5 -9.5t-18 -16t-5 -22.5q0 -26 22.5 -41.5t67.5 -15.5q40 0 73 9t56 23l28 -101q-26 -15 -67 -28t-96 -13q-110 0 -162 42.5t-52 108.5q0 51 23.5 80.5t73.5 43.5v4q-40 14 -59 45.5t-19 66.5q0 64 46 96.5t125 32.5q62 0 108.5 -12.5 t76.5 -29.5l-28 -99q-18 11 -48.5 21t-69.5 10q-41 0 -60.5 -11t-19.5 -38q0 -23 22.5 -37.5t57.5 -14.5h61v-91h-49zM57 632q0 32 19.5 51t51.5 19t50.5 -19t18.5 -51q0 -30 -18.5 -49t-50.5 -19t-51.5 19t-19.5 49zM276 632q0 32 18.5 51t50.5 19t51.5 -19t19.5 -51 q0 -30 -19.5 -49t-51.5 -19t-50.5 19t-18.5 49z" />
<glyph unicode="&#xf53a;" horiz-adv-x="285" d="M74 700h137v-700h-137v700zM57 799q0 25 21.5 43t64.5 18t66 -18t23 -43q0 -26 -23 -44t-66 -18t-64.5 18t-21.5 44z" />
<glyph unicode="&#xf53b;" horiz-adv-x="269" d="M70 500h130v-500h-130v500z" />
<glyph unicode="&#xf53c;" horiz-adv-x="508" d="M60 700h415v-122h-278v-173h256v-122h-256v-283h-137v700z" />
<glyph unicode="&#xf53d;" horiz-adv-x="408" d="M380 385h-189v-108h169v-104h-169v-173h-134v500h323v-115z" />
<glyph unicode="&#xf53e;" horiz-adv-x="559" d="M534 29q-24 -17 -58.5 -26.5t-72.5 -13.5l-14 -164h-88l-19 168q-51 9 -95.5 34t-77.5 68.5t-52 106.5t-19 148q0 103 28.5 172.5t74 112t101.5 61t112 18.5q60 0 101.5 -8t68.5 -19l-27 -116q-23 11 -54.5 16t-76.5 5q-83 0 -133.5 -59t-50.5 -183q0 -54 12 -98.5 t36.5 -76t61 -49t84.5 -17.5q45 0 76 9t54 23z" />
<glyph unicode="&#xf53f;" horiz-adv-x="433" d="M411 31q-38 -27 -94 -38l-14 -168h-88l-19 166q-45 8 -76 30t-50.5 55.5t-28 77.5t-8.5 96q0 127 57 195.5t166 68.5q55 0 88.5 -9t60.5 -23l-31 -106q-23 11 -45.5 17t-51.5 6q-54 0 -82 -35.5t-28 -113.5q0 -32 7 -59t21 -47t36.5 -31.5t52.5 -11.5q33 0 56 8.5 t41 20.5z" />
<glyph unicode="&#xf540;" horiz-adv-x="647" d="M60 700q21 3 47.5 5t54.5 3t54.5 1.5t47.5 0.5q93 0 159 -26t107 -73t60 -112t19 -143q0 -71 -18 -137t-60 -117t-110.5 -82t-169.5 -31q-16 0 -42.5 1t-55 2.5t-54.5 3t-39 3.5v701zM275 588q-22 0 -44.5 -1t-33.5 -3v-469q4 -1 13.5 -1.5t20.5 -1t21 -1t15 -0.5 q58 0 96.5 20.5t61 54.5t31.5 78.5t9 91.5q0 41 -8 82.5t-29.5 74.5t-58.5 54t-94 21zM302 870h159v-30l-160 -88h-103z" />
<glyph unicode="&#xf541;" horiz-adv-x="539" d="M482 176q0 -42 1 -84t9 -93h-93l-18 65h-4q-20 -35 -57.5 -56.5t-88.5 -21.5q-94 0 -146 62t-52 194q0 128 58 199t170 71q31 0 51 -3.5t40 -11.5v203h130v-524zM261 96q38 0 60 18.5t31 53.5v212q-14 11 -31 16.5t-44 5.5q-55 0 -82.5 -37t-27.5 -127q0 -64 22.5 -103 t71.5 -39zM559 701h132v-30l-111 -124h-74z" />
<glyph unicode="&#xf542;" horiz-adv-x="651" d="M453 293h-256v-293h-137v700h137v-285h256v285h137v-700h-137v293zM347 870h159v-30l-160 -88h-103z" />
<glyph unicode="&#xf543;" horiz-adv-x="545" d="M363 0v284q0 61 -17 88t-62 27q-33 0 -60.5 -22.5t-36.5 -57.5v-319h-130v700h130v-256h4q24 32 59 51t89 19q38 0 67 -10t48.5 -33t29 -62.5t9.5 -97.5v-311h-130zM322 720h132v-30l-111 -124h-74z" />
<glyph unicode="&#xf544;" horiz-adv-x="514" d="M503 0h-443v700h137v-578h306v-122zM302 701h132v-30l-111 -124h-74z" />
<glyph unicode="&#xf545;" horiz-adv-x="294" d="M191 168q0 -35 9 -51t29 -16q12 0 23.5 2t28.5 9l14 -102q-16 -8 -49 -16t-68 -8q-57 0 -87 26.5t-30 87.5v600h130v-532zM269 701h132v-30l-111 -124h-74z" />
<glyph unicode="&#xf546;" horiz-adv-x="568" d="M557 578h-204v-578h-137v578h-205v122h546v-122zM322 870h159v-30l-160 -88h-103z" />
<glyph unicode="&#xf547;" horiz-adv-x="349" d="M5 500h69v94l130 37v-131h122v-110h-122v-192q0 -52 10.5 -74.5t39.5 -22.5q20 0 34.5 4t32.5 12l23 -100q-27 -13 -63 -22t-73 -9q-69 0 -101.5 35.5t-32.5 116.5v252h-69v110zM304 701h132v-30l-111 -124h-74z" />
<glyph unicode="&#xf548;" horiz-adv-x="602" d="M290 289l18 -119h5l20 120l134 410h144l-260 -705h-98l-262 705h159zM340 870h159v-30l-160 -88h-103z" />
<glyph unicode="&#xf549;" horiz-adv-x="477" d="M230 238l17 -77h5l14 79l85 260h140l-209 -505h-79l-217 505h151zM239 720h132v-30l-111 -124h-74z" />
<glyph unicode="&#xf54a;" horiz-adv-x="526" d="M120 310v107h24h22t26.5 0.5t26.5 2t21 3.5q35 8 60 28.5t25 55.5q0 48 -30.5 65.5t-80.5 17.5q-45 0 -84 -12t-59 -23l-35 116q11 6 31.5 13t47 13.5t57.5 10.5t63 4q44 0 86 -8t75 -28t53 -53.5t20 -85.5t-27.5 -96t-88.5 -64v-5q65 -13 101.5 -56t36.5 -115 q0 -57 -23 -97.5t-60.5 -66.5t-86.5 -38.5t-100 -12.5q-66 0 -120 11t-83 26l35 119q23 -11 66 -22.5t102 -11.5q22 0 44.5 5.5t40.5 18t29 32.5t11 48q0 47 -35 71t-125 26q-12 1 -18 1h-21h-27z" />
<glyph unicode="&#xf54b;" horiz-adv-x="437" d="M101 132v90h61q18 0 34 7.5t28.5 20t20 29.5t7.5 36q0 44 -22.5 64.5t-70.5 20.5q-39 0 -62.5 -9.5t-41.5 -20.5l-28 98q30 17 74.5 29t102.5 12q91 0 135 -43t44 -114q0 -53 -27 -94.5t-65 -58.5v-4q25 -8 47.5 -21.5t38.5 -35t25.5 -52t9.5 -73.5q0 -55 -19.5 -96.5 t-52.5 -70t-76.5 -43t-92.5 -14.5q-51 0 -90.5 11.5t-66.5 26.5l36 101q23 -13 50 -21.5t54 -8.5q24 0 46.5 6.5t40.5 20t29 35.5t11 53q0 59 -36.5 89t-100.5 30h-43z" />
<glyph unicode="&#xf54c;" horiz-adv-x="526" d="M120 310v107h24h22t26.5 0.5t26.5 2t21 3.5q35 8 60 28.5t25 55.5q0 48 -30.5 65.5t-80.5 17.5q-45 0 -84 -12t-59 -23l-35 116q11 6 31.5 13t47 13.5t57.5 10.5t63 4q44 0 86 -8t75 -28t53 -53.5t20 -85.5t-27.5 -96t-88.5 -64v-5q65 -13 101.5 -56t36.5 -115 q0 -57 -23 -97.5t-60.5 -66.5t-86.5 -38.5t-100 -12.5q-66 0 -120 11t-83 26l35 119q23 -11 66 -22.5t102 -11.5q22 0 44.5 5.5t40.5 18t29 32.5t11 48q0 47 -35 71t-125 26q-12 1 -18 1h-21h-27zM283 737h-94l-127 94v39h105l53 -45l19 -30l21 29l56 46h100v-40z" />
<glyph unicode="&#xf54d;" horiz-adv-x="437" d="M101 132v90h61q18 0 34 7.5t28.5 20t20 29.5t7.5 36q0 44 -22.5 64.5t-70.5 20.5q-39 0 -62.5 -9.5t-41.5 -20.5l-28 98q30 17 74.5 29t102.5 12q91 0 135 -43t44 -114q0 -53 -27 -94.5t-65 -58.5v-4q25 -8 47.5 -21.5t38.5 -35t25.5 -52t9.5 -73.5q0 -55 -19.5 -96.5 t-52.5 -70t-76.5 -43t-92.5 -14.5q-51 0 -90.5 11.5t-66.5 26.5l36 101q23 -13 50 -21.5t54 -8.5q24 0 46.5 6.5t40.5 20t29 35.5t11 53q0 59 -36.5 89t-100.5 30h-43zM245 550h-91l-115 182h110l39 -66l16 -49l18 49l45 66h101z" />
<glyph unicode="&#xf62c;" horiz-adv-x="223" d="M185 352q0 -29 -19.5 -46.5t-48.5 -17.5q-37 0 -58 23.5t-21 62.5q0 40 12.5 68t30 46.5t36.5 29t33 15.5l32 -54q-20 -8 -34 -25.5t-16 -37.5q20 0 36.5 -17.5t16.5 -46.5z" />
<glyph unicode="&#xf62d;" horiz-adv-x="223" d="M38 468q0 29 19.5 47t49.5 18q36 0 57 -24t21 -63q0 -40 -12.5 -68t-30 -46.5t-37 -28.5t-32.5 -15l-33 55q20 9 35.5 23.5t17.5 37.5q-20 -1 -37.5 15.5t-17.5 48.5z" />
<glyph unicode="&#xf62e;" horiz-adv-x="396" d="M358 352q0 -29 -19.5 -46.5t-48.5 -17.5q-37 0 -58 23.5t-21 62.5q0 40 12.5 68t30 46.5t36.5 29t33 15.5l32 -54q-20 -8 -34 -25.5t-16 -37.5q20 0 36.5 -17.5t16.5 -46.5zM185 352q0 -29 -19.5 -46.5t-48.5 -17.5q-37 0 -58 23.5t-21 62.5q0 40 12.5 68t30 46.5 t36.5 29t33 15.5l32 -54q-20 -8 -34 -25.5t-16 -37.5q20 0 36.5 -17.5t16.5 -46.5z" />
<glyph unicode="&#xf62f;" horiz-adv-x="396" d="M211 468q0 29 19.5 47t49.5 18q36 0 57 -24t21 -63q0 -40 -12.5 -68t-30 -46.5t-37 -28.5t-32.5 -15l-33 55q20 9 35.5 23.5t17.5 37.5q-20 -1 -37.5 15.5t-17.5 48.5zM38 468q0 29 19.5 47t49.5 18q36 0 57 -24t21 -63q0 -40 -12.5 -68t-30 -46.5t-37 -28.5t-32.5 -15 l-33 55q20 9 35.5 23.5t17.5 37.5q-20 -1 -37.5 15.5t-17.5 48.5z" />
<glyph unicode="&#xf634;" horiz-adv-x="254" d="M90 525h114l-36 -216h-78v216z" />
<glyph unicode="&#xf635;" horiz-adv-x="402" d="M90 526h114l-36 -216h-78v216zM238 526h114l-36 -216h-78v216z" />
<glyph unicode="&#xf662;" horiz-adv-x="412" d="M169 544l11 46l-31 -32l-59 -39l-49 77l158 111h85v-427h-115v264z" />
<glyph unicode="&#xf6c3;" horiz-adv-x="267" d="M60 -105q0 29 19.5 46t48.5 17q35 0 57 -23t22 -65q0 -33 -11 -58t-27 -42.5t-34 -28t-31 -14.5l-34 54q14 7 28 19.5t16 33.5q-20 -1 -37 14.5t-17 46.5z" />
<glyph unicode="&#xf6c9;" horiz-adv-x="383" d="M164 870h159v-30l-160 -88h-103z" />
<glyph unicode="&#xf6ca;" horiz-adv-x="474" d="M281 737h-94l-127 94v39h105l53 -45l19 -30l21 29l56 46h100v-40z" />
<glyph unicode="&#xf6cb;" horiz-adv-x="485" d="M60 798q0 26 18 42t58 16q39 0 57 -16t18 -42t-18 -41.5t-57 -15.5q-40 0 -58 15.5t-18 41.5zM274 798q0 26 18 42t57 16q40 0 58 -16t18 -42t-18 -41.5t-58 -15.5q-39 0 -57 15.5t-18 41.5z" />
<glyph unicode="&#xf6ce;" horiz-adv-x="383" d="M323 752h-105l-158 88v30h159z" />
<glyph unicode="&#xf6cf;" horiz-adv-x="517" d="M119 850h134v-16l-100 -93h-93zM317 850h140v-16l-143 -93h-94z" />
<glyph unicode="&#xf6d0;" horiz-adv-x="463" d="M60 856h343v-89h-343v89z" />
<glyph unicode="&#xf6d1;" horiz-adv-x="503" d="M184 874q4 -32 23.5 -46t50.5 -14q67 0 74 59l111 -17q-11 -63 -57.5 -92t-128.5 -29q-41 0 -75 6t-59.5 19.5t-42 36.5t-20.5 57z" />
<glyph unicode="&#xf6d4;" horiz-adv-x="462" d="M170 704q7 -39 23.5 -55t42.5 -16q28 0 44.5 16t22.5 54l99 -25q-12 -65 -59 -96.5t-110 -31.5q-31 0 -60 7t-52 22.5t-39 39.5t-22 59z" />
<glyph unicode="&#xfeff;" horiz-adv-x="0" />
<glyph horiz-adv-x="188" d="M353 700q-2 -29 -12 -60.5t-23.5 -60t-28.5 -51t-27 -32.5l-58 31q17 36 26 81.5t9 91.5h114z" />
<glyph horiz-adv-x="184" d="M342 714l73 -66l-576 -662l-73 69z" />
<glyph horiz-adv-x="262" d="M66 700h130v-700h-130v700z" />
</font>
</defs>
</svg>
